{
.appVersion = "1131";
DisplayStrings = (
"0123456789\012\01210 11 12 13 14 15 16 17 18 19 20 \012\01210 01 11 12 21 13 31 14 41 15 51 16 61 17 71 18 81 19 91 \012\01220 02 21 12 22 23 32 24 42 25 52 26 62 27 72 28 82 29 92\012\0121891 1892 1893 1894 1895 1896 1897 1898 1899 1900 1901 1902 1903 1904 1905 1906 1907 1908 1909 1910 1911  1912 1913 1914 1915 1916 1917 1918 1919 1920 1921 1922 1923 1924  1925 1926 1927 1928 1929 1930 1931 1932 1933 1934 1935 1936 1937 1938 1939 1940 1941 1942 1943 1944 1945 1946 1947 1948 1948 1949 1950 1951 1952 1953 1954 1955 1956 1957 1958 1959 1960 1961 1962 1963 1964 1965 1966 1967 1968 1969 1970 1971 1972 1973 1974 1975 1976 1977 1978 1979 1980 1981 1982 1983 1984 1985 1986 1987 1988 1989 1990 1991 1992 1993 1994 1995 1996 1997 1998 1999 2000 2001 2002 2003 2004 2005 2006 2007 2008 2009 2010 2010 2011 2012 2013 2014 2015 2016 2017 2018 2019 2020 2021 2022 2023 2024 "
);
copyright = "Part of the digitally encoded machine readable outline data for producing the Typefaces provided is copyrighted � 2009 Linotype Corp., www.linotype.com. All rights reserved. This software is the property of Linotype Corp., and may not be reproduced, used, displayed, modified, disclosed or transferred without the express written approval of Linotype Corp..  The digitally encoded machine readable software for producing the Typefaces licensed to you is copyrighted (c) 1987, 1991, 1993, 1994, 1998 Adobe Systems. All Rights Reserved. This software is the property of Adobe Systems Incorporated and its licensors, and may not be reproduced, used, displayed, modified, disclosed or transferred without the express written approval of Adobe. Univers is a trademark of Linotype Corp. registered in the U.S. Patent and Trademark Office and may be registered in certain other jurisdictions in the name of Linotype Corp. or its licensee Linotype GmbH. This typeface is original artwork of Adrian Frutiger. The design may be protected in certain jurisdictions.";

glyphs = (
{
glyphname = .notdef;
lastChange = "2020-10-05 17:32:20 +0000";
layers = (
{
hints = (
{
horizontal = 1;
place = "{0, 50}";
type = Stem;
},
{
horizontal = 1;
place = "{559, 50}";
type = Stem;
},
{
horizontal = 1;
place = "{667, 51}";
type = Stem;
},
{
place = "{222, 56}";
type = Stem;
},
{
place = "{332, 51}";
type = Stem;
},
{
place = "{462, 50}";
type = Stem;
}
);
layerId = "324B6D7A-1AE4-424F-A6A7-4FAAB53DF00B";
paths = (
{
closed = 1;
nodes = (
"278 117 LINE",
"278 184 LINE",
"222 184 LINE",
"222 117 LINE"
);
},
{
closed = 1;
nodes = (
"271 234 LINE",
"271 269 OFFCURVE",
"273 293 OFFCURVE",
"277 306 CURVE SMOOTH",
"281 319 OFFCURVE",
"295 336 OFFCURVE",
"320 358 CURVE SMOOTH",
"371 405 OFFCURVE",
"383 435 OFFCURVE",
"383 478 CURVE SMOOTH",
"383 558 OFFCURVE",
"331 609 OFFCURVE",
"259 609 CURVE SMOOTH",
"187 609 OFFCURVE",
"133 568 OFFCURVE",
"124 472 CURVE",
"174 464 LINE",
"182 532 OFFCURVE",
"215 559 OFFCURVE",
"256 559 CURVE SMOOTH",
"297 559 OFFCURVE",
"332 522 OFFCURVE",
"332 474 CURVE SMOOTH",
"332 450 OFFCURVE",
"325 431 OFFCURVE",
"282 391 CURVE",
"259 368 OFFCURVE",
"245 349 OFFCURVE",
"236 332 CURVE SMOOTH",
"227 315 OFFCURVE",
"223 288 OFFCURVE",
"223 251 CURVE",
"225 234 LINE"
);
},
{
closed = 1;
nodes = (
"50 50 LINE",
"50 667 LINE",
"462 667 LINE",
"462 50 LINE"
);
},
{
closed = 1;
nodes = (
"0 718 LINE",
"0 0 LINE",
"512 0 LINE",
"512 718 LINE"
);
}
);
width = 512;
}
);
note = .notdef;
},
{
glyphname = exclam;
lastChange = "2020-10-05 17:32:20 +0000";
layers = (
{
hints = (
{
horizontal = 1;
place = "{0, 86}";
type = Stem;
},
{
horizontal = 1;
place = "{722, -20}";
target = down;
type = TopGhost;
},
{
place = "{160, 69}";
type = Stem;
}
);
layerId = "324B6D7A-1AE4-424F-A6A7-4FAAB53DF00B";
paths = (
{
closed = 1;
nodes = (
"223 171 LINE",
"236 722 LINE",
"154 722 LINE",
"167 171 LINE"
);
},
{
closed = 1;
nodes = (
"155 86 LINE",
"155 0 LINE",
"235 0 LINE",
"235 86 LINE"
);
}
);
width = 389;
}
);
leftKerningGroup = exclam;
note = exclam;
unicode = 0021;
},
{
glyphname = quotedbl;
lastChange = "2020-10-05 17:32:20 +0000";
layers = (
{
hints = (
{
horizontal = 1;
place = "{496, 226}";
type = Stem;
},
{
place = "{58, 52}";
type = Stem;
},
{
place = "{168, 52}";
type = Stem;
}
);
layerId = "324B6D7A-1AE4-424F-A6A7-4FAAB53DF00B";
paths = (
{
closed = 1;
nodes = (
"58 496 LINE",
"110 496 LINE",
"110 722 LINE",
"58 722 LINE"
);
},
{
closed = 1;
nodes = (
"168 496 LINE",
"220 496 LINE",
"220 722 LINE",
"168 722 LINE"
);
}
);
width = 278;
}
);
leftKerningGroup = quotedbl;
note = quotedbl;
rightKerningGroup = quotedbl;
unicode = 0022;
},
{
glyphname = numbersign;
lastChange = "2020-10-05 17:32:20 +0000";
layers = (
{
hints = (
{
horizontal = 1;
place = "{0, 21}";
target = up;
type = BottomGhost;
},
{
horizontal = 1;
place = "{226, 60}";
type = Stem;
},
{
horizontal = 1;
place = "{423, 60}";
type = Stem;
},
{
horizontal = 1;
place = "{692, -20}";
target = down;
type = TopGhost;
}
);
layerId = "324B6D7A-1AE4-424F-A6A7-4FAAB53DF00B";
paths = (
{
closed = 1;
nodes = (
"361 423 LINE",
"341 286 LINE",
"204 286 LINE",
"226 423 LINE"
);
},
{
closed = 1;
nodes = (
"527 483 LINE",
"428 483 LINE",
"459 692 LINE",
"400 692 LINE",
"370 483 LINE",
"235 483 LINE",
"266 692 LINE",
"207 692 LINE",
"175 483 LINE",
"56 483 LINE",
"56 423 LINE",
"167 423 LINE",
"147 286 LINE",
"29 286 LINE",
"29 226 LINE",
"138 226 LINE",
"104 0 LINE",
"162 0 LINE",
"196 226 LINE",
"332 226 LINE",
"301 0 LINE",
"360 0 LINE",
"391 226 LINE",
"501 226 LINE",
"501 286 LINE",
"400 286 LINE",
"420 423 LINE",
"527 423 LINE"
);
}
);
width = 556;
}
);
note = numbersign;
unicode = 0023;
},
{
glyphname = dollar;
lastChange = "2020-10-05 17:32:20 +0000";
layers = (
{
hints = (
{
horizontal = 1;
place = "{-68, 21}";
target = up;
type = BottomGhost;
},
{
horizontal = 1;
place = "{-15, 60}";
type = Stem;
},
{
horizontal = 1;
place = "{647, 60}";
type = Stem;
},
{
horizontal = 1;
place = "{755, -20}";
target = down;
type = TopGhost;
},
{
place = "{42, 70}";
type = Stem;
},
{
place = "{251, 50}";
type = Stem;
},
{
place = "{445, 70}";
type = Stem;
},
{
place = "{55, 70}";
type = Stem;
},
{
place = "{433, 70}";
type = Stem;
}
);
layerId = "324B6D7A-1AE4-424F-A6A7-4FAAB53DF00B";
paths = (
{
closed = 1;
nodes = (
"301 309 LINE",
"365 286 OFFCURVE",
"445 263 OFFCURVE",
"445 176 CURVE SMOOTH",
"445 94 OFFCURVE",
"370 50 OFFCURVE",
"301 45 CURVE"
);
},
{
closed = 1;
nodes = (
"301 -15 LINE",
"406 -15 OFFCURVE",
"515 44 OFFCURVE",
"515 174 CURVE SMOOTH",
"515 310 OFFCURVE",
"405 341 OFFCURVE",
"301 374 CURVE",
"301 649 LINE",
"361 647 OFFCURVE",
"432 617 OFFCURVE",
"433 532 CURVE",
"503 532 LINE",
"496 645 OFFCURVE",
"399 707 OFFCURVE",
"301 707 CURVE",
"301 755 LINE",
"251 755 LINE",
"251 707 LINE",
"157 707 OFFCURVE",
"55 621 OFFCURVE",
"55 515 CURVE SMOOTH",
"55 367 OFFCURVE",
"199 342 OFFCURVE",
"251 320 CURVE",
"251 45 LINE",
"174 50 OFFCURVE",
"106 87 OFFCURVE",
"112 176 CURVE",
"42 176 LINE",
"36 45 OFFCURVE",
"146 -12 OFFCURVE",
"251 -15 CURVE",
"251 -68 LINE",
"301 -68 LINE"
);
},
{
closed = 1;
nodes = (
"251 389 LINE",
"189 408 OFFCURVE",
"125 438 OFFCURVE",
"125 516 CURVE SMOOTH",
"125 596 OFFCURVE",
"186 646 OFFCURVE",
"251 647 CURVE"
);
}
);
width = 556;
}
);
note = dollar;
unicode = 0024;
},
{
glyphname = percent;
lastChange = "2020-10-05 17:32:20 +0000";
layers = (
{
hints = (
{
horizontal = 1;
place = "{0, 21}";
target = up;
type = BottomGhost;
},
{
horizontal = 1;
place = "{329, 45}";
type = Stem;
},
{
horizontal = 1;
place = "{662, 45}";
type = Stem;
},
{
place = "{118, 55}";
type = Stem;
},
{
place = "{381, 55}";
type = Stem;
},
{
place = "{564, 55}";
type = Stem;
},
{
place = "{827, 55}";
type = Stem;
},
{
horizontal = 1;
place = "{-15, 45}";
type = Stem;
}
);
layerId = "324B6D7A-1AE4-424F-A6A7-4FAAB53DF00B";
paths = (
{
closed = 1;
nodes = (
"355 662 OFFCURVE",
"381 583 OFFCURVE",
"381 518 CURVE SMOOTH",
"381 453 OFFCURVE",
"355 374 OFFCURVE",
"277 374 CURVE SMOOTH",
"199 374 OFFCURVE",
"173 453 OFFCURVE",
"173 518 CURVE SMOOTH",
"173 583 OFFCURVE",
"199 662 OFFCURVE",
"277 662 CURVE SMOOTH"
);
},
{
closed = 1;
nodes = (
"653 707 LINE",
"263 0 LINE",
"321 0 LINE",
"711 707 LINE"
);
},
{
closed = 1;
nodes = (
"176 707 OFFCURVE",
"118 617 OFFCURVE",
"118 518 CURVE SMOOTH",
"118 419 OFFCURVE",
"176 329 OFFCURVE",
"277 329 CURVE SMOOTH",
"378 329 OFFCURVE",
"436 419 OFFCURVE",
"436 518 CURVE SMOOTH",
"436 617 OFFCURVE",
"378 707 OFFCURVE",
"277 707 CURVE SMOOTH"
);
},
{
closed = 1;
nodes = (
"622 363 OFFCURVE",
"564 273 OFFCURVE",
"564 174 CURVE SMOOTH",
"564 75 OFFCURVE",
"622 -15 OFFCURVE",
"723 -15 CURVE SMOOTH",
"824 -15 OFFCURVE",
"882 75 OFFCURVE",
"882 174 CURVE SMOOTH",
"882 273 OFFCURVE",
"824 363 OFFCURVE",
"723 363 CURVE SMOOTH"
);
},
{
closed = 1;
nodes = (
"801 318 OFFCURVE",
"827 239 OFFCURVE",
"827 174 CURVE SMOOTH",
"827 109 OFFCURVE",
"801 30 OFFCURVE",
"723 30 CURVE SMOOTH",
"645 30 OFFCURVE",
"619 109 OFFCURVE",
"619 174 CURVE SMOOTH",
"619 239 OFFCURVE",
"645 318 OFFCURVE",
"723 318 CURVE SMOOTH"
);
}
);
width = 1000;
}
);
note = percent;
unicode = 0025;
},
{
glyphname = ampersand;
lastChange = "2020-10-05 17:32:20 +0000";
layers = (
{
hints = (
{
horizontal = 1;
place = "{-15, 60}";
type = Stem;
},
{
horizontal = 1;
place = "{677, 60}";
type = Stem;
},
{
place = "{54, 70}";
type = Stem;
},
{
place = "{209, 179}";
type = Stem;
},
{
place = "{458, 125}";
type = Stem;
},
{
horizontal = 1;
place = "{0, 21}";
target = up;
type = BottomGhost;
},
{
place = "{139, 70}";
type = Stem;
}
);
layerId = "324B6D7A-1AE4-424F-A6A7-4FAAB53DF00B";
paths = (
{
closed = 1;
nodes = (
"501 138 LINE",
"447 81 OFFCURVE",
"393 45 OFFCURVE",
"312 45 CURVE SMOOTH",
"215 45 OFFCURVE",
"124 107 OFFCURVE",
"124 212 CURVE SMOOTH",
"124 275 OFFCURVE",
"227 350 OFFCURVE",
"275 381 CURVE"
);
},
{
closed = 1;
nodes = (
"254 497 OFFCURVE",
"209 553 OFFCURVE",
"209 605 CURVE SMOOTH",
"209 657 OFFCURVE",
"253 677 OFFCURVE",
"300 677 CURVE SMOOTH",
"344 677 OFFCURVE",
"388 654 OFFCURVE",
"388 605 CURVE SMOOTH",
"388 542 OFFCURVE",
"328 501 OFFCURVE",
"287 461 CURVE"
);
},
{
closed = 1;
nodes = (
"149 368 OFFCURVE",
"54 308 OFFCURVE",
"54 198 CURVE SMOOTH",
"54 66 OFFCURVE",
"172 -15 OFFCURVE",
"318 -15 CURVE SMOOTH",
"411 -15 OFFCURVE",
"479 25 OFFCURVE",
"539 96 CURVE",
"625 0 LINE",
"718 0 LINE",
"581 149 LINE",
"636 242 OFFCURVE",
"643 356 OFFCURVE",
"653 461 CURVE",
"583 461 LINE",
"587 380 OFFCURVE",
"570 269 OFFCURVE",
"537 194 CURVE",
"326 419 LINE",
"389 467 OFFCURVE",
"458 523 OFFCURVE",
"458 609 CURVE SMOOTH",
"458 698 OFFCURVE",
"375 737 OFFCURVE",
"297 737 CURVE SMOOTH",
"218 737 OFFCURVE",
"139 695 OFFCURVE",
"139 606 CURVE SMOOTH",
"139 534 OFFCURVE",
"190 477 OFFCURVE",
"234 426 CURVE",
"233 425 OFFCURVE",
"231 424 OFFCURVE",
"230 422 CURVE"
);
}
);
width = 722;
}
);
note = ampersand;
unicode = 0026;
},
{
glyphname = quotesingle;
lastChange = "2020-10-05 17:32:20 +0000";
layers = (
{
hints = (
{
horizontal = 1;
place = "{496, 21}";
target = up;
type = BottomGhost;
},
{
horizontal = 1;
place = "{722, -20}";
target = down;
type = TopGhost;
},
{
place = "{113, 52}";
type = Stem;
}
);
layerId = "324B6D7A-1AE4-424F-A6A7-4FAAB53DF00B";
paths = (
{
closed = 1;
nodes = (
"113 496 LINE",
"165 496 LINE",
"165 722 LINE",
"113 722 LINE"
);
}
);
width = 278;
}
);
leftKerningGroup = quotesingle;
note = quotesingle;
unicode = 0027;
},
{
glyphname = parenleft;
lastChange = "2020-10-05 17:32:20 +0000";
layers = (
{
hints = (
{
horizontal = 1;
place = "{-96, 21}";
target = up;
type = BottomGhost;
},
{
horizontal = 1;
place = "{722, -20}";
target = down;
type = TopGhost;
},
{
place = "{76, 70}";
type = Stem;
}
);
layerId = "324B6D7A-1AE4-424F-A6A7-4FAAB53DF00B";
paths = (
{
closed = 1;
nodes = (
"234 -96 LINE",
"188 22 OFFCURVE",
"146 176 OFFCURVE",
"146 313 CURVE SMOOTH",
"146 442 OFFCURVE",
"181 587 OFFCURVE",
"234 722 CURVE",
"184 722 LINE",
"133 592 OFFCURVE",
"76 454 OFFCURVE",
"76 313 CURVE SMOOTH",
"76 169 OFFCURVE",
"134 35 OFFCURVE",
"183 -96 CURVE"
);
}
);
width = 278;
}
);
note = parenleft;
unicode = 0028;
},
{
glyphname = parenright;
lastChange = "2020-10-05 17:32:20 +0000";
layers = (
{
hints = (
{
horizontal = 1;
place = "{-96, 21}";
target = up;
type = BottomGhost;
},
{
horizontal = 1;
place = "{722, -20}";
target = down;
type = TopGhost;
},
{
place = "{132, 70}";
type = Stem;
}
);
layerId = "324B6D7A-1AE4-424F-A6A7-4FAAB53DF00B";
paths = (
{
closed = 1;
nodes = (
"95 -96 LINE",
"144 35 OFFCURVE",
"202 169 OFFCURVE",
"202 313 CURVE SMOOTH",
"202 454 OFFCURVE",
"145 592 OFFCURVE",
"94 722 CURVE",
"44 722 LINE",
"97 587 OFFCURVE",
"132 442 OFFCURVE",
"132 313 CURVE SMOOTH",
"132 176 OFFCURVE",
"90 22 OFFCURVE",
"44 -96 CURVE"
);
}
);
width = 278;
}
);
note = parenright;
unicode = 0029;
},
{
glyphname = asterisk;
lastChange = "2020-10-05 17:32:20 +0000";
layers = (
{
hints = (
{
horizontal = 1;
place = "{374, 21}";
target = up;
type = BottomGhost;
},
{
horizontal = 1;
place = "{722, -20}";
target = down;
type = TopGhost;
}
);
layerId = "324B6D7A-1AE4-424F-A6A7-4FAAB53DF00B";
paths = (
{
closed = 1;
nodes = (
"211 722 LINE",
"158 693 LINE",
"249 567 LINE",
"104 579 LINE",
"104 521 LINE",
"248 531 LINE",
"161 403 LINE",
"211 374 LINE",
"279 514 LINE",
"344 376 LINE",
"396 403 LINE",
"310 532 LINE",
"452 521 LINE",
"452 579 LINE",
"309 567 LINE",
"397 694 LINE",
"346 722 LINE",
"279 586 LINE"
);
}
);
width = 556;
}
);
note = asterisk;
unicode = 002A;
},
{
glyphname = plus;
lastChange = "2020-10-05 17:32:20 +0000";
layers = (
{
hints = (
{
horizontal = 1;
place = "{0, 21}";
target = up;
type = BottomGhost;
},
{
horizontal = 1;
place = "{221, 60}";
type = Stem;
},
{
horizontal = 1;
place = "{502, -20}";
target = down;
type = TopGhost;
},
{
place = "{300, 60}";
type = Stem;
}
);
layerId = "324B6D7A-1AE4-424F-A6A7-4FAAB53DF00B";
paths = (
{
closed = 1;
nodes = (
"300 281 LINE",
"80 281 LINE",
"80 221 LINE",
"300 221 LINE",
"300 0 LINE",
"360 0 LINE",
"360 221 LINE",
"580 221 LINE",
"580 281 LINE",
"360 281 LINE",
"360 502 LINE",
"300 502 LINE"
);
}
);
width = 660;
}
);
note = plus;
unicode = 002B;
},
{
glyphname = comma;
lastChange = "2020-10-05 17:32:20 +0000";
layers = (
{
hints = (
{
horizontal = 1;
place = "{-124, 21}";
target = up;
type = BottomGhost;
},
{
horizontal = 1;
place = "{81, -20}";
target = down;
type = TopGhost;
}
);
layerId = "324B6D7A-1AE4-424F-A6A7-4FAAB53DF00B";
paths = (
{
closed = 1;
nodes = (
"102 81 LINE",
"59 -124 LINE",
"111 -124 LINE",
"183 81 LINE"
);
}
);
width = 278;
}
);
leftKerningGroup = comma;
note = comma;
unicode = 002C;
},
{
glyphname = hyphen;
lastChange = "2020-10-05 17:32:20 +0000";
layers = (
{
hints = (
{
horizontal = 1;
place = "{237, 60}";
type = Stem;
}
);
layerId = "324B6D7A-1AE4-424F-A6A7-4FAAB53DF00B";
paths = (
{
closed = 1;
nodes = (
"13 237 LINE",
"265 237 LINE",
"265 297 LINE",
"13 297 LINE"
);
}
);
width = 278;
}
);
leftKerningGroup = hyphen;
note = hyphen;
unicode = 002D;
},
{
glyphname = period;
lastChange = "2020-10-05 17:32:20 +0000";
layers = (
{
hints = (
{
horizontal = 1;
place = "{0, 86}";
type = Stem;
},
{
place = "{99, 80}";
type = Stem;
}
);
layerId = "324B6D7A-1AE4-424F-A6A7-4FAAB53DF00B";
paths = (
{
closed = 1;
nodes = (
"179 0 LINE",
"179 86 LINE",
"99 86 LINE",
"99 0 LINE"
);
}
);
width = 278;
}
);
leftKerningGroup = period;
note = period;
rightKerningGroup = period;
unicode = 002E;
},
{
glyphname = slash;
lastChange = "2020-10-05 17:32:20 +0000";
layers = (
{
hints = (
{
horizontal = 1;
place = "{-96, 21}";
target = up;
type = BottomGhost;
},
{
horizontal = 1;
place = "{722, -20}";
target = down;
type = TopGhost;
}
);
layerId = "324B6D7A-1AE4-424F-A6A7-4FAAB53DF00B";
paths = (
{
closed = 1;
nodes = (
"-23 -96 LINE",
"40 -96 LINE",
"301 722 LINE",
"236 722 LINE"
);
}
);
width = 278;
}
);
note = slash;
unicode = 002F;
},
{
glyphname = zero;
lastChange = "2020-10-06 10:23:35 +0000";
layers = (
{
hints = (
{
horizontal = 1;
place = "{-15, 60}";
type = Stem;
},
{
horizontal = 1;
place = "{647, 60}";
type = Stem;
},
{
place = "{48, 70}";
type = Stem;
},
{
place = "{438, 70}";
type = Stem;
}
);
layerId = "324B6D7A-1AE4-424F-A6A7-4FAAB53DF00B";
paths = (
{
closed = 1;
nodes = (
"432 647 OFFCURVE",
"445 449 OFFCURVE",
"445 346 CURVE SMOOTH",
"445 243 OFFCURVE",
"432 45 OFFCURVE",
"285 45 CURVE SMOOTH",
"138 45 OFFCURVE",
"125 243 OFFCURVE",
"125 346 CURVE SMOOTH",
"125 449 OFFCURVE",
"138 647 OFFCURVE",
"285 647 CURVE SMOOTH"
);
},
{
closed = 1;
nodes = (
"96 707 OFFCURVE",
"55 522 OFFCURVE",
"55 346 CURVE SMOOTH",
"55 170 OFFCURVE",
"96 -15 OFFCURVE",
"285 -15 CURVE SMOOTH",
"474 -15 OFFCURVE",
"515 170 OFFCURVE",
"515 346 CURVE SMOOTH",
"515 522 OFFCURVE",
"474 707 OFFCURVE",
"285 707 CURVE SMOOTH"
);
}
);
width = 570;
}
);
note = zero;
unicode = 0030;
},
{
glyphname = one;
lastChange = "2020-10-06 10:25:14 +0000";
layers = (
{
hints = (
{
horizontal = 1;
place = "{0, 21}";
target = up;
type = BottomGhost;
},
{
horizontal = 1;
place = "{692, -20}";
target = down;
type = TopGhost;
},
{
place = "{116, 221}";
type = Stem;
},
{
place = "{272, 65}";
type = Stem;
}
);
layerId = "324B6D7A-1AE4-424F-A6A7-4FAAB53DF00B";
paths = (
{
closed = 1;
nodes = (
"32 518 LINE",
"88 545 OFFCURVE",
"142 578 OFFCURVE",
"188 622 CURVE",
"188 0 LINE",
"253 0 LINE",
"253 692 LINE",
"191 692 LINE",
"146 647 OFFCURVE",
"91 607 OFFCURVE",
"32 583 CURVE"
);
}
);
width = 375;
}
);
note = one;
rightKerningGroup = one;
unicode = 0031;
},
{
glyphname = two;
lastChange = "2020-10-06 10:17:24 +0000";
layers = (
{
hints = (
{
horizontal = 1;
place = "{0, 60}";
type = Stem;
},
{
horizontal = 1;
place = "{509, 198}";
type = Stem;
},
{
place = "{57, 70}";
type = Stem;
},
{
place = "{406, 70}";
type = Stem;
},
{
horizontal = 1;
place = "{647, 60}";
type = Stem;
}
);
layerId = "324B6D7A-1AE4-424F-A6A7-4FAAB53DF00B";
paths = (
{
closed = 1;
nodes = (
"457 0 LINE",
"457 60 LINE",
"100 60 LINE",
"207 163 OFFCURVE",
"448 366 OFFCURVE",
"448 528 CURVE SMOOTH",
"448 648 OFFCURVE",
"352 707 OFFCURVE",
"241 707 CURVE SMOOTH",
"121 707 OFFCURVE",
"29 631 OFFCURVE",
"29 509 CURVE",
"99 509 LINE",
"99 590 OFFCURVE",
"156 647 OFFCURVE",
"239 647 CURVE SMOOTH",
"314 647 OFFCURVE",
"378 605 OFFCURVE",
"378 524 CURVE SMOOTH",
"378 400 OFFCURVE",
"112 149 OFFCURVE",
"22 68 CURVE",
"22 0 LINE"
);
}
);
width = 491;
}
);
note = two;
unicode = 0032;
},
{
glyphname = three;
lastChange = "2020-10-06 10:17:14 +0000";
layers = (
{
hints = (
{
horizontal = 1;
place = "{-15, 60}";
type = Stem;
},
{
horizontal = 1;
place = "{521, 186}";
type = Stem;
},
{
place = "{47, 60}";
type = Stem;
},
{
place = "{432, 70}";
type = Stem;
},
{
horizontal = 1;
place = "{-15, 198}";
type = Stem;
},
{
horizontal = 1;
place = "{647, 60}";
type = Stem;
}
);
layerId = "324B6D7A-1AE4-424F-A6A7-4FAAB53DF00B";
paths = (
{
closed = 1;
nodes = (
"229 329 LINE",
"324 343 OFFCURVE",
"431 304 OFFCURVE",
"431 193 CURVE SMOOTH",
"431 94 OFFCURVE",
"355 45 OFFCURVE",
"263 45 CURVE SMOOTH",
"183 45 OFFCURVE",
"107 97 OFFCURVE",
"106 183 CURVE",
"36 183 LINE",
"40 51 OFFCURVE",
"142 -15 OFFCURVE",
"264 -15 CURVE SMOOTH",
"380 -15 OFFCURVE",
"501 55 OFFCURVE",
"501 185 CURVE SMOOTH",
"501 278 OFFCURVE",
"437 341 OFFCURVE",
"349 360 CURVE",
"349 362 LINE",
"426 378 OFFCURVE",
"490 434 OFFCURVE",
"490 518 CURVE SMOOTH",
"490 652 OFFCURVE",
"375 707 OFFCURVE",
"258 707 CURVE SMOOTH",
"150 707 OFFCURVE",
"46 638 OFFCURVE",
"46 521 CURVE",
"116 521 LINE",
"125 601 OFFCURVE",
"179 647 OFFCURVE",
"267 647 CURVE SMOOTH",
"348 647 OFFCURVE",
"420 602 OFFCURVE",
"420 522 CURVE SMOOTH",
"420 418 OFFCURVE",
"318 382 OFFCURVE",
"229 392 CURVE"
);
}
);
width = 556;
}
);
note = three;
unicode = 0033;
},
{
glyphname = four;
lastChange = "2020-10-06 10:45:50 +0000";
layers = (
{
hints = (
{
horizontal = 1;
place = "{0, 21}";
target = up;
type = BottomGhost;
},
{
horizontal = 1;
place = "{161, 54}";
type = Stem;
},
{
horizontal = 1;
place = "{692, -20}";
target = down;
type = TopGhost;
},
{
place = "{347, 65}";
type = Stem;
}
);
layerId = "324B6D7A-1AE4-424F-A6A7-4FAAB53DF00B";
paths = (
{
closed = 1;
nodes = (
"347 0 LINE",
"412 0 LINE",
"412 161 LINE",
"523 161 LINE",
"523 215 LINE",
"412 215 LINE",
"412 692 LINE",
"326 692 LINE",
"22 224 LINE",
"22 161 LINE",
"347 161 LINE"
);
},
{
closed = 1;
nodes = (
"347 215 LINE",
"77 215 LINE",
"345 627 LINE",
"347 627 LINE"
);
}
);
width = 556;
}
);
note = four;
unicode = 0034;
},
{
glyphname = five;
lastChange = "2020-10-06 10:21:07 +0000";
layers = (
{
hints = (
{
horizontal = 1;
place = "{-15, 60}";
type = Stem;
},
{
horizontal = 1;
place = "{396, 60}";
type = Stem;
},
{
horizontal = 1;
place = "{632, 60}";
type = Stem;
},
{
place = "{84, 64}";
type = Stem;
},
{
place = "{438, 70}";
type = Stem;
},
{
horizontal = 1;
place = "{-15, 185}";
type = Stem;
},
{
place = "{62, 70}";
type = Stem;
}
);
layerId = "324B6D7A-1AE4-424F-A6A7-4FAAB53DF00B";
paths = (
{
closed = 1;
nodes = (
"76 291 LINE",
"143 291 LINE",
"157 356 OFFCURVE",
"217 396 OFFCURVE",
"283 396 CURVE SMOOTH",
"387 396 OFFCURVE",
"438 328 OFFCURVE",
"438 228 CURVE SMOOTH",
"438 128 OFFCURVE",
"387 45 OFFCURVE",
"279 45 CURVE SMOOTH",
"200 45 OFFCURVE",
"136 87 OFFCURVE",
"132 170 CURVE",
"62 170 LINE",
"66 39 OFFCURVE",
"169 -15 OFFCURVE",
"286 -15 CURVE SMOOTH",
"423 -15 OFFCURVE",
"508 92 OFFCURVE",
"508 225 CURVE SMOOTH",
"508 349 OFFCURVE",
"427 456 OFFCURVE",
"297 456 CURVE SMOOTH",
"235 456 OFFCURVE",
"184 428 OFFCURVE",
"145 383 CURVE",
"143 385 LINE",
"154 632 LINE",
"473 632 LINE",
"473 692 LINE",
"92 692 LINE"
);
}
);
width = 570;
}
);
note = five;
unicode = 0035;
},
{
glyphname = six;
lastChange = "2020-10-06 10:21:18 +0000";
layers = (
{
hints = (
{
horizontal = 1;
place = "{-15, 60}";
type = Stem;
},
{
horizontal = 1;
place = "{394, 55}";
type = Stem;
},
{
horizontal = 1;
place = "{647, 60}";
type = Stem;
},
{
place = "{45, 82}";
type = Stem;
},
{
place = "{441, 70}";
type = Stem;
},
{
place = "{45, 70}";
type = Stem;
}
);
layerId = "324B6D7A-1AE4-424F-A6A7-4FAAB53DF00B";
paths = (
{
closed = 1;
nodes = (
"409 394 OFFCURVE",
"451 307 OFFCURVE",
"451 216 CURVE SMOOTH",
"451 118 OFFCURVE",
"395 45 OFFCURVE",
"293 45 CURVE SMOOTH",
"203 45 OFFCURVE",
"137 124 OFFCURVE",
"137 211 CURVE SMOOTH",
"137 314 OFFCURVE",
"196 394 OFFCURVE",
"306 394 CURVE SMOOTH"
);
},
{
closed = 1;
nodes = (
"83 707 OFFCURVE",
"55 488 OFFCURVE",
"55 311 CURVE SMOOTH",
"55 145 OFFCURVE",
"110 -15 OFFCURVE",
"303 -15 CURVE SMOOTH",
"439 -15 OFFCURVE",
"521 88 OFFCURVE",
"521 220 CURVE SMOOTH",
"521 352 OFFCURVE",
"446 449 OFFCURVE",
"309 449 CURVE SMOOTH",
"228 449 OFFCURVE",
"158 412 OFFCURVE",
"127 336 CURVE",
"125 336 LINE",
"125 466 OFFCURVE",
"144 647 OFFCURVE",
"310 647 CURVE SMOOTH",
"381 647 OFFCURVE",
"439 602 OFFCURVE",
"442 530 CURVE",
"512 530 LINE",
"510 650 OFFCURVE",
"420 707 OFFCURVE",
"307 707 CURVE SMOOTH"
);
}
);
width = 576;
}
);
note = six;
unicode = 0036;
},
{
glyphname = seven;
lastChange = "2020-10-06 10:21:39 +0000";
layers = (
{
hints = (
{
horizontal = 1;
place = "{0, 21}";
target = up;
type = BottomGhost;
},
{
horizontal = 1;
place = "{632, 60}";
type = Stem;
}
);
layerId = "324B6D7A-1AE4-424F-A6A7-4FAAB53DF00B";
paths = (
{
closed = 1;
nodes = (
"463 692 LINE",
"22 692 LINE",
"22 632 LINE",
"395 632 LINE",
"118 0 LINE",
"194 0 LINE",
"463 634 LINE"
);
}
);
width = 495;
}
);
note = seven;
rightKerningGroup = seven;
unicode = 0037;
},
{
glyphname = eight;
lastChange = "2020-10-06 10:22:57 +0000";
layers = (
{
hints = (
{
horizontal = 1;
place = "{-15, 60}";
type = Stem;
},
{
horizontal = 1;
place = "{331, 60}";
type = Stem;
},
{
horizontal = 1;
place = "{652, 55}";
type = Stem;
},
{
place = "{43, 75}";
type = Stem;
},
{
place = "{438, 75}";
type = Stem;
}
);
layerId = "324B6D7A-1AE4-424F-A6A7-4FAAB53DF00B";
paths = (
{
closed = 1;
nodes = (
"206 359 LINE",
"116 340 OFFCURVE",
"54 277 OFFCURVE",
"55 188 CURVE SMOOTH",
"55 48 OFFCURVE",
"174 -15 OFFCURVE",
"290 -15 CURVE SMOOTH",
"406 -15 OFFCURVE",
"525 48 OFFCURVE",
"525 188 CURVE SMOOTH",
"525 280 OFFCURVE",
"468 336 OFFCURVE",
"376 360 CURVE",
"376 361 LINE",
"455 379 OFFCURVE",
"515 437 OFFCURVE",
"515 521 CURVE SMOOTH",
"515 649 OFFCURVE",
"401 707 OFFCURVE",
"290 707 CURVE SMOOTH",
"179 707 OFFCURVE",
"65 649 OFFCURVE",
"65 521 CURVE SMOOTH",
"65 439 OFFCURVE",
"125 369 OFFCURVE",
"206 361 CURVE"
);
},
{
closed = 1;
nodes = (
"130 614 OFFCURVE",
"213 652 OFFCURVE",
"290 652 CURVE SMOOTH",
"367 652 OFFCURVE",
"450 614 OFFCURVE",
"450 521 CURVE SMOOTH",
"450 435 OFFCURVE",
"382 391 OFFCURVE",
"290 391 CURVE SMOOTH",
"198 391 OFFCURVE",
"130 435 OFFCURVE",
"130 521 CURVE SMOOTH"
);
},
{
closed = 1;
nodes = (
"125 287 OFFCURVE",
"204 331 OFFCURVE",
"290 331 CURVE SMOOTH",
"376 331 OFFCURVE",
"455 287 OFFCURVE",
"455 188 CURVE SMOOTH",
"455 89 OFFCURVE",
"376 45 OFFCURVE",
"290 45 CURVE SMOOTH",
"204 45 OFFCURVE",
"125 89 OFFCURVE",
"125 188 CURVE SMOOTH"
);
}
);
width = 580;
}
);
note = eight;
unicode = 0038;
},
{
glyphname = nine;
lastChange = "2020-10-06 10:23:14 +0000";
layers = (
{
hints = (
{
horizontal = 1;
place = "{-15, 185}";
type = Stem;
},
{
horizontal = 1;
place = "{266, 55}";
type = Stem;
},
{
horizontal = 1;
place = "{647, 60}";
type = Stem;
},
{
place = "{45, 70}";
type = Stem;
},
{
place = "{430, 82}";
type = Stem;
},
{
horizontal = 1;
place = "{-15, 60}";
type = Stem;
},
{
place = "{442, 70}";
type = Stem;
}
);
layerId = "324B6D7A-1AE4-424F-A6A7-4FAAB53DF00B";
paths = (
{
closed = 1;
nodes = (
"372 647 OFFCURVE",
"440 580 OFFCURVE",
"440 485 CURVE SMOOTH",
"440 389 OFFCURVE",
"369 321 OFFCURVE",
"273 321 CURVE SMOOTH",
"182 321 OFFCURVE",
"125 385 OFFCURVE",
"125 476 CURVE SMOOTH",
"125 572 OFFCURVE",
"174 647 OFFCURVE",
"277 647 CURVE SMOOTH"
);
},
{
closed = 1;
nodes = (
"57 170 LINE",
"66 60 OFFCURVE",
"136 -15 OFFCURVE",
"259 -15 CURVE SMOOTH",
"480 -15 OFFCURVE",
"522 179 OFFCURVE",
"522 365 CURVE SMOOTH",
"522 537 OFFCURVE",
"477 707 OFFCURVE",
"276 707 CURVE SMOOTH",
"142 707 OFFCURVE",
"55 613 OFFCURVE",
"55 481 CURVE SMOOTH",
"55 357 OFFCURVE",
"142 266 OFFCURVE",
"267 266 CURVE SMOOTH",
"347 266 OFFCURVE",
"416 305 OFFCURVE",
"450 372 CURVE",
"452 372 LINE",
"452 267 OFFCURVE",
"435 45 OFFCURVE",
"277 45 CURVE SMOOTH",
"192 45 OFFCURVE",
"130 79 OFFCURVE",
"127 170 CURVE"
);
}
);
width = 577;
}
);
note = nine;
unicode = 0039;
},
{
glyphname = colon;
lastChange = "2020-10-05 17:32:20 +0000";
layers = (
{
hints = (
{
horizontal = 1;
place = "{0, 86}";
type = Stem;
},
{
horizontal = 1;
place = "{416, 86}";
type = Stem;
},
{
place = "{99, 80}";
type = Stem;
}
);
layerId = "324B6D7A-1AE4-424F-A6A7-4FAAB53DF00B";
paths = (
{
closed = 1;
nodes = (
"99 502 LINE",
"99 416 LINE",
"179 416 LINE",
"179 502 LINE"
);
},
{
closed = 1;
nodes = (
"99 86 LINE",
"99 0 LINE",
"179 0 LINE",
"179 86 LINE"
);
}
);
width = 278;
}
);
leftKerningGroup = colon;
note = colon;
unicode = 003A;
},
{
glyphname = semicolon;
lastChange = "2020-10-05 17:32:20 +0000";
layers = (
{
hints = (
{
horizontal = 1;
place = "{-124, 21}";
target = up;
type = BottomGhost;
},
{
horizontal = 1;
place = "{416, 86}";
type = Stem;
},
{
place = "{107, 80}";
type = Stem;
}
);
layerId = "324B6D7A-1AE4-424F-A6A7-4FAAB53DF00B";
paths = (
{
closed = 1;
nodes = (
"121 81 LINE",
"78 -124 LINE",
"130 -124 LINE",
"202 81 LINE"
);
},
{
closed = 1;
nodes = (
"107 502 LINE",
"107 416 LINE",
"187 416 LINE",
"187 502 LINE"
);
}
);
width = 278;
}
);
leftKerningGroup = semicolon;
note = semicolon;
unicode = 003B;
},
{
glyphname = less;
lastChange = "2020-10-05 17:32:20 +0000";
layers = (
{
hints = (
{
horizontal = 1;
place = "{-10, 21}";
target = up;
type = BottomGhost;
},
{
horizontal = 1;
place = "{501, -20}";
target = down;
type = TopGhost;
}
);
layerId = "324B6D7A-1AE4-424F-A6A7-4FAAB53DF00B";
paths = (
{
closed = 1;
nodes = (
"159 251 LINE",
"580 437 LINE",
"580 501 LINE",
"80 278 LINE",
"80 225 LINE",
"580 -10 LINE",
"580 54 LINE"
);
}
);
width = 660;
}
);
note = less;
unicode = 003C;
},
{
glyphname = equal;
lastChange = "2020-10-05 17:32:20 +0000";
layers = (
{
hints = (
{
horizontal = 1;
place = "{124, 60}";
type = Stem;
},
{
horizontal = 1;
place = "{318, 60}";
type = Stem;
}
);
layerId = "324B6D7A-1AE4-424F-A6A7-4FAAB53DF00B";
paths = (
{
closed = 1;
nodes = (
"580 378 LINE",
"80 378 LINE",
"80 318 LINE",
"580 318 LINE"
);
},
{
closed = 1;
nodes = (
"580 184 LINE",
"80 184 LINE",
"80 124 LINE",
"580 124 LINE"
);
}
);
width = 660;
}
);
note = equal;
unicode = 003D;
},
{
glyphname = greater;
lastChange = "2020-10-05 17:32:20 +0000";
layers = (
{
hints = (
{
horizontal = 1;
place = "{1, 21}";
target = up;
type = BottomGhost;
},
{
horizontal = 1;
place = "{512, -20}";
target = down;
type = TopGhost;
}
);
layerId = "324B6D7A-1AE4-424F-A6A7-4FAAB53DF00B";
paths = (
{
closed = 1;
nodes = (
"501 251 LINE",
"80 65 LINE",
"80 1 LINE",
"580 224 LINE",
"580 277 LINE",
"80 512 LINE",
"80 448 LINE"
);
}
);
width = 660;
}
);
note = greater;
unicode = 003E;
},
{
glyphname = question;
lastChange = "2020-10-05 17:32:20 +0000";
layers = (
{
hints = (
{
horizontal = 1;
place = "{0, 86}";
type = Stem;
},
{
horizontal = 1;
place = "{677, 60}";
type = Stem;
},
{
place = "{174, 70}";
type = Stem;
},
{
place = "{360, 65}";
type = Stem;
}
);
layerId = "324B6D7A-1AE4-424F-A6A7-4FAAB53DF00B";
paths = (
{
closed = 1;
nodes = (
"234 169 LINE",
"234 239 LINE",
"229 297 OFFCURVE",
"251 301 OFFCURVE",
"322 375 CURVE",
"378 429 OFFCURVE",
"425 474 OFFCURVE",
"425 558 CURVE SMOOTH",
"425 680 OFFCURVE",
"327 737 OFFCURVE",
"214 737 CURVE SMOOTH",
"177 737 OFFCURVE",
"140 734 OFFCURVE",
"104 723 CURVE",
"104 662 LINE",
"134 671 OFFCURVE",
"166 677 OFFCURVE",
"198 677 CURVE SMOOTH",
"280 677 OFFCURVE",
"360 650 OFFCURVE",
"360 556 CURVE SMOOTH",
"360 430 OFFCURVE",
"177 372 OFFCURVE",
"174 277 CURVE SMOOTH",
"174 169 LINE"
);
},
{
closed = 1;
nodes = (
"164 86 LINE",
"164 0 LINE",
"244 0 LINE",
"244 86 LINE"
);
}
);
width = 500;
}
);
leftKerningGroup = question;
note = question;
unicode = 003F;
},
{
glyphname = at;
lastChange = "2020-10-05 17:32:20 +0000";
layers = (
{
hints = (
{
horizontal = 1;
place = "{-15, 50}";
type = Stem;
},
{
horizontal = 1;
place = "{136, 60}";
type = Stem;
},
{
horizontal = 1;
place = "{525, 60}";
type = Stem;
},
{
horizontal = 1;
place = "{687, 50}";
type = Stem;
},
{
place = "{40, 60}";
type = Stem;
},
{
place = "{182, 75}";
type = Stem;
},
{
place = "{694, 60}";
type = Stem;
}
);
layerId = "324B6D7A-1AE4-424F-A6A7-4FAAB53DF00B";
paths = (
{
closed = 1;
nodes = (
"257 380 OFFCURVE",
"324 525 OFFCURVE",
"430 525 CURVE SMOOTH",
"470 525 OFFCURVE",
"498 493 OFFCURVE",
"498 454 CURVE SMOOTH",
"498 365 OFFCURVE",
"425 197 OFFCURVE",
"334 196 CURVE SMOOTH",
"284 196 OFFCURVE",
"257 242 OFFCURVE",
"257 290 CURVE SMOOTH"
);
},
{
closed = 1;
nodes = (
"539 520 LINE",
"519 563 OFFCURVE",
"474 585 OFFCURVE",
"428 585 CURVE SMOOTH",
"281 585 OFFCURVE",
"182 418 OFFCURVE",
"182 285 CURVE SMOOTH",
"182 203 OFFCURVE",
"234 136 OFFCURVE",
"319 136 CURVE SMOOTH",
"361 136 OFFCURVE",
"408 155 OFFCURVE",
"438 186 CURVE",
"449 150 OFFCURVE",
"488 134 OFFCURVE",
"523 134 CURVE SMOOTH",
"629 134 OFFCURVE",
"754 267 OFFCURVE",
"754 424 CURVE SMOOTH",
"754 605 OFFCURVE",
"602 737 OFFCURVE",
"412 737 CURVE SMOOTH",
"210 737 OFFCURVE",
"40 570 OFFCURVE",
"40 364 CURVE SMOOTH",
"40 155 OFFCURVE",
"203 -15 OFFCURVE",
"416 -15 CURVE SMOOTH",
"546 -15 OFFCURVE",
"675 55 OFFCURVE",
"737 170 CURVE",
"679 170 LINE",
"619 84 OFFCURVE",
"518 35 OFFCURVE",
"416 35 CURVE SMOOTH",
"237 35 OFFCURVE",
"100 178 OFFCURVE",
"100 357 CURVE SMOOTH",
"100 537 OFFCURVE",
"230 687 OFFCURVE",
"414 687 CURVE SMOOTH",
"564 687 OFFCURVE",
"694 588 OFFCURVE",
"694 427 CURVE SMOOTH",
"694 321 OFFCURVE",
"619 189 OFFCURVE",
"537 189 CURVE SMOOTH",
"497 189 OFFCURVE",
"505 222 OFFCURVE",
"520 266 CURVE SMOOTH",
"620 566 LINE",
"554 566 LINE"
);
}
);
width = 800;
}
);
note = at;
unicode = 0040;
},
{
glyphname = A;
lastChange = "2020-10-05 17:32:20 +0000";
layers = (
{
hints = (
{
horizontal = 1;
place = "{0, 21}";
target = up;
type = BottomGhost;
},
{
horizontal = 1;
place = "{195, 60}";
type = Stem;
},
{
horizontal = 1;
place = "{722, -20}";
target = down;
type = TopGhost;
}
);
layerId = "324B6D7A-1AE4-424F-A6A7-4FAAB53DF00B";
paths = (
{
closed = 1;
nodes = (
"173 255 LINE",
"332 662 LINE",
"488 255 LINE"
);
},
{
closed = 1;
nodes = (
"76 0 LINE",
"152 195 LINE",
"511 195 LINE",
"588 0 LINE",
"659 0 LINE",
"371 722 LINE",
"295 722 LINE",
"9 0 LINE"
);
}
);
width = 667;
}
);
leftKerningGroup = A;
note = A;
rightKerningGroup = A;
unicode = 0041;
},
{
glyphname = B;
lastChange = "2020-10-05 17:32:20 +0000";
layers = (
{
hints = (
{
horizontal = 1;
place = "{0, 60}";
type = Stem;
},
{
horizontal = 1;
place = "{344, 60}";
type = Stem;
},
{
horizontal = 1;
place = "{662, 59}";
type = Stem;
},
{
place = "{100, 65}";
type = Stem;
},
{
place = "{520, 70}";
type = Stem;
},
{
place = "{490, 70}";
type = Stem;
},
{
horizontal = 1;
place = "{722, -20}";
target = down;
type = TopGhost;
}
);
layerId = "324B6D7A-1AE4-424F-A6A7-4FAAB53DF00B";
paths = (
{
closed = 1;
nodes = (
"165 344 LINE",
"285 344 LINE SMOOTH",
"421 344 OFFCURVE",
"520 325 OFFCURVE",
"520 202 CURVE SMOOTH",
"520 91 OFFCURVE",
"448 58 OFFCURVE",
"324 60 CURVE SMOOTH",
"165 60 LINE"
);
},
{
closed = 1;
nodes = (
"165 404 LINE",
"165 662 LINE",
"319 662 LINE SMOOTH",
"404 661 OFFCURVE",
"490 640 OFFCURVE",
"490 535 CURVE SMOOTH",
"490 437 OFFCURVE",
"406 404 OFFCURVE",
"322 404 CURVE SMOOTH"
);
},
{
closed = 1;
nodes = (
"375 0 LINE SMOOTH",
"532 0 OFFCURVE",
"590 98 OFFCURVE",
"590 193 CURVE SMOOTH",
"590 296 OFFCURVE",
"524 360 OFFCURVE",
"426 376 CURVE",
"426 378 LINE",
"502 396 OFFCURVE",
"560 461 OFFCURVE",
"560 541 CURVE SMOOTH",
"560 656 OFFCURVE",
"466 721 OFFCURVE",
"359 721 CURVE SMOOTH",
"100 722 LINE",
"100 0 LINE"
);
}
);
width = 667;
}
);
note = B;
rightKerningGroup = B;
unicode = 0042;
},
{
glyphname = C;
lastChange = "2020-10-05 17:32:20 +0000";
layers = (
{
hints = (
{
horizontal = 1;
place = "{-15, 190}";
type = Stem;
},
{
horizontal = 1;
place = "{677, 60}";
type = Stem;
},
{
place = "{61, 70}";
type = Stem;
},
{
horizontal = 1;
place = "{-15, 60}";
type = Stem;
},
{
horizontal = 1;
place = "{553, 184}";
type = Stem;
}
);
layerId = "324B6D7A-1AE4-424F-A6A7-4FAAB53DF00B";
paths = (
{
closed = 1;
nodes = (
"612 553 LINE",
"602 683 OFFCURVE",
"490 737 OFFCURVE",
"372 737 CURVE SMOOTH",
"154 737 OFFCURVE",
"61 559 OFFCURVE",
"61 361 CURVE SMOOTH",
"61 161 OFFCURVE",
"153 -15 OFFCURVE",
"372 -15 CURVE SMOOTH",
"488 -15 OFFCURVE",
"599 54 OFFCURVE",
"620 175 CURVE",
"550 175 LINE",
"532 85 OFFCURVE",
"452 45 OFFCURVE",
"372 45 CURVE SMOOTH",
"187 45 OFFCURVE",
"131 213 OFFCURVE",
"131 361 CURVE SMOOTH",
"131 509 OFFCURVE",
"187 677 OFFCURVE",
"372 677 CURVE SMOOTH",
"454 677 OFFCURVE",
"530 641 OFFCURVE",
"542 553 CURVE"
);
}
);
width = 667;
}
);
leftKerningGroup = C;
note = C;
rightKerningGroup = C;
unicode = 0043;
},
{
glyphname = D;
lastChange = "2020-10-05 17:32:20 +0000";
layers = (
{
hints = (
{
horizontal = 1;
place = "{0, 60}";
type = Stem;
},
{
horizontal = 1;
place = "{662, 60}";
type = Stem;
},
{
place = "{91, 65}";
type = Stem;
},
{
place = "{588, 70}";
type = Stem;
}
);
layerId = "324B6D7A-1AE4-424F-A6A7-4FAAB53DF00B";
paths = (
{
closed = 1;
nodes = (
"156 60 LINE",
"156 662 LINE",
"258 662 LINE SMOOTH",
"463 668 OFFCURVE",
"588 574 OFFCURVE",
"588 361 CURVE SMOOTH",
"588 179 OFFCURVE",
"505 60 OFFCURVE",
"302 60 CURVE SMOOTH"
);
},
{
closed = 1;
nodes = (
"91 722 LINE",
"91 0 LINE",
"286 0 LINE SMOOTH",
"523 0 OFFCURVE",
"658 122 OFFCURVE",
"658 361 CURVE SMOOTH",
"658 600 OFFCURVE",
"523 722 OFFCURVE",
"286 722 CURVE SMOOTH"
);
}
);
width = 722;
}
);
note = D;
rightKerningGroup = D;
unicode = 0044;
},
{
glyphname = E;
lastChange = "2020-10-05 17:32:20 +0000";
layers = (
{
hints = (
{
horizontal = 1;
place = "{0, 60}";
type = Stem;
},
{
horizontal = 1;
place = "{343, 60}";
type = Stem;
},
{
horizontal = 1;
place = "{662, 60}";
type = Stem;
},
{
place = "{102, 65}";
type = Stem;
}
);
layerId = "324B6D7A-1AE4-424F-A6A7-4FAAB53DF00B";
paths = (
{
closed = 1;
nodes = (
"546 0 LINE",
"546 60 LINE",
"167 60 LINE",
"167 343 LINE",
"517 343 LINE",
"517 403 LINE",
"167 403 LINE",
"167 662 LINE",
"531 662 LINE",
"531 722 LINE",
"102 722 LINE",
"102 0 LINE"
);
}
);
width = 611;
}
);
note = E;
rightKerningGroup = E;
unicode = 0045;
},
{
glyphname = F;
lastChange = "2020-10-05 17:32:20 +0000";
layers = (
{
hints = (
{
horizontal = 1;
place = "{0, 21}";
target = up;
type = BottomGhost;
},
{
horizontal = 1;
place = "{347, 60}";
type = Stem;
},
{
horizontal = 1;
place = "{662, 60}";
type = Stem;
},
{
place = "{95, 65}";
type = Stem;
}
);
layerId = "324B6D7A-1AE4-424F-A6A7-4FAAB53DF00B";
paths = (
{
closed = 1;
nodes = (
"160 0 LINE",
"160 347 LINE",
"491 347 LINE",
"491 407 LINE",
"160 407 LINE",
"160 662 LINE",
"503 662 LINE",
"503 722 LINE",
"95 722 LINE",
"95 0 LINE"
);
}
);
width = 556;
}
);
note = F;
rightKerningGroup = F;
unicode = 0046;
},
{
glyphname = G;
lastChange = "2020-10-05 17:32:20 +0000";
layers = (
{
hints = (
{
horizontal = 1;
place = "{-15, 60}";
type = Stem;
},
{
horizontal = 1;
place = "{308, 60}";
type = Stem;
},
{
horizontal = 1;
place = "{544, 193}";
type = Stem;
},
{
place = "{64, 70}";
type = Stem;
},
{
place = "{385, 246}";
type = Stem;
},
{
horizontal = 1;
place = "{677, 60}";
type = Stem;
},
{
place = "{566, 65}";
type = Stem;
}
);
layerId = "324B6D7A-1AE4-424F-A6A7-4FAAB53DF00B";
paths = (
{
closed = 1;
nodes = (
"385 368 LINE",
"385 308 LINE",
"566 308 LINE",
"566 75 LINE",
"515 60 OFFCURVE",
"460 45 OFFCURVE",
"406 45 CURVE SMOOTH",
"211 45 OFFCURVE",
"134 177 OFFCURVE",
"134 361 CURVE SMOOTH",
"134 511 OFFCURVE",
"199 677 OFFCURVE",
"372 677 CURVE SMOOTH",
"458 677 OFFCURVE",
"539 636 OFFCURVE",
"552 544 CURVE",
"626 544 LINE",
"615 672 OFFCURVE",
"492 737 OFFCURVE",
"372 737 CURVE SMOOTH",
"163 737 OFFCURVE",
"64 547 OFFCURVE",
"64 361 CURVE SMOOTH",
"64 139 OFFCURVE",
"175 -15 OFFCURVE",
"372 -15 CURVE SMOOTH",
"465 -15 OFFCURVE",
"544 -4 OFFCURVE",
"631 30 CURVE",
"631 368 LINE"
);
}
);
width = 722;
}
);
leftKerningGroup = G;
note = G;
unicode = 0047;
},
{
glyphname = H;
lastChange = "2020-10-05 17:32:20 +0000";
layers = (
{
hints = (
{
horizontal = 1;
place = "{0, 21}";
target = up;
type = BottomGhost;
},
{
horizontal = 1;
place = "{345, 60}";
type = Stem;
},
{
horizontal = 1;
place = "{722, -20}";
target = down;
type = TopGhost;
},
{
place = "{99, 65}";
type = Stem;
},
{
place = "{558, 65}";
type = Stem;
}
);
layerId = "324B6D7A-1AE4-424F-A6A7-4FAAB53DF00B";
paths = (
{
closed = 1;
nodes = (
"164 0 LINE",
"164 345 LINE",
"558 345 LINE",
"558 0 LINE",
"623 0 LINE",
"623 722 LINE",
"558 722 LINE",
"558 405 LINE",
"164 405 LINE",
"164 722 LINE",
"99 722 LINE",
"99 0 LINE"
);
}
);
width = 722;
}
);
note = H;
rightKerningGroup = H;
unicode = 0048;
},
{
glyphname = I;
lastChange = "2020-10-05 17:32:20 +0000";
layers = (
{
hints = (
{
horizontal = 1;
place = "{0, 21}";
target = up;
type = BottomGhost;
},
{
horizontal = 1;
place = "{725, -20}";
target = down;
type = TopGhost;
},
{
place = "{107, 65}";
type = Stem;
}
);
layerId = "324B6D7A-1AE4-424F-A6A7-4FAAB53DF00B";
paths = (
{
closed = 1;
nodes = (
"172 0 LINE",
"172 725 LINE",
"107 725 LINE",
"107 0 LINE"
);
}
);
width = 278;
}
);
note = I;
unicode = 0049;
},
{
glyphname = J;
lastChange = "2020-10-05 17:32:20 +0000";
layers = (
{
hints = (
{
horizontal = 1;
place = "{-15, 60}";
type = Stem;
},
{
horizontal = 1;
place = "{722, -20}";
target = down;
type = TopGhost;
},
{
place = "{347, 65}";
type = Stem;
}
);
layerId = "324B6D7A-1AE4-424F-A6A7-4FAAB53DF00B";
paths = (
{
closed = 1;
nodes = (
"13 178 LINE",
"27 73 OFFCURVE",
"82 -15 OFFCURVE",
"199 -15 CURVE SMOOTH",
"261 -15 OFFCURVE",
"321 6 OFFCURVE",
"362 56 CURVE SMOOTH",
"409 113 OFFCURVE",
"412 182 OFFCURVE",
"412 235 CURVE SMOOTH",
"412 722 LINE",
"347 722 LINE",
"347 225 LINE SMOOTH",
"347 138 OFFCURVE",
"312 45 OFFCURVE",
"220 45 CURVE SMOOTH",
"142 45 OFFCURVE",
"90 100 OFFCURVE",
"83 178 CURVE"
);
}
);
width = 500;
}
);
leftKerningGroup = J;
note = J;
rightKerningGroup = J;
unicode = 004A;
},
{
glyphname = K;
lastChange = "2020-10-05 17:32:20 +0000";
layers = (
{
hints = (
{
horizontal = 1;
place = "{0, 21}";
target = up;
type = BottomGhost;
},
{
horizontal = 1;
place = "{722, -20}";
target = down;
type = TopGhost;
},
{
place = "{106, 64}";
type = Stem;
}
);
layerId = "324B6D7A-1AE4-424F-A6A7-4FAAB53DF00B";
paths = (
{
closed = 1;
nodes = (
"170 0 LINE",
"171 377 LINE",
"517 0 LINE",
"606 0 LINE",
"243 396 LINE",
"576 722 LINE",
"494 722 LINE",
"171 404 LINE",
"170 722 LINE",
"106 722 LINE",
"106 0 LINE"
);
}
);
width = 611;
}
);
note = K;
rightKerningGroup = K;
unicode = 004B;
},
{
glyphname = L;
lastChange = "2020-10-05 17:32:20 +0000";
layers = (
{
hints = (
{
horizontal = 1;
place = "{0, 60}";
type = Stem;
},
{
horizontal = 1;
place = "{722, -20}";
target = down;
type = TopGhost;
},
{
place = "{100, 65}";
type = Stem;
}
);
layerId = "324B6D7A-1AE4-424F-A6A7-4FAAB53DF00B";
paths = (
{
closed = 1;
nodes = (
"528 0 LINE",
"528 60 LINE",
"165 60 LINE",
"165 722 LINE",
"100 722 LINE",
"100 0 LINE"
);
}
);
width = 556;
}
);
note = L;
rightKerningGroup = L;
unicode = 004C;
},
{
glyphname = M;
lastChange = "2020-10-05 17:32:20 +0000";
layers = (
{
hints = (
{
horizontal = 1;
place = "{0, 21}";
target = up;
type = BottomGhost;
},
{
horizontal = 1;
place = "{722, -20}";
target = down;
type = TopGhost;
},
{
place = "{97, 65}";
type = Stem;
},
{
place = "{783, 65}";
type = Stem;
}
);
layerId = "324B6D7A-1AE4-424F-A6A7-4FAAB53DF00B";
paths = (
{
closed = 1;
nodes = (
"162 0 LINE",
"162 664 LINE",
"164 664 LINE",
"440 0 LINE",
"505 0 LINE",
"781 667 LINE",
"783 667 LINE",
"783 0 LINE",
"848 0 LINE",
"848 722 LINE",
"749 722 LINE",
"472 93 LINE",
"201 722 LINE",
"97 722 LINE",
"97 0 LINE"
);
}
);
width = 944;
}
);
note = M;
unicode = 004D;
},
{
glyphname = N;
lastChange = "2020-10-05 17:32:20 +0000";
layers = (
{
hints = (
{
horizontal = 1;
place = "{0, 21}";
target = up;
type = BottomGhost;
},
{
horizontal = 1;
place = "{722, -20}";
target = down;
type = TopGhost;
},
{
place = "{92, 65}";
type = Stem;
},
{
place = "{566, 65}";
type = Stem;
}
);
layerId = "324B6D7A-1AE4-424F-A6A7-4FAAB53DF00B";
paths = (
{
closed = 1;
nodes = (
"92 0 LINE",
"157 0 LINE",
"157 624 LINE",
"159 624 LINE",
"549 0 LINE",
"631 0 LINE",
"631 722 LINE",
"566 722 LINE",
"566 87 LINE",
"564 87 LINE",
"166 722 LINE",
"92 722 LINE"
);
}
);
width = 722;
}
);
note = N;
unicode = 004E;
},
{
glyphname = O;
lastChange = "2020-10-05 17:32:20 +0000";
layers = (
{
hints = (
{
horizontal = 1;
place = "{-15, 60}";
type = Stem;
},
{
horizontal = 1;
place = "{677, 60}";
type = Stem;
},
{
place = "{67, 70}";
type = Stem;
},
{
place = "{641, 70}";
type = Stem;
}
);
layerId = "324B6D7A-1AE4-424F-A6A7-4FAAB53DF00B";
paths = (
{
closed = 1;
nodes = (
"137 519 OFFCURVE",
"209 677 OFFCURVE",
"389 677 CURVE SMOOTH",
"569 677 OFFCURVE",
"641 519 OFFCURVE",
"641 361 CURVE SMOOTH",
"641 203 OFFCURVE",
"569 45 OFFCURVE",
"389 45 CURVE SMOOTH",
"209 45 OFFCURVE",
"137 203 OFFCURVE",
"137 361 CURVE SMOOTH"
);
},
{
closed = 1;
nodes = (
"711 586 OFFCURVE",
"596 737 OFFCURVE",
"389 737 CURVE SMOOTH",
"182 737 OFFCURVE",
"67 586 OFFCURVE",
"67 361 CURVE SMOOTH",
"67 136 OFFCURVE",
"182 -15 OFFCURVE",
"389 -15 CURVE SMOOTH",
"596 -15 OFFCURVE",
"711 136 OFFCURVE",
"711 361 CURVE SMOOTH"
);
}
);
width = 778;
}
);
leftKerningGroup = O;
note = O;
rightKerningGroup = O;
unicode = 004F;
},
{
glyphname = P;
lastChange = "2020-10-05 17:32:20 +0000";
layers = (
{
hints = (
{
horizontal = 1;
place = "{0, 21}";
target = up;
type = BottomGhost;
},
{
horizontal = 1;
place = "{314, 60}";
type = Stem;
},
{
horizontal = 1;
place = "{662, 60}";
type = Stem;
},
{
place = "{100, 65}";
type = Stem;
},
{
place = "{506, 70}";
type = Stem;
}
);
layerId = "324B6D7A-1AE4-424F-A6A7-4FAAB53DF00B";
paths = (
{
closed = 1;
nodes = (
"165 662 LINE",
"323 662 LINE SMOOTH",
"420 662 OFFCURVE",
"506 631 OFFCURVE",
"506 518 CURVE SMOOTH",
"506 405 OFFCURVE",
"420 374 OFFCURVE",
"323 374 CURVE SMOOTH",
"165 374 LINE"
);
},
{
closed = 1;
nodes = (
"165 0 LINE",
"165 314 LINE",
"281 314 LINE SMOOTH",
"420 311 OFFCURVE",
"576 346 OFFCURVE",
"576 518 CURVE SMOOTH",
"576 690 OFFCURVE",
"420 725 OFFCURVE",
"281 722 CURVE SMOOTH",
"100 722 LINE",
"100 0 LINE"
);
}
);
width = 611;
}
);
note = P;
rightKerningGroup = P;
unicode = 0050;
},
{
glyphname = Q;
lastChange = "2020-10-05 17:32:20 +0000";
layers = (
{
hints = (
{
horizontal = 1;
place = "{0, 60}";
type = Stem;
},
{
horizontal = 1;
place = "{677, 60}";
type = Stem;
},
{
place = "{67, 70}";
type = Stem;
},
{
place = "{641, 97}";
type = Stem;
},
{
horizontal = 1;
place = "{-15, 60}";
type = Stem;
},
{
place = "{641, 70}";
type = Stem;
}
);
layerId = "324B6D7A-1AE4-424F-A6A7-4FAAB53DF00B";
paths = (
{
closed = 1;
nodes = (
"738 0 LINE",
"738 60 LINE",
"685 58 OFFCURVE",
"631 61 OFFCURVE",
"581 53 CURVE",
"579 55 LINE",
"670 124 OFFCURVE",
"711 244 OFFCURVE",
"711 361 CURVE SMOOTH",
"711 586 OFFCURVE",
"596 737 OFFCURVE",
"389 737 CURVE SMOOTH",
"182 737 OFFCURVE",
"67 586 OFFCURVE",
"67 361 CURVE SMOOTH",
"67 136 OFFCURVE",
"182 -15 OFFCURVE",
"389 -15 CURVE SMOOTH",
"410 -15 OFFCURVE",
"438 -9 OFFCURVE",
"463 -1 CURVE SMOOTH",
"502 10 OFFCURVE",
"560 0 OFFCURVE",
"591 0 CURVE SMOOTH"
);
},
{
closed = 1;
nodes = (
"137 519 OFFCURVE",
"209 677 OFFCURVE",
"389 677 CURVE SMOOTH",
"569 677 OFFCURVE",
"641 519 OFFCURVE",
"641 361 CURVE SMOOTH",
"641 203 OFFCURVE",
"569 45 OFFCURVE",
"389 45 CURVE SMOOTH",
"209 45 OFFCURVE",
"137 203 OFFCURVE",
"137 361 CURVE SMOOTH"
);
}
);
width = 778;
}
);
leftKerningGroup = Q;
note = Q;
unicode = 0051;
},
{
glyphname = R;
lastChange = "2020-10-05 17:32:20 +0000";
layers = (
{
hints = (
{
horizontal = 1;
place = "{0, 21}";
target = up;
type = BottomGhost;
},
{
horizontal = 1;
place = "{344, 60}";
type = Stem;
},
{
horizontal = 1;
place = "{662, 60}";
type = Stem;
},
{
place = "{103, 65}";
type = Stem;
},
{
place = "{513, 70}";
type = Stem;
}
);
layerId = "324B6D7A-1AE4-424F-A6A7-4FAAB53DF00B";
paths = (
{
closed = 1;
nodes = (
"168 404 LINE",
"168 662 LINE",
"314 662 LINE SMOOTH",
"383 662 OFFCURVE",
"513 672 OFFCURVE",
"513 533 CURVE SMOOTH",
"513 410 OFFCURVE",
"399 404 OFFCURVE",
"307 404 CURVE SMOOTH"
);
},
{
closed = 1;
nodes = (
"168 344 LINE",
"347 344 LINE SMOOTH",
"478 344 OFFCURVE",
"488 315 OFFCURVE",
"503 150 CURVE SMOOTH",
"507 99 OFFCURVE",
"511 48 OFFCURVE",
"528 0 CURVE",
"603 0 LINE",
"574 44 OFFCURVE",
"578 98 OFFCURVE",
"565 215 CURVE SMOOTH",
"556 299 OFFCURVE",
"536 361 OFFCURVE",
"444 376 CURVE",
"444 378 LINE",
"528 399 OFFCURVE",
"583 455 OFFCURVE",
"583 533 CURVE SMOOTH",
"583 602 OFFCURVE",
"559 654 OFFCURVE",
"509 684 CURVE SMOOTH",
"454 718 OFFCURVE",
"402 722 OFFCURVE",
"339 722 CURVE SMOOTH",
"103 722 LINE",
"103 0 LINE",
"168 0 LINE"
);
}
);
width = 667;
}
);
note = R;
rightKerningGroup = R;
unicode = 0052;
},
{
glyphname = S;
lastChange = "2020-10-05 17:32:20 +0000";
layers = (
{
hints = (
{
horizontal = 1;
place = "{-15, 60}";
type = Stem;
},
{
horizontal = 1;
place = "{677, 60}";
type = Stem;
},
{
place = "{75, 70}";
type = Stem;
},
{
place = "{483, 70}";
type = Stem;
},
{
horizontal = 1;
place = "{565, 172}";
type = Stem;
},
{
place = "{75, 53}";
type = Stem;
},
{
horizontal = 1;
place = "{-15, 203}";
type = Stem;
},
{
place = "{58, 70}";
type = Stem;
}
);
layerId = "324B6D7A-1AE4-424F-A6A7-4FAAB53DF00B";
paths = (
{
closed = 1;
nodes = (
"553 439 OFFCURVE",
"145 346 OFFCURVE",
"145 551 CURVE SMOOTH",
"145 639 OFFCURVE",
"238 677 OFFCURVE",
"313 677 CURVE SMOOTH",
"387 677 OFFCURVE",
"468 654 OFFCURVE",
"470 565 CURVE",
"540 565 LINE",
"524 704 OFFCURVE",
"400 737 OFFCURVE",
"305 737 CURVE SMOOTH",
"191 737 OFFCURVE",
"75 668 OFFCURVE",
"75 542 CURVE SMOOTH",
"75 386 OFFCURVE",
"253 349 OFFCURVE",
"370 310 CURVE SMOOTH",
"431 290 OFFCURVE",
"483 256 OFFCURVE",
"483 184 CURVE SMOOTH",
"483 92 OFFCURVE",
"390 45 OFFCURVE",
"309 45 CURVE SMOOTH",
"212 45 OFFCURVE",
"130 77 OFFCURVE",
"128 188 CURVE",
"58 188 LINE",
"61 69 OFFCURVE",
"158 -15 OFFCURVE",
"273 -15 CURVE SMOOTH",
"418 -15 OFFCURVE",
"553 33 OFFCURVE",
"553 190 CURVE SMOOTH"
);
}
);
width = 611;
}
);
leftKerningGroup = S;
note = S;
rightKerningGroup = S;
unicode = 0053;
},
{
glyphname = T;
lastChange = "2020-10-05 17:32:20 +0000";
layers = (
{
hints = (
{
horizontal = 1;
place = "{0, 21}";
target = up;
type = BottomGhost;
},
{
horizontal = 1;
place = "{662, 60}";
type = Stem;
},
{
place = "{247, 65}";
type = Stem;
}
);
layerId = "324B6D7A-1AE4-424F-A6A7-4FAAB53DF00B";
paths = (
{
closed = 1;
nodes = (
"248 0 LINE",
"312 0 LINE",
"313 662 LINE",
"542 662 LINE",
"542 722 LINE",
"14 722 LINE",
"14 662 LINE",
"247 662 LINE"
);
}
);
width = 556;
}
);
leftKerningGroup = T;
note = T;
rightKerningGroup = T;
unicode = 0054;
},
{
glyphname = U;
lastChange = "2020-10-05 17:32:20 +0000";
layers = (
{
hints = (
{
horizontal = 1;
place = "{-15, 60}";
type = Stem;
},
{
horizontal = 1;
place = "{722, -20}";
target = down;
type = TopGhost;
},
{
place = "{97, 65}";
type = Stem;
},
{
place = "{560, 65}";
type = Stem;
}
);
layerId = "324B6D7A-1AE4-424F-A6A7-4FAAB53DF00B";
paths = (
{
closed = 1;
nodes = (
"97 722 LINE",
"97 254 LINE SMOOTH",
"99 99 OFFCURVE",
"186 -15 OFFCURVE",
"361 -15 CURVE SMOOTH",
"536 -15 OFFCURVE",
"623 99 OFFCURVE",
"625 254 CURVE SMOOTH",
"625 722 LINE",
"560 722 LINE",
"560 255 LINE",
"555 124 OFFCURVE",
"480 45 OFFCURVE",
"361 45 CURVE SMOOTH",
"242 45 OFFCURVE",
"167 124 OFFCURVE",
"162 255 CURVE",
"162 722 LINE"
);
}
);
width = 722;
}
);
leftKerningGroup = U;
note = U;
rightKerningGroup = U;
unicode = 0055;
},
{
glyphname = V;
lastChange = "2020-10-05 17:32:20 +0000";
layers = (
{
hints = (
{
horizontal = 1;
place = "{0, 21}";
target = up;
type = BottomGhost;
},
{
horizontal = 1;
place = "{722, -20}";
target = down;
type = TopGhost;
}
);
layerId = "324B6D7A-1AE4-424F-A6A7-4FAAB53DF00B";
paths = (
{
closed = 1;
nodes = (
"77 722 LINE",
"6 722 LINE",
"270 0 LINE",
"344 0 LINE",
"605 722 LINE",
"540 722 LINE",
"311 65 LINE",
"309 65 LINE"
);
}
);
width = 611;
}
);
leftKerningGroup = V;
note = V;
rightKerningGroup = V;
unicode = 0056;
},
{
glyphname = W;
lastChange = "2020-10-05 17:32:20 +0000";
layers = (
{
hints = (
{
horizontal = 1;
place = "{0, 21}";
target = up;
type = BottomGhost;
},
{
horizontal = 1;
place = "{722, -20}";
target = down;
type = TopGhost;
}
);
layerId = "324B6D7A-1AE4-424F-A6A7-4FAAB53DF00B";
paths = (
{
closed = 1;
nodes = (
"497 655 LINE",
"499 655 LINE",
"712 0 LINE",
"801 0 LINE",
"991 722 LINE",
"928 722 LINE",
"761 65 LINE",
"759 65 LINE",
"539 722 LINE",
"460 722 LINE",
"249 65 LINE",
"247 65 LINE",
"79 722 LINE",
"10 722 LINE",
"198 0 LINE",
"290 0 LINE"
);
}
);
width = 1000;
}
);
leftKerningGroup = W;
note = W;
rightKerningGroup = W;
unicode = 0057;
},
{
glyphname = X;
lastChange = "2020-10-05 17:32:20 +0000";
layers = (
{
hints = (
{
horizontal = 1;
place = "{0, 21}";
target = up;
type = BottomGhost;
},
{
horizontal = 1;
place = "{722, -20}";
target = down;
type = TopGhost;
}
);
layerId = "324B6D7A-1AE4-424F-A6A7-4FAAB53DF00B";
paths = (
{
closed = 1;
nodes = (
"301 323 LINE",
"520 0 LINE",
"603 0 LINE",
"345 372 LINE",
"595 722 LINE",
"522 722 LINE",
"310 418 LINE",
"106 722 LINE",
"21 722 LINE",
"265 372 LINE",
"8 0 LINE",
"82 0 LINE"
);
}
);
width = 611;
}
);
leftKerningGroup = X;
note = X;
rightKerningGroup = X;
unicode = 0058;
},
{
glyphname = Y;
lastChange = "2020-10-05 17:32:20 +0000";
layers = (
{
hints = (
{
horizontal = 1;
place = "{0, 21}";
target = up;
type = BottomGhost;
},
{
horizontal = 1;
place = "{722, -20}";
target = down;
type = TopGhost;
},
{
place = "{274, 65}";
type = Stem;
}
);
layerId = "324B6D7A-1AE4-424F-A6A7-4FAAB53DF00B";
paths = (
{
closed = 1;
nodes = (
"274 0 LINE",
"339 0 LINE",
"339 314 LINE",
"603 722 LINE",
"533 722 LINE",
"312 373 LINE",
"91 722 LINE",
"8 722 LINE",
"274 312 LINE"
);
}
);
width = 611;
}
);
leftKerningGroup = Y;
note = Y;
rightKerningGroup = Y;
unicode = 0059;
},
{
glyphname = Z;
lastChange = "2020-10-05 17:32:20 +0000";
layers = (
{
hints = (
{
horizontal = 1;
place = "{0, 60}";
type = Stem;
},
{
horizontal = 1;
place = "{662, 60}";
type = Stem;
}
);
layerId = "324B6D7A-1AE4-424F-A6A7-4FAAB53DF00B";
paths = (
{
closed = 1;
nodes = (
"517 0 LINE",
"517 60 LINE",
"115 60 LINE",
"517 662 LINE",
"517 722 LINE",
"39 722 LINE",
"39 662 LINE",
"440 662 LINE",
"39 60 LINE",
"39 0 LINE"
);
}
);
width = 556;
}
);
note = Z;
unicode = 005A;
},
{
glyphname = bracketleft;
lastChange = "2020-10-05 17:32:20 +0000";
layers = (
{
hints = (
{
horizontal = 1;
place = "{-96, 50}";
type = Stem;
},
{
horizontal = 1;
place = "{672, 50}";
type = Stem;
},
{
place = "{85, 137}";
type = Stem;
},
{
place = "{85, 65}";
type = Stem;
}
);
layerId = "324B6D7A-1AE4-424F-A6A7-4FAAB53DF00B";
paths = (
{
closed = 1;
nodes = (
"222 -96 LINE",
"222 -46 LINE",
"150 -46 LINE",
"150 672 LINE",
"222 672 LINE",
"222 722 LINE",
"85 722 LINE",
"85 -96 LINE"
);
}
);
width = 278;
}
);
note = bracketleft;
unicode = 005B;
},
{
glyphname = backslash;
lastChange = "2020-10-05 17:32:20 +0000";
layers = (
{
hints = (
{
horizontal = 1;
place = "{0, 21}";
target = up;
type = BottomGhost;
},
{
horizontal = 1;
place = "{722, -20}";
target = down;
type = TopGhost;
}
);
layerId = "324B6D7A-1AE4-424F-A6A7-4FAAB53DF00B";
paths = (
{
closed = 1;
nodes = (
"258 0 LINE",
"323 0 LINE",
"21 722 LINE",
"-44 722 LINE"
);
}
);
width = 278;
}
);
note = backslash;
unicode = 005C;
},
{
glyphname = bracketright;
lastChange = "2020-10-05 17:32:20 +0000";
layers = (
{
hints = (
{
horizontal = 1;
place = "{-96, 50}";
type = Stem;
},
{
horizontal = 1;
place = "{672, 50}";
type = Stem;
},
{
place = "{56, 137}";
type = Stem;
},
{
place = "{128, 65}";
type = Stem;
}
);
layerId = "324B6D7A-1AE4-424F-A6A7-4FAAB53DF00B";
paths = (
{
closed = 1;
nodes = (
"56 722 LINE",
"56 672 LINE",
"128 672 LINE",
"128 -46 LINE",
"56 -46 LINE",
"56 -96 LINE",
"193 -96 LINE",
"193 722 LINE"
);
}
);
width = 278;
}
);
note = bracketright;
unicode = 005D;
},
{
glyphname = asciicircum;
lastChange = "2020-10-05 17:32:20 +0000";
layers = (
{
hints = (
{
horizontal = 1;
place = "{239, 21}";
target = up;
type = BottomGhost;
},
{
horizontal = 1;
place = "{692, -20}";
target = down;
type = TopGhost;
}
);
layerId = "324B6D7A-1AE4-424F-A6A7-4FAAB53DF00B";
paths = (
{
closed = 1;
nodes = (
"132 239 LINE",
"329 631 LINE",
"530 239 LINE",
"587 239 LINE",
"356 692 LINE",
"304 692 LINE",
"74 239 LINE"
);
}
);
width = 660;
}
);
note = asciicircum;
unicode = 005E;
},
{
glyphname = underscore;
lastChange = "2020-10-05 17:32:20 +0000";
layers = (
{
hints = (
{
horizontal = 1;
place = "{-124, 56}";
type = Stem;
}
);
layerId = "324B6D7A-1AE4-424F-A6A7-4FAAB53DF00B";
paths = (
{
closed = 1;
nodes = (
"500 -124 LINE",
"500 -68 LINE",
"0 -68 LINE",
"0 -124 LINE"
);
}
);
width = 500;
}
);
note = underscore;
unicode = 005F;
},
{
glyphname = grave;
lastChange = "2020-10-05 17:32:20 +0000";
layers = (
{
hints = (
{
horizontal = 1;
place = "{564, 21}";
target = up;
type = BottomGhost;
},
{
horizontal = 1;
place = "{707, -20}";
target = down;
type = TopGhost;
}
);
layerId = "324B6D7A-1AE4-424F-A6A7-4FAAB53DF00B";
paths = (
{
closed = 1;
nodes = (
"20 707 LINE",
"147 564 LINE",
"191 564 LINE",
"100 707 LINE"
);
}
);
width = 278;
}
);
note = grave;
unicode = 0060;
},
{
glyphname = a;
lastChange = "2020-10-05 17:32:20 +0000";
layers = (
{
hints = (
{
horizontal = 1;
place = "{-15, 55}";
type = Stem;
},
{
horizontal = 1;
place = "{253, 55}";
type = Stem;
},
{
horizontal = 1;
place = "{375, 142}";
type = Stem;
},
{
place = "{36, 65}";
type = Stem;
},
{
place = "{364, 60}";
type = Stem;
},
{
horizontal = 1;
place = "{0, 40}";
type = Stem;
},
{
horizontal = 1;
place = "{462, 55}";
type = Stem;
}
);
layerId = "324B6D7A-1AE4-424F-A6A7-4FAAB53DF00B";
paths = (
{
closed = 1;
nodes = (
"101 266 OFFCURVE",
"279 250 OFFCURVE",
"364 253 CURVE",
"370 148 OFFCURVE",
"345 40 OFFCURVE",
"214 40 CURVE SMOOTH",
"153 40 OFFCURVE",
"101 72 OFFCURVE",
"101 140 CURVE SMOOTH"
);
},
{
closed = 1;
nodes = (
"364 308 LINE",
"291 304 OFFCURVE",
"204 314 OFFCURVE",
"137 285 CURVE SMOOTH",
"77 260 OFFCURVE",
"36 208 OFFCURVE",
"36 140 CURVE SMOOTH",
"36 42 OFFCURVE",
"110 -15 OFFCURVE",
"203 -15 CURVE SMOOTH",
"271 -15 OFFCURVE",
"338 25 OFFCURVE",
"360 67 CURVE",
"363 74 LINE",
"365 74 LINE",
"367 0 LINE",
"429 0 LINE",
"427 34 OFFCURVE",
"423 74 OFFCURVE",
"424 113 CURVE SMOOTH",
"424 351 LINE SMOOTH",
"426 466 OFFCURVE",
"357 517 OFFCURVE",
"246 517 CURVE SMOOTH",
"150 517 OFFCURVE",
"73 478 OFFCURVE",
"58 375 CURVE",
"122 375 LINE",
"130 443 OFFCURVE",
"182 462 OFFCURVE",
"245 462 CURVE SMOOTH",
"316 462 OFFCURVE",
"358 436 OFFCURVE",
"364 354 CURVE"
);
}
);
width = 500;
}
);
leftKerningGroup = a;
note = a;
rightKerningGroup = a;
unicode = 0061;
},
{
glyphname = b;
lastChange = "2020-10-05 17:32:20 +0000";
layers = (
{
hints = (
{
horizontal = 1;
place = "{-15, 55}";
type = Stem;
},
{
horizontal = 1;
place = "{462, 55}";
type = Stem;
},
{
horizontal = 1;
place = "{722, -20}";
target = down;
type = TopGhost;
},
{
place = "{70, 60}";
type = Stem;
},
{
place = "{445, 65}";
type = Stem;
},
{
horizontal = 1;
place = "{0, 40}";
type = Stem;
}
);
layerId = "324B6D7A-1AE4-424F-A6A7-4FAAB53DF00B";
paths = (
{
closed = 1;
nodes = (
"406 462 OFFCURVE",
"445 354 OFFCURVE",
"445 258 CURVE SMOOTH",
"445 165 OFFCURVE",
"416 40 OFFCURVE",
"301 40 CURVE SMOOTH",
"170 40 OFFCURVE",
"130 147 OFFCURVE",
"130 261 CURVE SMOOTH",
"130 363 OFFCURVE",
"175 462 OFFCURVE",
"292 462 CURVE SMOOTH"
);
},
{
closed = 1;
nodes = (
"130 74 LINE",
"132 78 LINE",
"173 18 OFFCURVE",
"234 -15 OFFCURVE",
"307 -15 CURVE SMOOTH",
"453 -15 OFFCURVE",
"510 127 OFFCURVE",
"510 253 CURVE SMOOTH",
"510 383 OFFCURVE",
"453 517 OFFCURVE",
"304 517 CURVE SMOOTH",
"237 517 OFFCURVE",
"167 485 OFFCURVE",
"132 426 CURVE",
"130 428 LINE",
"130 722 LINE",
"70 722 LINE",
"70 113 LINE SMOOTH",
"70 74 OFFCURVE",
"67 34 OFFCURVE",
"65 0 CURVE",
"127 0 LINE"
);
}
);
width = 556;
}
);
leftKerningGroup = b;
note = b;
rightKerningGroup = b;
unicode = 0062;
},
{
glyphname = c;
lastChange = "2020-10-05 17:32:20 +0000";
layers = (
{
hints = (
{
horizontal = 1;
place = "{-15, 172}";
type = Stem;
},
{
horizontal = 1;
place = "{462, 55}";
type = Stem;
},
{
place = "{46, 65}";
type = Stem;
},
{
place = "{397, 65}";
type = Stem;
},
{
horizontal = 1;
place = "{-15, 55}";
type = Stem;
},
{
horizontal = 1;
place = "{348, 169}";
type = Stem;
}
);
layerId = "324B6D7A-1AE4-424F-A6A7-4FAAB53DF00B";
paths = (
{
closed = 1;
nodes = (
"462 348 LINE",
"457 455 OFFCURVE",
"373 517 OFFCURVE",
"270 517 CURVE SMOOTH",
"121 517 OFFCURVE",
"46 387 OFFCURVE",
"46 251 CURVE SMOOTH",
"46 114 OFFCURVE",
"116 -15 OFFCURVE",
"266 -15 CURVE SMOOTH",
"380 -15 OFFCURVE",
"446 42 OFFCURVE",
"462 157 CURVE",
"397 157 LINE",
"392 88 OFFCURVE",
"338 40 OFFCURVE",
"260 40 CURVE SMOOTH",
"168 40 OFFCURVE",
"111 137 OFFCURVE",
"111 252 CURVE SMOOTH",
"111 366 OFFCURVE",
"168 462 OFFCURVE",
"260 462 CURVE SMOOTH",
"343 462 OFFCURVE",
"392 425 OFFCURVE",
"397 348 CURVE"
);
}
);
width = 500;
}
);
leftKerningGroup = c;
note = c;
unicode = 0063;
},
{
glyphname = d;
lastChange = "2020-10-05 17:32:20 +0000";
layers = (
{
hints = (
{
horizontal = 1;
place = "{0, 40}";
type = Stem;
},
{
horizontal = 1;
place = "{462, 55}";
type = Stem;
},
{
horizontal = 1;
place = "{722, -20}";
target = down;
type = TopGhost;
},
{
place = "{46, 65}";
type = Stem;
},
{
place = "{424, 62}";
type = Stem;
},
{
horizontal = 1;
place = "{-15, 55}";
type = Stem;
}
);
layerId = "324B6D7A-1AE4-424F-A6A7-4FAAB53DF00B";
paths = (
{
closed = 1;
nodes = (
"424 149 OFFCURVE",
"384 40 OFFCURVE",
"253 40 CURVE SMOOTH",
"138 40 OFFCURVE",
"111 167 OFFCURVE",
"111 260 CURVE SMOOTH",
"111 356 OFFCURVE",
"148 462 OFFCURVE",
"262 462 CURVE SMOOTH",
"379 462 OFFCURVE",
"424 365 OFFCURVE",
"424 263 CURVE SMOOTH"
);
},
{
closed = 1;
nodes = (
"429 0 LINE",
"491 0 LINE",
"489 34 OFFCURVE",
"486 74 OFFCURVE",
"486 113 CURVE SMOOTH",
"486 722 LINE",
"426 722 LINE",
"426 428 LINE",
"424 426 LINE",
"389 485 OFFCURVE",
"319 517 OFFCURVE",
"252 517 CURVE SMOOTH",
"103 517 OFFCURVE",
"46 383 OFFCURVE",
"46 253 CURVE SMOOTH",
"46 127 OFFCURVE",
"103 -15 OFFCURVE",
"252 -15 CURVE SMOOTH",
"322 -15 OFFCURVE",
"383 18 OFFCURVE",
"424 78 CURVE",
"426 74 LINE"
);
}
);
width = 556;
}
);
leftKerningGroup = d;
note = d;
rightKerningGroup = d;
unicode = 0064;
},
{
glyphname = e;
lastChange = "2020-10-05 17:32:20 +0000";
layers = (
{
hints = (
{
horizontal = 1;
place = "{-15, 175}";
type = Stem;
},
{
horizontal = 1;
place = "{237, 55}";
type = Stem;
},
{
horizontal = 1;
place = "{462, 55}";
type = Stem;
},
{
place = "{50, 65}";
type = Stem;
},
{
place = "{438, 65}";
type = Stem;
},
{
horizontal = 1;
place = "{-15, 55}";
type = Stem;
}
);
layerId = "324B6D7A-1AE4-424F-A6A7-4FAAB53DF00B";
paths = (
{
closed = 1;
nodes = (
"503 237 LINE",
"503 394 OFFCURVE",
"442 517 OFFCURVE",
"274 517 CURVE SMOOTH",
"125 517 OFFCURVE",
"50 387 OFFCURVE",
"50 251 CURVE SMOOTH",
"50 114 OFFCURVE",
"120 -15 OFFCURVE",
"270 -15 CURVE SMOOTH",
"391 -15 OFFCURVE",
"466 40 OFFCURVE",
"497 160 CURVE",
"434 160 LINE",
"419 91 OFFCURVE",
"360 40 OFFCURVE",
"289 40 CURVE SMOOTH",
"166 40 OFFCURVE",
"117 130 OFFCURVE",
"115 237 CURVE"
);
},
{
closed = 1;
nodes = (
"117 292 LINE",
"125 380 OFFCURVE",
"177 462 OFFCURVE",
"275 462 CURVE SMOOTH",
"379 462 OFFCURVE",
"431 389 OFFCURVE",
"438 292 CURVE"
);
}
);
width = 556;
}
);
leftKerningGroup = e;
note = e;
rightKerningGroup = e;
unicode = 0065;
},
{
glyphname = f;
lastChange = "2020-10-05 17:32:20 +0000";
layers = (
{
hints = (
{
horizontal = 1;
place = "{0, 21}";
target = up;
type = BottomGhost;
},
{
horizontal = 1;
place = "{447, 55}";
type = Stem;
},
{
horizontal = 1;
place = "{679, 55}";
type = Stem;
},
{
place = "{123, 60}";
type = Stem;
},
{
place = "{123, 174}";
type = Stem;
}
);
layerId = "324B6D7A-1AE4-424F-A6A7-4FAAB53DF00B";
paths = (
{
closed = 1;
nodes = (
"183 0 LINE",
"183 447 LINE",
"297 447 LINE",
"297 502 LINE",
"183 502 LINE",
"183 566 LINE",
"180 638 OFFCURVE",
"182 679 OFFCURVE",
"264 679 CURVE SMOOTH",
"276 679 OFFCURVE",
"289 677 OFFCURVE",
"301 675 CURVE",
"301 723 LINE",
"283 727 OFFCURVE",
"263 734 OFFCURVE",
"244 734 CURVE SMOOTH",
"158 734 OFFCURVE",
"123 695 OFFCURVE",
"123 609 CURVE SMOOTH",
"123 502 LINE",
"22 502 LINE",
"22 447 LINE",
"123 447 LINE",
"123 0 LINE"
);
}
);
width = 333;
}
);
leftKerningGroup = f;
note = f;
rightKerningGroup = f;
unicode = 0066;
},
{
glyphname = g;
lastChange = "2020-10-05 17:32:20 +0000";
layers = (
{
hints = (
{
horizontal = 1;
place = "{-192, 55}";
type = Stem;
},
{
horizontal = 1;
place = "{2, 55}";
type = Stem;
},
{
horizontal = 1;
place = "{462, 55}";
type = Stem;
},
{
place = "{45, 65}";
type = Stem;
},
{
place = "{426, 60}";
type = Stem;
},
{
horizontal = 1;
place = "{-192, 135}";
type = Stem;
},
{
horizontal = 1;
place = "{462, 40}";
type = Stem;
}
);
layerId = "324B6D7A-1AE4-424F-A6A7-4FAAB53DF00B";
paths = (
{
closed = 1;
nodes = (
"426 164 OFFCURVE",
"382 57 OFFCURVE",
"267 57 CURVE SMOOTH",
"157 57 OFFCURVE",
"110 168 OFFCURVE",
"110 260 CURVE SMOOTH",
"110 352 OFFCURVE",
"156 462 OFFCURVE",
"265 462 CURVE SMOOTH",
"373 462 OFFCURVE",
"426 358 OFFCURVE",
"426 262 CURVE SMOOTH"
);
},
{
closed = 1;
nodes = (
"426 428 LINE",
"424 424 LINE",
"384 482 OFFCURVE",
"332 517 OFFCURVE",
"259 517 CURVE SMOOTH",
"106 517 OFFCURVE",
"45 391 OFFCURVE",
"45 255 CURVE SMOOTH",
"45 117 OFFCURVE",
"110 2 OFFCURVE",
"261 2 CURVE SMOOTH",
"326 2 OFFCURVE",
"395 37 OFFCURVE",
"424 96 CURVE",
"426 96 LINE",
"426 2 LINE SMOOTH",
"424 -82 OFFCURVE",
"352 -137 OFFCURVE",
"274 -137 CURVE SMOOTH",
"210 -137 OFFCURVE",
"139 -117 OFFCURVE",
"132 -57 CURVE",
"67 -57 LINE",
"67 -161 OFFCURVE",
"175 -192 OFFCURVE",
"266 -192 CURVE SMOOTH",
"313 -192 OFFCURVE",
"340 -188 OFFCURVE",
"380 -169 CURVE SMOOTH",
"491 -117 OFFCURVE",
"486 -12 OFFCURVE",
"486 88 CURVE SMOOTH",
"486 389 LINE SMOOTH",
"486 428 OFFCURVE",
"489 468 OFFCURVE",
"491 502 CURVE",
"429 502 LINE"
);
}
);
width = 556;
}
);
leftKerningGroup = g;
note = g;
rightKerningGroup = g;
unicode = 0067;
},
{
glyphname = h;
lastChange = "2020-10-05 17:32:20 +0000";
layers = (
{
hints = (
{
horizontal = 1;
place = "{0, 21}";
target = up;
type = BottomGhost;
},
{
horizontal = 1;
place = "{462, 55}";
type = Stem;
},
{
horizontal = 1;
place = "{722, -20}";
target = down;
type = TopGhost;
},
{
place = "{80, 60}";
type = Stem;
},
{
place = "{416, 60}";
type = Stem;
}
);
layerId = "324B6D7A-1AE4-424F-A6A7-4FAAB53DF00B";
paths = (
{
closed = 1;
nodes = (
"140 722 LINE",
"80 722 LINE",
"80 0 LINE",
"140 0 LINE",
"140 289 LINE SMOOTH",
"140 379 OFFCURVE",
"185 462 OFFCURVE",
"284 462 CURVE SMOOTH",
"366 462 OFFCURVE",
"416 411 OFFCURVE",
"416 324 CURVE SMOOTH",
"416 0 LINE",
"476 0 LINE",
"476 314 LINE SMOOTH",
"476 372 OFFCURVE",
"463 517 OFFCURVE",
"299 517 CURVE SMOOTH",
"234 517 OFFCURVE",
"177 488 OFFCURVE",
"142 426 CURVE",
"140 426 LINE"
);
}
);
width = 556;
}
);
leftKerningGroup = h;
note = h;
rightKerningGroup = h;
unicode = 0068;
},
{
glyphname = i;
lastChange = "2020-10-05 17:32:20 +0000";
layers = (
{
hints = (
{
horizontal = 1;
place = "{0, 21}";
target = up;
type = BottomGhost;
},
{
horizontal = 1;
place = "{502, -20}";
target = down;
type = TopGhost;
},
{
horizontal = 1;
place = "{647, 75}";
type = Stem;
},
{
place = "{81, 60}";
type = Stem;
}
);
layerId = "324B6D7A-1AE4-424F-A6A7-4FAAB53DF00B";
paths = (
{
closed = 1;
nodes = (
"81 502 LINE",
"81 0 LINE",
"141 0 LINE",
"141 502 LINE"
);
},
{
closed = 1;
nodes = (
"146 722 LINE",
"76 722 LINE",
"76 647 LINE",
"146 647 LINE"
);
}
);
width = 222;
}
);
leftKerningGroup = i;
note = i;
unicode = 0069;
},
{
glyphname = j;
lastChange = "2020-10-05 17:32:20 +0000";
layers = (
{
hints = (
{
horizontal = 1;
place = "{-192, 55}";
type = Stem;
},
{
horizontal = 1;
place = "{502, -20}";
target = down;
type = TopGhost;
},
{
horizontal = 1;
place = "{647, 75}";
type = Stem;
},
{
place = "{81, 60}";
type = Stem;
}
);
layerId = "324B6D7A-1AE4-424F-A6A7-4FAAB53DF00B";
paths = (
{
closed = 1;
nodes = (
"3 -192 LINE",
"138 -196 OFFCURVE",
"141 -151 OFFCURVE",
"141 -22 CURVE SMOOTH",
"141 502 LINE",
"81 502 LINE",
"81 17 LINE SMOOTH",
"81 -114 OFFCURVE",
"91 -138 OFFCURVE",
"3 -137 CURVE"
);
},
{
closed = 1;
nodes = (
"146 722 LINE",
"76 722 LINE",
"76 647 LINE",
"146 647 LINE"
);
}
);
width = 222;
}
);
leftKerningGroup = j;
note = j;
unicode = 006A;
},
{
glyphname = k;
lastChange = "2020-10-05 17:32:20 +0000";
layers = (
{
hints = (
{
horizontal = 1;
place = "{0, 21}";
target = up;
type = BottomGhost;
},
{
horizontal = 1;
place = "{502, -20}";
target = down;
type = TopGhost;
},
{
horizontal = 1;
place = "{722, -20}";
target = down;
type = TopGhost;
},
{
place = "{86, 60}";
type = Stem;
}
);
layerId = "324B6D7A-1AE4-424F-A6A7-4FAAB53DF00B";
paths = (
{
closed = 1;
nodes = (
"146 722 LINE",
"86 722 LINE",
"86 0 LINE",
"146 0 LINE",
"146 272 LINE",
"410 0 LINE",
"486 0 LINE",
"212 285 LINE",
"466 502 LINE",
"389 502 LINE",
"146 297 LINE"
);
}
);
width = 500;
}
);
leftKerningGroup = k;
note = k;
rightKerningGroup = k;
unicode = 006B;
},
{
glyphname = l;
lastChange = "2020-10-05 17:32:20 +0000";
layers = (
{
hints = (
{
horizontal = 1;
place = "{0, 21}";
target = up;
type = BottomGhost;
},
{
horizontal = 1;
place = "{722, -20}";
target = down;
type = TopGhost;
},
{
place = "{81, 60}";
type = Stem;
}
);
layerId = "324B6D7A-1AE4-424F-A6A7-4FAAB53DF00B";
paths = (
{
closed = 1;
nodes = (
"141 722 LINE",
"81 722 LINE",
"81 0 LINE",
"141 0 LINE"
);
}
);
width = 222;
}
);
leftKerningGroup = l;
note = l;
rightKerningGroup = l;
unicode = 006C;
},
{
glyphname = m;
lastChange = "2020-10-05 17:32:20 +0000";
layers = (
{
hints = (
{
horizontal = 1;
place = "{0, 21}";
target = up;
type = BottomGhost;
},
{
horizontal = 1;
place = "{462, 40}";
type = Stem;
},
{
horizontal = 1;
place = "{462, 55}";
type = Stem;
}
);
layerId = "324B6D7A-1AE4-424F-A6A7-4FAAB53DF00B";
paths = (
{
closed = 1;
nodes = (
"136 502 LINE",
"74 502 LINE",
"76 468 OFFCURVE",
"79 428 OFFCURVE",
"79 389 CURVE SMOOTH",
"79 0 LINE",
"139 0 LINE",
"139 289 LINE SMOOTH",
"139 379 OFFCURVE",
"184 462 OFFCURVE",
"283 462 CURVE SMOOTH",
"365 462 OFFCURVE",
"415 411 OFFCURVE",
"415 324 CURVE SMOOTH",
"415 0 LINE",
"475 0 LINE",
"475 289 LINE SMOOTH",
"475 379 OFFCURVE",
"520 462 OFFCURVE",
"619 462 CURVE SMOOTH",
"701 462 OFFCURVE",
"751 411 OFFCURVE",
"751 324 CURVE SMOOTH",
"751 0 LINE",
"811 0 LINE",
"811 314 LINE SMOOTH",
"811 372 OFFCURVE",
"798 517 OFFCURVE",
"634 517 CURVE SMOOTH",
"556 517 OFFCURVE",
"498 466 OFFCURVE",
"461 407 CURVE",
"439 473 OFFCURVE",
"377 517 OFFCURVE",
"298 517 CURVE SMOOTH",
"233 517 OFFCURVE",
"176 488 OFFCURVE",
"141 426 CURVE",
"139 428 LINE"
);
}
);
width = 889;
}
);
note = m;
rightKerningGroup = m;
unicode = 006D;
},
{
glyphname = n;
lastChange = "2020-10-05 17:32:20 +0000";
layers = (
{
hints = (
{
horizontal = 1;
place = "{0, 21}";
target = up;
type = BottomGhost;
},
{
horizontal = 1;
place = "{462, 55}";
type = Stem;
},
{
place = "{80, 60}";
type = Stem;
},
{
place = "{416, 60}";
type = Stem;
},
{
horizontal = 1;
place = "{462, 40}";
type = Stem;
}
);
layerId = "324B6D7A-1AE4-424F-A6A7-4FAAB53DF00B";
paths = (
{
closed = 1;
nodes = (
"140 289 LINE SMOOTH",
"140 379 OFFCURVE",
"185 462 OFFCURVE",
"284 462 CURVE SMOOTH",
"366 462 OFFCURVE",
"416 411 OFFCURVE",
"416 324 CURVE SMOOTH",
"416 0 LINE",
"476 0 LINE",
"476 314 LINE SMOOTH",
"476 372 OFFCURVE",
"463 517 OFFCURVE",
"299 517 CURVE SMOOTH",
"234 517 OFFCURVE",
"177 488 OFFCURVE",
"142 426 CURVE",
"140 428 LINE",
"137 502 LINE",
"75 502 LINE",
"77 468 OFFCURVE",
"80 428 OFFCURVE",
"80 389 CURVE SMOOTH",
"80 0 LINE",
"140 0 LINE"
);
}
);
width = 556;
}
);
note = n;
rightKerningGroup = n;
unicode = 006E;
},
{
glyphname = o;
lastChange = "2020-10-05 17:32:20 +0000";
layers = (
{
hints = (
{
horizontal = 1;
place = "{-15, 55}";
type = Stem;
},
{
horizontal = 1;
place = "{462, 55}";
type = Stem;
},
{
place = "{44, 65}";
type = Stem;
},
{
place = "{447, 65}";
type = Stem;
}
);
layerId = "324B6D7A-1AE4-424F-A6A7-4FAAB53DF00B";
paths = (
{
closed = 1;
nodes = (
"447 158 OFFCURVE",
"399 40 OFFCURVE",
"278 40 CURVE SMOOTH",
"157 40 OFFCURVE",
"109 158 OFFCURVE",
"109 251 CURVE SMOOTH",
"109 344 OFFCURVE",
"157 462 OFFCURVE",
"278 462 CURVE SMOOTH",
"399 462 OFFCURVE",
"447 344 OFFCURVE",
"447 251 CURVE SMOOTH"
);
},
{
closed = 1;
nodes = (
"118 517 OFFCURVE",
"44 383 OFFCURVE",
"44 251 CURVE SMOOTH",
"44 119 OFFCURVE",
"118 -15 OFFCURVE",
"278 -15 CURVE SMOOTH",
"438 -15 OFFCURVE",
"512 119 OFFCURVE",
"512 251 CURVE SMOOTH",
"512 383 OFFCURVE",
"438 517 OFFCURVE",
"278 517 CURVE SMOOTH"
);
}
);
width = 556;
}
);
leftKerningGroup = o;
note = o;
rightKerningGroup = o;
unicode = 006F;
},
{
glyphname = p;
lastChange = "2020-10-05 17:32:20 +0000";
layers = (
{
hints = (
{
horizontal = 1;
place = "{-15, 55}";
type = Stem;
},
{
horizontal = 1;
place = "{462, 55}";
type = Stem;
},
{
place = "{70, 60}";
type = Stem;
},
{
place = "{445, 65}";
type = Stem;
},
{
horizontal = 1;
place = "{-192, 232}";
type = Stem;
},
{
horizontal = 1;
place = "{462, 40}";
type = Stem;
}
);
layerId = "324B6D7A-1AE4-424F-A6A7-4FAAB53DF00B";
paths = (
{
closed = 1;
nodes = (
"130 365 OFFCURVE",
"175 462 OFFCURVE",
"292 462 CURVE SMOOTH",
"406 462 OFFCURVE",
"445 356 OFFCURVE",
"445 260 CURVE SMOOTH",
"445 167 OFFCURVE",
"416 40 OFFCURVE",
"301 40 CURVE SMOOTH",
"170 40 OFFCURVE",
"130 149 OFFCURVE",
"130 263 CURVE SMOOTH"
);
},
{
closed = 1;
nodes = (
"130 78 LINE",
"132 78 LINE",
"173 18 OFFCURVE",
"234 -15 OFFCURVE",
"307 -15 CURVE SMOOTH",
"453 -15 OFFCURVE",
"510 127 OFFCURVE",
"510 253 CURVE SMOOTH",
"510 383 OFFCURVE",
"453 517 OFFCURVE",
"304 517 CURVE SMOOTH",
"237 517 OFFCURVE",
"167 485 OFFCURVE",
"132 426 CURVE",
"130 428 LINE",
"127 502 LINE",
"65 502 LINE",
"67 468 OFFCURVE",
"71 428 OFFCURVE",
"70 389 CURVE SMOOTH",
"70 -192 LINE",
"130 -192 LINE"
);
}
);
width = 556;
}
);
leftKerningGroup = p;
note = p;
rightKerningGroup = p;
unicode = 0070;
},
{
glyphname = q;
lastChange = "2020-10-05 17:32:20 +0000";
layers = (
{
hints = (
{
horizontal = 1;
place = "{-15, 55}";
type = Stem;
},
{
horizontal = 1;
place = "{462, 55}";
type = Stem;
},
{
place = "{46, 65}";
type = Stem;
},
{
place = "{426, 60}";
type = Stem;
},
{
horizontal = 1;
place = "{-191, 231}";
type = Stem;
},
{
horizontal = 1;
place = "{462, 40}";
type = Stem;
}
);
layerId = "324B6D7A-1AE4-424F-A6A7-4FAAB53DF00B";
paths = (
{
closed = 1;
nodes = (
"426 149 OFFCURVE",
"386 40 OFFCURVE",
"255 40 CURVE SMOOTH",
"140 40 OFFCURVE",
"111 167 OFFCURVE",
"111 260 CURVE SMOOTH",
"111 356 OFFCURVE",
"150 462 OFFCURVE",
"264 462 CURVE SMOOTH",
"381 462 OFFCURVE",
"426 365 OFFCURVE",
"426 263 CURVE SMOOTH"
);
},
{
closed = 1;
nodes = (
"426 428 LINE",
"426 425 LINE",
"424 425 LINE",
"424 428 LINE",
"389 485 OFFCURVE",
"319 517 OFFCURVE",
"252 517 CURVE SMOOTH",
"103 517 OFFCURVE",
"46 383 OFFCURVE",
"46 253 CURVE SMOOTH",
"46 127 OFFCURVE",
"103 -15 OFFCURVE",
"249 -15 CURVE SMOOTH",
"322 -15 OFFCURVE",
"383 18 OFFCURVE",
"424 78 CURVE",
"426 78 LINE",
"426 -191 LINE",
"486 -191 LINE",
"486 389 LINE SMOOTH",
"486 428 OFFCURVE",
"489 468 OFFCURVE",
"491 502 CURVE",
"429 502 LINE"
);
}
);
width = 556;
}
);
leftKerningGroup = q;
note = q;
unicode = 0071;
},
{
glyphname = r;
lastChange = "2020-10-05 17:32:20 +0000";
layers = (
{
hints = (
{
horizontal = 1;
place = "{0, 21}";
target = up;
type = BottomGhost;
},
{
horizontal = 1;
place = "{462, 55}";
type = Stem;
},
{
place = "{80, 60}";
type = Stem;
},
{
horizontal = 1;
place = "{462, 40}";
type = Stem;
}
);
layerId = "324B6D7A-1AE4-424F-A6A7-4FAAB53DF00B";
paths = (
{
closed = 1;
nodes = (
"140 302 LINE SMOOTH",
"142 398 OFFCURVE",
"189 462 OFFCURVE",
"278 462 CURVE SMOOTH",
"290 462 OFFCURVE",
"303 459 OFFCURVE",
"315 458 CURVE",
"315 516 LINE",
"295 517 OFFCURVE",
"275 518 OFFCURVE",
"255 517 CURVE SMOOTH",
"205 515 OFFCURVE",
"160 479 OFFCURVE",
"142 428 CURVE",
"140 428 LINE",
"137 502 LINE",
"75 502 LINE",
"77 468 OFFCURVE",
"81 428 OFFCURVE",
"80 389 CURVE SMOOTH",
"80 0 LINE",
"140 0 LINE"
);
}
);
width = 333;
}
);
leftKerningGroup = r;
note = r;
rightKerningGroup = r;
unicode = 0072;
},
{
glyphname = s;
lastChange = "2020-10-05 17:32:20 +0000";
layers = (
{
hints = (
{
horizontal = 1;
place = "{-15, 55}";
type = Stem;
},
{
horizontal = 1;
place = "{378, 139}";
type = Stem;
},
{
place = "{63, 65}";
type = Stem;
},
{
place = "{381, 65}";
type = Stem;
},
{
horizontal = 1;
place = "{-15, 152}";
type = Stem;
},
{
place = "{46, 65}";
type = Stem;
},
{
horizontal = 1;
place = "{462, 55}";
type = Stem;
}
);
layerId = "324B6D7A-1AE4-424F-A6A7-4FAAB53DF00B";
paths = (
{
closed = 1;
nodes = (
"63 284 OFFCURVE",
"143 261 OFFCURVE",
"222 242 CURVE SMOOTH",
"302 224 OFFCURVE",
"381 212 OFFCURVE",
"381 140 CURVE SMOOTH",
"381 70 OFFCURVE",
"314 40 OFFCURVE",
"250 40 CURVE SMOOTH",
"182 40 OFFCURVE",
"116 62 OFFCURVE",
"111 137 CURVE",
"46 137 LINE",
"48 26 OFFCURVE",
"148 -15 OFFCURVE",
"235 -15 CURVE SMOOTH",
"341 -15 OFFCURVE",
"446 36 OFFCURVE",
"446 149 CURVE SMOOTH",
"446 203 OFFCURVE",
"413 248 OFFCURVE",
"361 266 CURVE SMOOTH",
"225 314 OFFCURVE",
"128 307 OFFCURVE",
"128 381 CURVE SMOOTH",
"128 440 OFFCURVE",
"185 462 OFFCURVE",
"241 462 CURVE SMOOTH",
"303 462 OFFCURVE",
"359 441 OFFCURVE",
"365 378 CURVE",
"430 378 LINE",
"422 484 OFFCURVE",
"342 517 OFFCURVE",
"247 517 CURVE SMOOTH",
"159 517 OFFCURVE",
"63 481 OFFCURVE",
"63 377 CURVE SMOOTH"
);
}
);
width = 500;
}
);
leftKerningGroup = s;
note = s;
rightKerningGroup = s;
unicode = 0073;
},
{
glyphname = t;
lastChange = "2020-10-05 17:32:20 +0000";
layers = (
{
hints = (
{
horizontal = 1;
place = "{-15, 55}";
type = Stem;
},
{
horizontal = 1;
place = "{447, 55}";
type = Stem;
},
{
horizontal = 1;
place = "{635, -20}";
target = down;
type = TopGhost;
},
{
place = "{123, 60}";
type = Stem;
}
);
layerId = "324B6D7A-1AE4-424F-A6A7-4FAAB53DF00B";
paths = (
{
closed = 1;
nodes = (
"123 134 LINE SMOOTH",
"123 66 OFFCURVE",
"116 -15 OFFCURVE",
"243 -15 CURVE SMOOTH",
"263 -15 OFFCURVE",
"285 -11 OFFCURVE",
"304 -6 CURVE",
"304 46 LINE",
"288 41 OFFCURVE",
"270 40 OFFCURVE",
"252 40 CURVE SMOOTH",
"206 40 OFFCURVE",
"182 65 OFFCURVE",
"183 111 CURVE SMOOTH",
"183 447 LINE",
"297 447 LINE",
"297 502 LINE",
"183 502 LINE",
"183 635 LINE",
"123 609 LINE",
"123 502 LINE",
"23 502 LINE",
"23 447 LINE",
"123 447 LINE"
);
}
);
width = 333;
}
);
leftKerningGroup = t;
note = t;
rightKerningGroup = t;
unicode = 0074;
},
{
glyphname = u;
lastChange = "2020-10-05 17:32:20 +0000";
layers = (
{
hints = (
{
horizontal = 1;
place = "{-15, 55}";
type = Stem;
},
{
horizontal = 1;
place = "{502, -20}";
target = down;
type = TopGhost;
},
{
place = "{80, 60}";
type = Stem;
},
{
place = "{416, 60}";
type = Stem;
},
{
horizontal = 1;
place = "{0, 40}";
type = Stem;
}
);
layerId = "324B6D7A-1AE4-424F-A6A7-4FAAB53DF00B";
paths = (
{
closed = 1;
nodes = (
"416 213 LINE SMOOTH",
"416 123 OFFCURVE",
"371 40 OFFCURVE",
"272 40 CURVE SMOOTH",
"190 40 OFFCURVE",
"140 91 OFFCURVE",
"140 178 CURVE SMOOTH",
"140 502 LINE",
"80 502 LINE",
"80 188 LINE SMOOTH",
"80 130 OFFCURVE",
"93 -15 OFFCURVE",
"257 -15 CURVE SMOOTH",
"322 -15 OFFCURVE",
"379 14 OFFCURVE",
"414 76 CURVE",
"416 74 LINE",
"419 0 LINE",
"481 0 LINE",
"479 34 OFFCURVE",
"476 74 OFFCURVE",
"476 113 CURVE SMOOTH",
"476 502 LINE",
"416 502 LINE"
);
}
);
width = 556;
}
);
leftKerningGroup = u;
note = u;
rightKerningGroup = u;
unicode = 0075;
},
{
glyphname = v;
lastChange = "2020-10-05 17:32:20 +0000";
layers = (
{
hints = (
{
horizontal = 1;
place = "{0, 21}";
target = up;
type = BottomGhost;
},
{
horizontal = 1;
place = "{502, -20}";
target = down;
type = TopGhost;
}
);
layerId = "324B6D7A-1AE4-424F-A6A7-4FAAB53DF00B";
paths = (
{
closed = 1;
nodes = (
"14 502 LINE",
"219 0 LINE",
"287 0 LINE",
"486 502 LINE",
"420 502 LINE",
"253 83 LINE",
"80 502 LINE"
);
}
);
width = 500;
}
);
leftKerningGroup = v;
note = v;
rightKerningGroup = v;
unicode = 0076;
},
{
glyphname = w;
lastChange = "2020-10-05 17:32:20 +0000";
layers = (
{
hints = (
{
horizontal = 1;
place = "{0, 21}";
target = up;
type = BottomGhost;
},
{
horizontal = 1;
place = "{502, -20}";
target = down;
type = TopGhost;
}
);
layerId = "324B6D7A-1AE4-424F-A6A7-4FAAB53DF00B";
paths = (
{
closed = 1;
nodes = (
"82 502 LINE",
"16 502 LINE",
"200 0 LINE",
"261 0 LINE",
"418 433 LINE",
"420 433 LINE",
"574 0 LINE",
"631 0 LINE",
"818 502 LINE",
"752 502 LINE",
"607 83 LINE",
"605 83 LINE",
"457 502 LINE",
"386 502 LINE",
"234 79 LINE",
"232 79 LINE"
);
}
);
width = 833;
}
);
leftKerningGroup = w;
note = w;
rightKerningGroup = w;
unicode = 0077;
},
{
glyphname = x;
lastChange = "2020-10-05 17:32:20 +0000";
layers = (
{
hints = (
{
horizontal = 1;
place = "{0, 21}";
target = up;
type = BottomGhost;
},
{
horizontal = 1;
place = "{502, -20}";
target = down;
type = TopGhost;
}
);
layerId = "324B6D7A-1AE4-424F-A6A7-4FAAB53DF00B";
paths = (
{
closed = 1;
nodes = (
"253 300 LINE",
"106 502 LINE",
"26 502 LINE",
"211 257 LINE",
"19 2 LINE",
"17 0 LINE",
"85 0 LINE",
"243 218 LINE",
"404 0 LINE",
"483 0 LINE",
"287 259 LINE",
"467 502 LINE",
"404 502 LINE"
);
}
);
width = 500;
}
);
leftKerningGroup = x;
note = x;
rightKerningGroup = x;
unicode = 0078;
},
{
glyphname = y;
lastChange = "2020-10-05 17:32:20 +0000";
layers = (
{
hints = (
{
horizontal = 1;
place = "{-192, 21}";
target = up;
type = BottomGhost;
},
{
horizontal = 1;
place = "{502, -20}";
target = down;
type = TopGhost;
}
);
layerId = "324B6D7A-1AE4-424F-A6A7-4FAAB53DF00B";
paths = (
{
closed = 1;
nodes = (
"8 502 LINE",
"216 0 LINE",
"140 -192 LINE",
"206 -192 LINE",
"483 502 LINE",
"418 502 LINE",
"250 82 LINE",
"81 502 LINE"
);
}
);
width = 500;
}
);
leftKerningGroup = y;
note = y;
rightKerningGroup = y;
unicode = 0079;
},
{
glyphname = z;
lastChange = "2020-10-05 17:32:20 +0000";
layers = (
{
hints = (
{
horizontal = 1;
place = "{0, 55}";
type = Stem;
},
{
horizontal = 1;
place = "{447, 55}";
type = Stem;
}
);
layerId = "324B6D7A-1AE4-424F-A6A7-4FAAB53DF00B";
paths = (
{
closed = 1;
nodes = (
"40 0 LINE",
"404 0 LINE",
"404 55 LINE",
"113 55 LINE",
"404 447 LINE",
"404 502 LINE",
"40 502 LINE",
"40 447 LINE",
"333 447 LINE",
"40 55 LINE"
);
}
);
width = 444;
}
);
note = z;
rightKerningGroup = z;
unicode = 007A;
},
{
glyphname = braceleft;
lastChange = "2020-10-05 17:32:20 +0000";
layers = (
{
hints = (
{
horizontal = 1;
place = "{-96, 21}";
target = up;
type = BottomGhost;
},
{
horizontal = 1;
place = "{722, -20}";
target = down;
type = TopGhost;
},
{
place = "{110, 138}";
type = Stem;
},
{
place = "{110, 65}";
type = Stem;
}
);
layerId = "324B6D7A-1AE4-424F-A6A7-4FAAB53DF00B";
paths = (
{
closed = 1;
nodes = (
"248 -46 LINE",
"215 -46 LINE",
"189 -40 OFFCURVE",
"175 -18 OFFCURVE",
"175 29 CURVE SMOOTH",
"175 171 LINE SMOOTH",
"176 266 OFFCURVE",
"118 306 OFFCURVE",
"110 312 CURVE",
"118 319 OFFCURVE",
"176 359 OFFCURVE",
"175 454 CURVE",
"175 597 LINE SMOOTH",
"175 644 OFFCURVE",
"189 666 OFFCURVE",
"215 672 CURVE",
"248 672 LINE",
"248 722 LINE",
"198 722 LINE",
"158 718 OFFCURVE",
"110 679 OFFCURVE",
"110 613 CURVE SMOOTH",
"110 469 LINE SMOOTH",
"110 395 OFFCURVE",
"100 346 OFFCURVE",
"38 339 CURVE",
"38 284 LINE",
"100 277 OFFCURVE",
"110 229 OFFCURVE",
"110 156 CURVE SMOOTH",
"110 13 LINE SMOOTH",
"110 -53 OFFCURVE",
"158 -92 OFFCURVE",
"198 -96 CURVE",
"248 -96 LINE"
);
}
);
width = 278;
}
);
note = braceleft;
unicode = 007B;
},
{
glyphname = bar;
lastChange = "2020-10-05 17:32:20 +0000";
layers = (
{
hints = (
{
horizontal = 1;
place = "{-250, 21}";
target = up;
type = BottomGhost;
},
{
horizontal = 1;
place = "{750, -20}";
target = down;
type = TopGhost;
},
{
place = "{81, 60}";
type = Stem;
}
);
layerId = "324B6D7A-1AE4-424F-A6A7-4FAAB53DF00B";
paths = (
{
closed = 1;
nodes = (
"81 -250 LINE",
"141 -250 LINE",
"141 750 LINE",
"81 750 LINE"
);
}
);
width = 222;
}
);
note = bar;
unicode = 007C;
},
{
glyphname = braceright;
lastChange = "2020-10-05 17:32:20 +0000";
layers = (
{
hints = (
{
horizontal = 1;
place = "{-96, 21}";
target = up;
type = BottomGhost;
},
{
horizontal = 1;
place = "{722, -20}";
target = down;
type = TopGhost;
},
{
place = "{30, 138}";
type = Stem;
},
{
place = "{103, 65}";
type = Stem;
}
);
layerId = "324B6D7A-1AE4-424F-A6A7-4FAAB53DF00B";
paths = (
{
closed = 1;
nodes = (
"30 672 LINE",
"63 672 LINE",
"89 666 OFFCURVE",
"103 644 OFFCURVE",
"103 597 CURVE SMOOTH",
"103 455 LINE SMOOTH",
"102 360 OFFCURVE",
"160 320 OFFCURVE",
"168 314 CURVE",
"160 307 OFFCURVE",
"102 267 OFFCURVE",
"103 172 CURVE SMOOTH",
"103 29 LINE SMOOTH",
"103 -18 OFFCURVE",
"89 -40 OFFCURVE",
"63 -46 CURVE",
"30 -46 LINE",
"30 -96 LINE",
"80 -96 LINE",
"120 -92 OFFCURVE",
"168 -53 OFFCURVE",
"168 13 CURVE SMOOTH",
"168 157 LINE SMOOTH",
"168 230 OFFCURVE",
"178 279 OFFCURVE",
"240 286 CURVE",
"240 341 LINE",
"178 348 OFFCURVE",
"168 396 OFFCURVE",
"168 470 CURVE SMOOTH",
"168 613 LINE SMOOTH",
"168 679 OFFCURVE",
"120 718 OFFCURVE",
"80 722 CURVE",
"30 722 LINE"
);
}
);
width = 278;
}
);
note = braceright;
unicode = 007D;
},
{
glyphname = asciitilde;
lastChange = "2020-10-05 17:32:20 +0000";
layers = (
{
hints = (
{
horizontal = 1;
place = "{169, 21}";
target = up;
type = BottomGhost;
},
{
horizontal = 1;
place = "{191, 56}";
type = Stem;
},
{
horizontal = 1;
place = "{264, 55}";
type = Stem;
},
{
horizontal = 1;
place = "{334, -20}";
target = down;
type = TopGhost;
}
);
layerId = "324B6D7A-1AE4-424F-A6A7-4FAAB53DF00B";
paths = (
{
closed = 1;
nodes = (
"150 319 OFFCURVE",
"109 259 OFFCURVE",
"80 216 CURVE",
"113 169 LINE",
"136 208 OFFCURVE",
"168 264 OFFCURVE",
"221 264 CURVE SMOOTH",
"250 264 OFFCURVE",
"279 244 OFFCURVE",
"305 233 CURVE SMOOTH",
"339 219 OFFCURVE",
"403 191 OFFCURVE",
"440 191 CURVE SMOOTH",
"507 191 OFFCURVE",
"552 246 OFFCURVE",
"580 300 CURVE",
"540 334 LINE",
"521 298 OFFCURVE",
"486 247 OFFCURVE",
"441 247 CURVE SMOOTH",
"415 247 OFFCURVE",
"378 265 OFFCURVE",
"338 283 CURVE SMOOTH",
"299 301 OFFCURVE",
"257 319 OFFCURVE",
"221 319 CURVE SMOOTH"
);
}
);
width = 660;
}
);
note = asciitilde;
unicode = 007E;
},
{
glyphname = Agrave;
lastChange = "2020-10-05 17:32:20 +0000";
layers = (
{
hints = (
{
horizontal = 1;
place = "{0, 21}";
target = up;
type = BottomGhost;
},
{
horizontal = 1;
place = "{195, 60}";
type = Stem;
},
{
horizontal = 1;
place = "{927, -20}";
target = down;
type = TopGhost;
}
);
layerId = "324B6D7A-1AE4-424F-A6A7-4FAAB53DF00B";
paths = (
{
closed = 1;
nodes = (
"173 255 LINE",
"332 662 LINE",
"488 255 LINE"
);
},
{
closed = 1;
nodes = (
"76 0 LINE",
"152 195 LINE",
"511 195 LINE",
"588 0 LINE",
"659 0 LINE",
"371 722 LINE",
"295 722 LINE",
"9 0 LINE"
);
},
{
closed = 1;
nodes = (
"215 927 LINE",
"342 784 LINE",
"386 784 LINE",
"295 927 LINE"
);
}
);
width = 667;
}
);
leftKerningGroup = A;
note = Agrave;
rightKerningGroup = A;
unicode = 00C0;
},
{
glyphname = Aacute;
lastChange = "2020-10-05 17:32:20 +0000";
layers = (
{
hints = (
{
horizontal = 1;
place = "{0, 21}";
target = up;
type = BottomGhost;
},
{
horizontal = 1;
place = "{195, 60}";
type = Stem;
},
{
horizontal = 1;
place = "{927, -20}";
target = down;
type = TopGhost;
}
);
layerId = "324B6D7A-1AE4-424F-A6A7-4FAAB53DF00B";
paths = (
{
closed = 1;
nodes = (
"173 255 LINE",
"332 662 LINE",
"488 255 LINE"
);
},
{
closed = 1;
nodes = (
"76 0 LINE",
"152 195 LINE",
"511 195 LINE",
"588 0 LINE",
"659 0 LINE",
"371 722 LINE",
"295 722 LINE",
"9 0 LINE"
);
},
{
closed = 1;
nodes = (
"373 927 LINE",
"282 784 LINE",
"326 784 LINE",
"453 927 LINE"
);
}
);
width = 667;
}
);
leftKerningGroup = A;
note = Aacute;
rightKerningGroup = A;
unicode = 00C1;
},
{
glyphname = Acircumflex;
lastChange = "2020-10-05 17:32:20 +0000";
layers = (
{
hints = (
{
horizontal = 1;
place = "{0, 21}";
target = up;
type = BottomGhost;
},
{
horizontal = 1;
place = "{195, 60}";
type = Stem;
},
{
horizontal = 1;
place = "{927, -20}";
target = down;
type = TopGhost;
}
);
layerId = "324B6D7A-1AE4-424F-A6A7-4FAAB53DF00B";
paths = (
{
closed = 1;
nodes = (
"173 255 LINE",
"332 662 LINE",
"488 255 LINE"
);
},
{
closed = 1;
nodes = (
"76 0 LINE",
"152 195 LINE",
"511 195 LINE",
"588 0 LINE",
"659 0 LINE",
"371 722 LINE",
"295 722 LINE",
"9 0 LINE"
);
},
{
closed = 1;
nodes = (
"198 782 LINE",
"244 782 LINE",
"334 888 LINE",
"423 782 LINE",
"470 782 LINE",
"371 927 LINE",
"298 927 LINE"
);
}
);
width = 667;
}
);
leftKerningGroup = A;
note = Acircumflex;
rightKerningGroup = A;
unicode = 00C2;
},
{
glyphname = Atilde;
lastChange = "2020-10-05 17:32:20 +0000";
layers = (
{
hints = (
{
horizontal = 1;
place = "{0, 21}";
target = up;
type = BottomGhost;
},
{
horizontal = 1;
place = "{195, 60}";
type = Stem;
},
{
horizontal = 1;
place = "{830, 52}";
type = Stem;
},
{
horizontal = 1;
place = "{915, -20}";
target = down;
type = TopGhost;
}
);
layerId = "324B6D7A-1AE4-424F-A6A7-4FAAB53DF00B";
paths = (
{
closed = 1;
nodes = (
"173 255 LINE",
"332 662 LINE",
"488 255 LINE"
);
},
{
closed = 1;
nodes = (
"76 0 LINE",
"152 195 LINE",
"511 195 LINE",
"588 0 LINE",
"659 0 LINE",
"371 722 LINE",
"295 722 LINE",
"9 0 LINE"
);
},
{
closed = 1;
nodes = (
"434 915 LINE",
"426 894 OFFCURVE",
"407 882 OFFCURVE",
"384 882 CURVE SMOOTH",
"376 882 OFFCURVE",
"360 887 OFFCURVE",
"345 891 CURVE",
"330 896 OFFCURVE",
"314 901 OFFCURVE",
"305 902 CURVE",
"246 911 OFFCURVE",
"209 877 OFFCURVE",
"197 822 CURVE",
"235 822 LINE",
"240 842 OFFCURVE",
"262 851 OFFCURVE",
"282 851 CURVE SMOOTH",
"303 851 OFFCURVE",
"321 846 OFFCURVE",
"336 841 CURVE",
"352 834 OFFCURVE",
"366 830 OFFCURVE",
"381 830 CURVE SMOOTH",
"432 830 OFFCURVE",
"461 870 OFFCURVE",
"472 915 CURVE"
);
}
);
width = 667;
}
);
leftKerningGroup = A;
note = Atilde;
rightKerningGroup = A;
unicode = 00C3;
},
{
glyphname = Adieresis;
lastChange = "2020-10-05 17:32:20 +0000";
layers = (
{
hints = (
{
horizontal = 1;
place = "{0, 21}";
target = up;
type = BottomGhost;
},
{
horizontal = 1;
place = "{195, 60}";
type = Stem;
},
{
horizontal = 1;
place = "{824, 88}";
type = Stem;
},
{
place = "{210, 74}";
type = Stem;
},
{
place = "{384, 74}";
type = Stem;
}
);
layerId = "324B6D7A-1AE4-424F-A6A7-4FAAB53DF00B";
paths = (
{
closed = 1;
nodes = (
"173 255 LINE",
"332 662 LINE",
"488 255 LINE"
);
},
{
closed = 1;
nodes = (
"76 0 LINE",
"152 195 LINE",
"511 195 LINE",
"588 0 LINE",
"659 0 LINE",
"371 722 LINE",
"295 722 LINE",
"9 0 LINE"
);
},
{
closed = 1;
nodes = (
"458 824 LINE",
"458 912 LINE",
"384 912 LINE",
"384 824 LINE"
);
},
{
closed = 1;
nodes = (
"284 824 LINE",
"284 912 LINE",
"210 912 LINE",
"210 824 LINE"
);
}
);
width = 667;
}
);
leftKerningGroup = A;
note = Adieresis;
rightKerningGroup = A;
unicode = 00C4;
},
{
glyphname = Amacron;
lastChange = "2020-10-05 17:32:20 +0000";
layers = (
{
hints = (
{
horizontal = 1;
place = "{0, 21}";
target = up;
type = BottomGhost;
},
{
horizontal = 1;
place = "{195, 60}";
type = Stem;
},
{
horizontal = 1;
place = "{722, -20}";
target = down;
type = TopGhost;
},
{
horizontal = 1;
place = "{843, 50}";
type = Stem;
}
);
layerId = "324B6D7A-1AE4-424F-A6A7-4FAAB53DF00B";
paths = (
{
closed = 1;
nodes = (
"173 255 LINE",
"332 662 LINE",
"488 255 LINE"
);
},
{
closed = 1;
nodes = (
"76 0 LINE",
"152 195 LINE",
"511 195 LINE",
"588 0 LINE",
"659 0 LINE",
"371 722 LINE",
"295 722 LINE",
"9 0 LINE"
);
},
{
closed = 1;
nodes = (
"455 843 LINE",
"455 893 LINE",
"210 893 LINE",
"210 843 LINE"
);
}
);
width = 667;
}
);
leftKerningGroup = A;
note = Amacron;
rightKerningGroup = A;
unicode = 0100;
},
{
glyphname = Abreve;
lastChange = "2020-10-05 17:32:20 +0000";
layers = (
{
hints = (
{
horizontal = 1;
place = "{0, 21}";
target = up;
type = BottomGhost;
},
{
horizontal = 1;
place = "{195, 60}";
type = Stem;
},
{
horizontal = 1;
place = "{722, -20}";
target = down;
type = TopGhost;
},
{
horizontal = 1;
place = "{829, 46}";
type = Stem;
},
{
horizontal = 1;
place = "{937, -20}";
target = down;
type = TopGhost;
},
{
place = "{209, 244}";
type = Stem;
}
);
layerId = "324B6D7A-1AE4-424F-A6A7-4FAAB53DF00B";
paths = (
{
closed = 1;
nodes = (
"173 255 LINE",
"332 662 LINE",
"488 255 LINE"
);
},
{
closed = 1;
nodes = (
"76 0 LINE",
"152 195 LINE",
"511 195 LINE",
"588 0 LINE",
"659 0 LINE",
"371 722 LINE",
"295 722 LINE",
"9 0 LINE"
);
},
{
closed = 1;
nodes = (
"432 937 LINE",
"419 889 OFFCURVE",
"367 875 OFFCURVE",
"328 875 CURVE SMOOTH",
"290 875 OFFCURVE",
"243 889 OFFCURVE",
"232 937 CURVE",
"209 937 LINE",
"210 864 OFFCURVE",
"263 829 OFFCURVE",
"328 829 CURVE SMOOTH",
"400 829 OFFCURVE",
"448 857 OFFCURVE",
"453 937 CURVE"
);
}
);
width = 667;
}
);
leftKerningGroup = A;
note = Abreve;
rightKerningGroup = A;
unicode = 0102;
},
{
glyphname = Aring;
lastChange = "2020-10-05 17:32:20 +0000";
layers = (
{
hints = (
{
horizontal = 1;
place = "{0, 21}";
target = up;
type = BottomGhost;
},
{
horizontal = 1;
place = "{195, 60}";
type = Stem;
},
{
horizontal = 1;
place = "{781, 33}";
type = Stem;
},
{
horizontal = 1;
place = "{924, 33}";
type = Stem;
},
{
place = "{246, 33}";
type = Stem;
},
{
place = "{389, 33}";
type = Stem;
}
);
layerId = "324B6D7A-1AE4-424F-A6A7-4FAAB53DF00B";
paths = (
{
closed = 1;
nodes = (
"173 255 LINE",
"332 662 LINE",
"488 255 LINE"
);
},
{
closed = 1;
nodes = (
"76 0 LINE",
"152 195 LINE",
"511 195 LINE",
"588 0 LINE",
"659 0 LINE",
"371 722 LINE",
"295 722 LINE",
"9 0 LINE"
);
},
{
closed = 1;
nodes = (
"246 821 OFFCURVE",
"286 781 OFFCURVE",
"334 781 CURVE SMOOTH",
"382 781 OFFCURVE",
"422 821 OFFCURVE",
"422 869 CURVE SMOOTH",
"422 917 OFFCURVE",
"382 957 OFFCURVE",
"334 957 CURVE SMOOTH",
"286 957 OFFCURVE",
"246 917 OFFCURVE",
"246 869 CURVE SMOOTH"
);
},
{
closed = 1;
nodes = (
"389 842 OFFCURVE",
"361 814 OFFCURVE",
"334 814 CURVE SMOOTH",
"306 814 OFFCURVE",
"279 842 OFFCURVE",
"279 869 CURVE SMOOTH",
"279 898 OFFCURVE",
"306 924 OFFCURVE",
"334 924 CURVE SMOOTH",
"362 924 OFFCURVE",
"389 897 OFFCURVE",
"389 869 CURVE SMOOTH"
);
}
);
width = 667;
}
);
leftKerningGroup = A;
note = Aring;
rightKerningGroup = A;
unicode = 00C5;
},
{
glyphname = Aringacute;
lastChange = "2020-10-05 17:32:20 +0000";
layers = (
{
hints = (
{
horizontal = 1;
place = "{0, 21}";
target = up;
type = BottomGhost;
},
{
horizontal = 1;
place = "{195, 60}";
type = Stem;
},
{
horizontal = 1;
place = "{820, 37}";
type = Stem;
},
{
horizontal = 1;
place = "{1011, -20}";
target = down;
type = TopGhost;
},
{
place = "{241, 36}";
type = Stem;
},
{
place = "{389, 37}";
type = Stem;
}
);
layerId = "324B6D7A-1AE4-424F-A6A7-4FAAB53DF00B";
paths = (
{
closed = 1;
nodes = (
"241 733 OFFCURVE",
"256 705 OFFCURVE",
"280 688 CURVE",
"9 0 LINE",
"76 0 LINE",
"152 195 LINE",
"511 195 LINE",
"588 0 LINE",
"659 0 LINE",
"386 689 LINE",
"410 706 OFFCURVE",
"426 733 OFFCURVE",
"426 764 CURVE SMOOTH",
"426 815 OFFCURVE",
"384 857 OFFCURVE",
"333 857 CURVE SMOOTH",
"283 857 OFFCURVE",
"241 815 OFFCURVE",
"241 764 CURVE SMOOTH"
);
},
{
closed = 1;
nodes = (
"173 255 LINE",
"332 662 LINE",
"488 255 LINE"
);
},
{
closed = 1;
nodes = (
"389 733 OFFCURVE",
"364 708 OFFCURVE",
"333 708 CURVE SMOOTH",
"302 708 OFFCURVE",
"277 733 OFFCURVE",
"277 764 CURVE SMOOTH",
"277 795 OFFCURVE",
"302 820 OFFCURVE",
"333 820 CURVE SMOOTH",
"364 820 OFFCURVE",
"389 795 OFFCURVE",
"389 764 CURVE SMOOTH"
);
},
{
closed = 1;
nodes = (
"402 1011 LINE",
"296 879 LINE",
"340 874 LINE",
"481 1003 LINE"
);
}
);
width = 667;
}
);
leftKerningGroup = A;
note = Aringacute;
rightKerningGroup = A;
unicode = 01FA;
},
{
glyphname = Aogonek;
lastChange = "2020-10-05 17:32:20 +0000";
layers = (
{
hints = (
{
horizontal = 1;
place = "{-182, 37}";
type = Stem;
},
{
horizontal = 1;
place = "{0, 21}";
target = up;
type = BottomGhost;
},
{
horizontal = 1;
place = "{195, 60}";
type = Stem;
},
{
horizontal = 1;
place = "{722, -20}";
target = down;
type = TopGhost;
},
{
place = "{495, 46}";
type = Stem;
}
);
layerId = "324B6D7A-1AE4-424F-A6A7-4FAAB53DF00B";
paths = (
{
closed = 1;
nodes = (
"652 -134 LINE",
"631 -141 OFFCURVE",
"615 -145 OFFCURVE",
"591 -145 CURVE SMOOTH",
"571 -145 OFFCURVE",
"541 -139 OFFCURVE",
"541 -103 CURVE SMOOTH",
"541 -60 OFFCURVE",
"574 -36 OFFCURVE",
"631 0 CURVE",
"659 0 LINE",
"371 722 LINE",
"295 722 LINE",
"9 0 LINE",
"76 0 LINE",
"152 195 LINE",
"511 195 LINE",
"588 0 LINE",
"591 0 LINE",
"548 -19 OFFCURVE",
"495 -51 OFFCURVE",
"495 -108 CURVE SMOOTH",
"495 -168 OFFCURVE",
"547 -182 OFFCURVE",
"583 -182 CURVE SMOOTH",
"610 -182 OFFCURVE",
"633 -175 OFFCURVE",
"652 -168 CURVE"
);
},
{
closed = 1;
nodes = (
"173 255 LINE",
"332 662 LINE",
"488 255 LINE"
);
}
);
width = 667;
}
);
leftKerningGroup = A;
note = Aogonek;
rightKerningGroup = A;
unicode = 0104;
},
{
glyphname = AE;
lastChange = "2020-10-05 17:32:20 +0000";
layers = (
{
hints = (
{
horizontal = 1;
place = "{0, 60}";
type = Stem;
},
{
horizontal = 1;
place = "{196, 60}";
type = Stem;
},
{
horizontal = 1;
place = "{343, 60}";
type = Stem;
},
{
horizontal = 1;
place = "{662, 60}";
type = Stem;
}
);
layerId = "324B6D7A-1AE4-424F-A6A7-4FAAB53DF00B";
paths = (
{
closed = 1;
nodes = (
"426 722 LINE",
"8 0 LINE",
"80 0 LINE",
"194 196 LINE",
"544 196 LINE",
"578 0 LINE",
"934 0 LINE",
"934 60 LINE",
"635 60 LINE",
"588 343 LINE",
"907 343 LINE",
"907 403 LINE",
"579 403 LINE",
"536 662 LINE",
"925 662 LINE",
"925 722 LINE"
);
},
{
closed = 1;
nodes = (
"465 662 LINE",
"467 662 LINE",
"536 256 LINE",
"228 256 LINE"
);
}
);
width = 1000;
}
);
leftKerningGroup = A;
note = AE;
rightKerningGroup = E;
unicode = 00C6;
},
{
glyphname = AEacute;
lastChange = "2020-10-05 17:32:20 +0000";
layers = (
{
hints = (
{
horizontal = 1;
place = "{0, 60}";
type = Stem;
},
{
horizontal = 1;
place = "{196, 60}";
type = Stem;
},
{
horizontal = 1;
place = "{343, 60}";
type = Stem;
},
{
horizontal = 1;
place = "{662, 60}";
type = Stem;
},
{
horizontal = 1;
place = "{780, 21}";
target = up;
type = BottomGhost;
},
{
horizontal = 1;
place = "{923, -20}";
target = down;
type = TopGhost;
}
);
layerId = "324B6D7A-1AE4-424F-A6A7-4FAAB53DF00B";
paths = (
{
closed = 1;
nodes = (
"426 722 LINE",
"8 0 LINE",
"80 0 LINE",
"194 196 LINE",
"544 196 LINE",
"578 0 LINE",
"934 0 LINE",
"934 60 LINE",
"635 60 LINE",
"588 343 LINE",
"907 343 LINE",
"907 403 LINE",
"579 403 LINE",
"536 662 LINE",
"925 662 LINE",
"925 722 LINE"
);
},
{
closed = 1;
nodes = (
"465 662 LINE",
"467 662 LINE",
"536 256 LINE",
"228 256 LINE"
);
},
{
closed = 1;
nodes = (
"635 923 LINE",
"544 780 LINE",
"588 780 LINE",
"715 923 LINE"
);
}
);
width = 1000;
}
);
leftKerningGroup = A;
note = AEacute;
unicode = 01FC;
},
{
glyphname = Cacute;
lastChange = "2020-10-05 17:32:20 +0000";
layers = (
{
hints = (
{
horizontal = 1;
place = "{-15, 190}";
type = Stem;
},
{
horizontal = 1;
place = "{677, 60}";
type = Stem;
},
{
place = "{61, 70}";
type = Stem;
},
{
horizontal = 1;
place = "{-15, 60}";
type = Stem;
},
{
horizontal = 1;
place = "{553, 184}";
type = Stem;
},
{
horizontal = 1;
place = "{784, 21}";
target = up;
type = BottomGhost;
},
{
horizontal = 1;
place = "{927, -20}";
target = down;
type = TopGhost;
}
);
layerId = "324B6D7A-1AE4-424F-A6A7-4FAAB53DF00B";
paths = (
{
closed = 1;
nodes = (
"612 553 LINE",
"602 683 OFFCURVE",
"490 737 OFFCURVE",
"372 737 CURVE SMOOTH",
"154 737 OFFCURVE",
"61 559 OFFCURVE",
"61 361 CURVE SMOOTH",
"61 161 OFFCURVE",
"153 -15 OFFCURVE",
"372 -15 CURVE SMOOTH",
"488 -15 OFFCURVE",
"599 54 OFFCURVE",
"620 175 CURVE",
"550 175 LINE",
"532 85 OFFCURVE",
"452 45 OFFCURVE",
"372 45 CURVE SMOOTH",
"187 45 OFFCURVE",
"131 213 OFFCURVE",
"131 361 CURVE SMOOTH",
"131 509 OFFCURVE",
"187 677 OFFCURVE",
"372 677 CURVE SMOOTH",
"454 677 OFFCURVE",
"530 641 OFFCURVE",
"542 553 CURVE"
);
},
{
closed = 1;
nodes = (
"417 927 LINE",
"326 784 LINE",
"370 784 LINE",
"497 927 LINE"
);
}
);
width = 667;
}
);
leftKerningGroup = C;
note = Cacute;
rightKerningGroup = C;
unicode = 0106;
},
{
glyphname = Ccircumflex;
lastChange = "2020-10-05 17:32:20 +0000";
layers = (
{
hints = (
{
horizontal = 1;
place = "{-15, 190}";
type = Stem;
},
{
horizontal = 1;
place = "{677, 60}";
type = Stem;
},
{
place = "{61, 70}";
type = Stem;
},
{
horizontal = 1;
place = "{-15, 60}";
type = Stem;
},
{
horizontal = 1;
place = "{553, 184}";
type = Stem;
},
{
horizontal = 1;
place = "{782, 21}";
target = up;
type = BottomGhost;
},
{
horizontal = 1;
place = "{927, -20}";
target = down;
type = TopGhost;
}
);
layerId = "324B6D7A-1AE4-424F-A6A7-4FAAB53DF00B";
paths = (
{
closed = 1;
nodes = (
"612 553 LINE",
"602 683 OFFCURVE",
"490 737 OFFCURVE",
"372 737 CURVE SMOOTH",
"154 737 OFFCURVE",
"61 559 OFFCURVE",
"61 361 CURVE SMOOTH",
"61 161 OFFCURVE",
"153 -15 OFFCURVE",
"372 -15 CURVE SMOOTH",
"488 -15 OFFCURVE",
"599 54 OFFCURVE",
"620 175 CURVE",
"550 175 LINE",
"532 85 OFFCURVE",
"452 45 OFFCURVE",
"372 45 CURVE SMOOTH",
"187 45 OFFCURVE",
"131 213 OFFCURVE",
"131 361 CURVE SMOOTH",
"131 509 OFFCURVE",
"187 677 OFFCURVE",
"372 677 CURVE SMOOTH",
"454 677 OFFCURVE",
"530 641 OFFCURVE",
"542 553 CURVE"
);
},
{
closed = 1;
nodes = (
"228 782 LINE",
"274 782 LINE",
"364 888 LINE",
"453 782 LINE",
"500 782 LINE",
"401 927 LINE",
"328 927 LINE"
);
}
);
width = 667;
}
);
leftKerningGroup = C;
note = Ccircumflex;
rightKerningGroup = C;
unicode = 0108;
},
{
glyphname = Ccaron;
lastChange = "2020-10-05 17:32:20 +0000";
layers = (
{
hints = (
{
horizontal = 1;
place = "{-15, 190}";
type = Stem;
},
{
horizontal = 1;
place = "{677, 60}";
type = Stem;
},
{
place = "{61, 70}";
type = Stem;
},
{
horizontal = 1;
place = "{-15, 60}";
type = Stem;
},
{
horizontal = 1;
place = "{553, 184}";
type = Stem;
},
{
horizontal = 1;
place = "{782, 21}";
target = up;
type = BottomGhost;
},
{
horizontal = 1;
place = "{927, -20}";
target = down;
type = TopGhost;
}
);
layerId = "324B6D7A-1AE4-424F-A6A7-4FAAB53DF00B";
paths = (
{
closed = 1;
nodes = (
"612 553 LINE",
"602 683 OFFCURVE",
"490 737 OFFCURVE",
"372 737 CURVE SMOOTH",
"154 737 OFFCURVE",
"61 559 OFFCURVE",
"61 361 CURVE SMOOTH",
"61 161 OFFCURVE",
"153 -15 OFFCURVE",
"372 -15 CURVE SMOOTH",
"488 -15 OFFCURVE",
"599 54 OFFCURVE",
"620 175 CURVE",
"550 175 LINE",
"532 85 OFFCURVE",
"452 45 OFFCURVE",
"372 45 CURVE SMOOTH",
"187 45 OFFCURVE",
"131 213 OFFCURVE",
"131 361 CURVE SMOOTH",
"131 509 OFFCURVE",
"187 677 OFFCURVE",
"372 677 CURVE SMOOTH",
"454 677 OFFCURVE",
"530 641 OFFCURVE",
"542 553 CURVE"
);
},
{
closed = 1;
nodes = (
"501 927 LINE",
"455 927 LINE",
"365 821 LINE",
"276 927 LINE",
"229 927 LINE",
"328 782 LINE",
"401 782 LINE"
);
}
);
width = 667;
}
);
leftKerningGroup = C;
note = Ccaron;
rightKerningGroup = C;
unicode = 010C;
},
{
glyphname = Cdotaccent;
lastChange = "2020-10-05 17:32:20 +0000";
layers = (
{
hints = (
{
horizontal = 1;
place = "{-15, 190}";
type = Stem;
},
{
horizontal = 1;
place = "{677, 60}";
type = Stem;
},
{
place = "{61, 70}";
type = Stem;
},
{
horizontal = 1;
place = "{-15, 60}";
type = Stem;
},
{
horizontal = 1;
place = "{553, 184}";
type = Stem;
},
{
horizontal = 1;
place = "{839, 88}";
type = Stem;
},
{
place = "{327, 74}";
type = Stem;
}
);
layerId = "324B6D7A-1AE4-424F-A6A7-4FAAB53DF00B";
paths = (
{
closed = 1;
nodes = (
"612 553 LINE",
"602 683 OFFCURVE",
"490 737 OFFCURVE",
"372 737 CURVE SMOOTH",
"154 737 OFFCURVE",
"61 559 OFFCURVE",
"61 361 CURVE SMOOTH",
"61 161 OFFCURVE",
"153 -15 OFFCURVE",
"372 -15 CURVE SMOOTH",
"488 -15 OFFCURVE",
"599 54 OFFCURVE",
"620 175 CURVE",
"550 175 LINE",
"532 85 OFFCURVE",
"452 45 OFFCURVE",
"372 45 CURVE SMOOTH",
"187 45 OFFCURVE",
"131 213 OFFCURVE",
"131 361 CURVE SMOOTH",
"131 509 OFFCURVE",
"187 677 OFFCURVE",
"372 677 CURVE SMOOTH",
"454 677 OFFCURVE",
"530 641 OFFCURVE",
"542 553 CURVE"
);
},
{
closed = 1;
nodes = (
"401 839 LINE",
"401 927 LINE",
"327 927 LINE",
"327 839 LINE"
);
}
);
width = 667;
}
);
leftKerningGroup = C;
note = Cdotaccent;
rightKerningGroup = C;
unicode = 010A;
},
{
glyphname = Ccedilla;
lastChange = "2020-10-05 17:32:20 +0000";
layers = (
{
hints = (
{
horizontal = 1;
place = "{-183, 133}";
type = Stem;
},
{
horizontal = 1;
place = "{-15, 60}";
type = Stem;
},
{
horizontal = 1;
place = "{677, 60}";
type = Stem;
},
{
place = "{61, 70}";
type = Stem;
},
{
place = "{398, 56}";
type = Stem;
},
{
horizontal = 1;
place = "{-79, 29}";
type = Stem;
},
{
horizontal = 1;
place = "{553, 184}";
type = Stem;
}
);
layerId = "324B6D7A-1AE4-424F-A6A7-4FAAB53DF00B";
paths = (
{
closed = 1;
nodes = (
"248 -161 LINE",
"295 -175 OFFCURVE",
"311 -183 OFFCURVE",
"361 -183 CURVE SMOOTH",
"401 -183 OFFCURVE",
"454 -164 OFFCURVE",
"454 -117 CURVE SMOOTH",
"454 -57 OFFCURVE",
"403 -50 OFFCURVE",
"353 -50 CURVE",
"363 -14 LINE",
"365 -15 OFFCURVE",
"369 -15 OFFCURVE",
"372 -15 CURVE SMOOTH",
"488 -15 OFFCURVE",
"599 54 OFFCURVE",
"620 175 CURVE",
"550 175 LINE",
"532 85 OFFCURVE",
"452 45 OFFCURVE",
"372 45 CURVE SMOOTH",
"187 45 OFFCURVE",
"131 213 OFFCURVE",
"131 361 CURVE SMOOTH",
"131 509 OFFCURVE",
"187 677 OFFCURVE",
"372 677 CURVE SMOOTH",
"454 677 OFFCURVE",
"530 641 OFFCURVE",
"542 553 CURVE",
"612 553 LINE",
"602 683 OFFCURVE",
"490 737 OFFCURVE",
"372 737 CURVE SMOOTH",
"154 737 OFFCURVE",
"61 559 OFFCURVE",
"61 361 CURVE SMOOTH",
"61 171 OFFCURVE",
"144 4 OFFCURVE",
"340 -12 CURVE",
"317 -82 LINE",
"328 -81 OFFCURVE",
"339 -79 OFFCURVE",
"350 -79 CURVE SMOOTH",
"373 -79 OFFCURVE",
"398 -87 OFFCURVE",
"398 -115 CURVE SMOOTH",
"398 -129 OFFCURVE",
"397 -137 OFFCURVE",
"386 -147 CURVE SMOOTH",
"378 -154 OFFCURVE",
"353 -159 OFFCURVE",
"344 -158 CURVE",
"313 -153 OFFCURVE",
"284 -144 OFFCURVE",
"255 -133 CURVE"
);
}
);
width = 667;
}
);
leftKerningGroup = C;
note = Ccedilla;
rightKerningGroup = C;
unicode = 00C7;
},
{
glyphname = Dcaron;
lastChange = "2020-10-05 17:32:20 +0000";
layers = (
{
hints = (
{
horizontal = 1;
place = "{0, 60}";
type = Stem;
},
{
horizontal = 1;
place = "{662, 60}";
type = Stem;
},
{
place = "{91, 65}";
type = Stem;
},
{
place = "{588, 70}";
type = Stem;
},
{
horizontal = 1;
place = "{782, 21}";
target = up;
type = BottomGhost;
},
{
horizontal = 1;
place = "{927, -20}";
target = down;
type = TopGhost;
}
);
layerId = "324B6D7A-1AE4-424F-A6A7-4FAAB53DF00B";
paths = (
{
closed = 1;
nodes = (
"156 60 LINE",
"156 662 LINE",
"258 662 LINE SMOOTH",
"463 668 OFFCURVE",
"588 574 OFFCURVE",
"588 361 CURVE SMOOTH",
"588 179 OFFCURVE",
"505 60 OFFCURVE",
"302 60 CURVE SMOOTH"
);
},
{
closed = 1;
nodes = (
"91 722 LINE",
"91 0 LINE",
"286 0 LINE SMOOTH",
"523 0 OFFCURVE",
"658 122 OFFCURVE",
"658 361 CURVE SMOOTH",
"658 600 OFFCURVE",
"523 722 OFFCURVE",
"286 722 CURVE SMOOTH"
);
},
{
closed = 1;
nodes = (
"444 927 LINE",
"398 927 LINE",
"308 821 LINE",
"219 927 LINE",
"172 927 LINE",
"271 782 LINE",
"344 782 LINE"
);
}
);
width = 722;
}
);
note = Dcaron;
rightKerningGroup = D;
unicode = 010E;
},
{
glyphname = Dcroat;
lastChange = "2020-10-05 17:32:20 +0000";
layers = (
{
hints = (
{
horizontal = 1;
place = "{0, 60}";
type = Stem;
},
{
horizontal = 1;
place = "{375, 45}";
type = Stem;
},
{
horizontal = 1;
place = "{662, 60}";
type = Stem;
},
{
place = "{91, 65}";
type = Stem;
},
{
place = "{588, 70}";
type = Stem;
}
);
layerId = "324B6D7A-1AE4-424F-A6A7-4FAAB53DF00B";
paths = (
{
closed = 1;
nodes = (
"156 662 LINE",
"258 662 LINE SMOOTH",
"463 667 OFFCURVE",
"588 575 OFFCURVE",
"588 361 CURVE SMOOTH",
"588 180 OFFCURVE",
"506 60 OFFCURVE",
"302 60 CURVE SMOOTH",
"156 60 LINE",
"156 375 LINE",
"372 375 LINE",
"372 420 LINE",
"156 420 LINE"
);
},
{
closed = 1;
nodes = (
"91 0 LINE",
"286 0 LINE SMOOTH",
"525 0 OFFCURVE",
"658 121 OFFCURVE",
"658 361 CURVE SMOOTH",
"658 601 OFFCURVE",
"525 722 OFFCURVE",
"286 722 CURVE SMOOTH",
"91 722 LINE",
"91 420 LINE",
"23 420 LINE",
"23 375 LINE",
"91 375 LINE"
);
}
);
width = 722;
}
);
note = Dcroat;
rightKerningGroup = D;
unicode = 0110;
},
{
glyphname = Eth;
lastChange = "2020-10-05 17:32:20 +0000";
layers = (
{
hints = (
{
horizontal = 1;
place = "{0, 60}";
type = Stem;
},
{
horizontal = 1;
place = "{375, 45}";
type = Stem;
},
{
horizontal = 1;
place = "{662, 60}";
type = Stem;
},
{
place = "{91, 65}";
type = Stem;
},
{
place = "{588, 70}";
type = Stem;
}
);
layerId = "324B6D7A-1AE4-424F-A6A7-4FAAB53DF00B";
paths = (
{
closed = 1;
nodes = (
"156 662 LINE",
"258 662 LINE SMOOTH",
"463 668 OFFCURVE",
"588 574 OFFCURVE",
"588 361 CURVE SMOOTH",
"588 179 OFFCURVE",
"505 60 OFFCURVE",
"302 60 CURVE SMOOTH",
"156 60 LINE",
"156 375 LINE",
"372 375 LINE",
"372 420 LINE",
"156 420 LINE"
);
},
{
closed = 1;
nodes = (
"91 0 LINE",
"286 0 LINE SMOOTH",
"523 0 OFFCURVE",
"658 122 OFFCURVE",
"658 361 CURVE SMOOTH",
"658 600 OFFCURVE",
"523 722 OFFCURVE",
"286 722 CURVE SMOOTH",
"91 722 LINE",
"91 420 LINE",
"23 420 LINE",
"23 375 LINE",
"91 375 LINE"
);
}
);
width = 722;
}
);
note = Eth;
rightKerningGroup = D;
unicode = 00D0;
},
{
glyphname = Egrave;
lastChange = "2020-10-05 17:32:20 +0000";
layers = (
{
hints = (
{
horizontal = 1;
place = "{0, 60}";
type = Stem;
},
{
horizontal = 1;
place = "{343, 60}";
type = Stem;
},
{
horizontal = 1;
place = "{662, 60}";
type = Stem;
},
{
horizontal = 1;
place = "{927, -20}";
target = down;
type = TopGhost;
},
{
place = "{102, 65}";
type = Stem;
}
);
layerId = "324B6D7A-1AE4-424F-A6A7-4FAAB53DF00B";
paths = (
{
closed = 1;
nodes = (
"546 0 LINE",
"546 60 LINE",
"167 60 LINE",
"167 343 LINE",
"517 343 LINE",
"517 403 LINE",
"167 403 LINE",
"167 662 LINE",
"531 662 LINE",
"531 722 LINE",
"102 722 LINE",
"102 0 LINE"
);
},
{
closed = 1;
nodes = (
"187 927 LINE",
"314 784 LINE",
"358 784 LINE",
"267 927 LINE"
);
}
);
width = 611;
}
);
note = Egrave;
rightKerningGroup = E;
unicode = 00C8;
},
{
glyphname = Eacute;
lastChange = "2020-10-05 17:32:20 +0000";
layers = (
{
hints = (
{
horizontal = 1;
place = "{0, 60}";
type = Stem;
},
{
horizontal = 1;
place = "{343, 60}";
type = Stem;
},
{
horizontal = 1;
place = "{662, 60}";
type = Stem;
},
{
horizontal = 1;
place = "{927, -20}";
target = down;
type = TopGhost;
},
{
place = "{102, 65}";
type = Stem;
}
);
layerId = "324B6D7A-1AE4-424F-A6A7-4FAAB53DF00B";
paths = (
{
closed = 1;
nodes = (
"546 0 LINE",
"546 60 LINE",
"167 60 LINE",
"167 343 LINE",
"517 343 LINE",
"517 403 LINE",
"167 403 LINE",
"167 662 LINE",
"531 662 LINE",
"531 722 LINE",
"102 722 LINE",
"102 0 LINE"
);
},
{
closed = 1;
nodes = (
"345 927 LINE",
"254 784 LINE",
"298 784 LINE",
"425 927 LINE"
);
}
);
width = 611;
}
);
note = Eacute;
rightKerningGroup = E;
unicode = 00C9;
},
{
glyphname = Ecircumflex;
lastChange = "2020-10-05 17:32:20 +0000";
layers = (
{
hints = (
{
horizontal = 1;
place = "{0, 60}";
type = Stem;
},
{
horizontal = 1;
place = "{343, 60}";
type = Stem;
},
{
horizontal = 1;
place = "{662, 60}";
type = Stem;
},
{
horizontal = 1;
place = "{927, -20}";
target = down;
type = TopGhost;
},
{
place = "{102, 65}";
type = Stem;
}
);
layerId = "324B6D7A-1AE4-424F-A6A7-4FAAB53DF00B";
paths = (
{
closed = 1;
nodes = (
"546 0 LINE",
"546 60 LINE",
"167 60 LINE",
"167 343 LINE",
"517 343 LINE",
"517 403 LINE",
"167 403 LINE",
"167 662 LINE",
"531 662 LINE",
"531 722 LINE",
"102 722 LINE",
"102 0 LINE"
);
},
{
closed = 1;
nodes = (
"170 782 LINE",
"216 782 LINE",
"306 888 LINE",
"395 782 LINE",
"442 782 LINE",
"343 927 LINE",
"270 927 LINE"
);
}
);
width = 611;
}
);
note = Ecircumflex;
rightKerningGroup = E;
unicode = 00CA;
},
{
glyphname = Ecaron;
lastChange = "2020-10-05 17:32:20 +0000";
layers = (
{
hints = (
{
horizontal = 1;
place = "{0, 60}";
type = Stem;
},
{
horizontal = 1;
place = "{343, 60}";
type = Stem;
},
{
horizontal = 1;
place = "{662, 60}";
type = Stem;
},
{
place = "{102, 65}";
type = Stem;
},
{
horizontal = 1;
place = "{782, 21}";
target = up;
type = BottomGhost;
},
{
horizontal = 1;
place = "{927, -20}";
target = down;
type = TopGhost;
}
);
layerId = "324B6D7A-1AE4-424F-A6A7-4FAAB53DF00B";
paths = (
{
closed = 1;
nodes = (
"546 0 LINE",
"546 60 LINE",
"167 60 LINE",
"167 343 LINE",
"517 343 LINE",
"517 403 LINE",
"167 403 LINE",
"167 662 LINE",
"531 662 LINE",
"531 722 LINE",
"102 722 LINE",
"102 0 LINE"
);
},
{
closed = 1;
nodes = (
"462 927 LINE",
"416 927 LINE",
"326 821 LINE",
"237 927 LINE",
"190 927 LINE",
"289 782 LINE",
"362 782 LINE"
);
}
);
width = 611;
}
);
note = Ecaron;
rightKerningGroup = E;
unicode = 011A;
},
{
glyphname = Edieresis;
lastChange = "2020-10-05 17:32:20 +0000";
layers = (
{
hints = (
{
horizontal = 1;
place = "{0, 60}";
type = Stem;
},
{
horizontal = 1;
place = "{343, 60}";
type = Stem;
},
{
horizontal = 1;
place = "{662, 60}";
type = Stem;
},
{
horizontal = 1;
place = "{824, 88}";
type = Stem;
},
{
place = "{102, 65}";
type = Stem;
},
{
place = "{182, 74}";
type = Stem;
},
{
place = "{356, 74}";
type = Stem;
}
);
layerId = "324B6D7A-1AE4-424F-A6A7-4FAAB53DF00B";
paths = (
{
closed = 1;
nodes = (
"546 0 LINE",
"546 60 LINE",
"167 60 LINE",
"167 343 LINE",
"517 343 LINE",
"517 403 LINE",
"167 403 LINE",
"167 662 LINE",
"531 662 LINE",
"531 722 LINE",
"102 722 LINE",
"102 0 LINE"
);
},
{
closed = 1;
nodes = (
"430 824 LINE",
"430 912 LINE",
"356 912 LINE",
"356 824 LINE"
);
},
{
closed = 1;
nodes = (
"256 824 LINE",
"256 912 LINE",
"182 912 LINE",
"182 824 LINE"
);
}
);
width = 611;
}
);
note = Edieresis;
rightKerningGroup = E;
unicode = 00CB;
},
{
glyphname = Emacron;
lastChange = "2020-10-05 17:32:20 +0000";
layers = (
{
hints = (
{
horizontal = 1;
place = "{0, 60}";
type = Stem;
},
{
horizontal = 1;
place = "{343, 60}";
type = Stem;
},
{
horizontal = 1;
place = "{662, 60}";
type = Stem;
},
{
place = "{102, 65}";
type = Stem;
},
{
horizontal = 1;
place = "{843, 50}";
type = Stem;
}
);
layerId = "324B6D7A-1AE4-424F-A6A7-4FAAB53DF00B";
paths = (
{
closed = 1;
nodes = (
"546 0 LINE",
"546 60 LINE",
"167 60 LINE",
"167 343 LINE",
"517 343 LINE",
"517 403 LINE",
"167 403 LINE",
"167 662 LINE",
"531 662 LINE",
"531 722 LINE",
"102 722 LINE",
"102 0 LINE"
);
},
{
closed = 1;
nodes = (
"445 843 LINE",
"445 893 LINE",
"200 893 LINE",
"200 843 LINE"
);
}
);
width = 611;
}
);
note = Emacron;
rightKerningGroup = E;
unicode = 0112;
},
{
glyphname = Ebreve;
lastChange = "2020-10-05 17:32:20 +0000";
layers = (
{
hints = (
{
horizontal = 1;
place = "{0, 60}";
type = Stem;
},
{
horizontal = 1;
place = "{343, 60}";
type = Stem;
},
{
horizontal = 1;
place = "{662, 60}";
type = Stem;
},
{
place = "{102, 65}";
type = Stem;
},
{
horizontal = 1;
place = "{829, 46}";
type = Stem;
},
{
horizontal = 1;
place = "{937, -20}";
target = down;
type = TopGhost;
},
{
place = "{202, 244}";
type = Stem;
}
);
layerId = "324B6D7A-1AE4-424F-A6A7-4FAAB53DF00B";
paths = (
{
closed = 1;
nodes = (
"546 0 LINE",
"546 60 LINE",
"167 60 LINE",
"167 343 LINE",
"517 343 LINE",
"517 403 LINE",
"167 403 LINE",
"167 662 LINE",
"531 662 LINE",
"531 722 LINE",
"102 722 LINE",
"102 0 LINE"
);
},
{
closed = 1;
nodes = (
"425 937 LINE",
"412 889 OFFCURVE",
"360 875 OFFCURVE",
"321 875 CURVE SMOOTH",
"283 875 OFFCURVE",
"236 889 OFFCURVE",
"225 937 CURVE",
"202 937 LINE",
"203 864 OFFCURVE",
"256 829 OFFCURVE",
"321 829 CURVE SMOOTH",
"393 829 OFFCURVE",
"441 857 OFFCURVE",
"446 937 CURVE"
);
}
);
width = 611;
}
);
note = Ebreve;
rightKerningGroup = E;
unicode = 0114;
},
{
glyphname = Edotaccent;
lastChange = "2020-10-05 17:32:20 +0000";
layers = (
{
hints = (
{
horizontal = 1;
place = "{0, 60}";
type = Stem;
},
{
horizontal = 1;
place = "{343, 60}";
type = Stem;
},
{
horizontal = 1;
place = "{662, 60}";
type = Stem;
},
{
place = "{102, 65}";
type = Stem;
},
{
horizontal = 1;
place = "{839, 88}";
type = Stem;
},
{
place = "{279, 74}";
type = Stem;
}
);
layerId = "324B6D7A-1AE4-424F-A6A7-4FAAB53DF00B";
paths = (
{
closed = 1;
nodes = (
"546 0 LINE",
"546 60 LINE",
"167 60 LINE",
"167 343 LINE",
"517 343 LINE",
"517 403 LINE",
"167 403 LINE",
"167 662 LINE",
"531 662 LINE",
"531 722 LINE",
"102 722 LINE",
"102 0 LINE"
);
},
{
closed = 1;
nodes = (
"353 839 LINE",
"353 927 LINE",
"279 927 LINE",
"279 839 LINE"
);
}
);
width = 611;
}
);
note = Edotaccent;
rightKerningGroup = E;
unicode = 0116;
},
{
glyphname = Eogonek;
lastChange = "2020-10-05 17:32:20 +0000";
layers = (
{
hints = (
{
horizontal = 1;
place = "{-182, 37}";
type = Stem;
},
{
horizontal = 1;
place = "{0, 60}";
type = Stem;
},
{
horizontal = 1;
place = "{343, 60}";
type = Stem;
},
{
horizontal = 1;
place = "{662, 60}";
type = Stem;
},
{
place = "{102, 65}";
type = Stem;
},
{
place = "{384, 46}";
type = Stem;
},
{
place = "{384, 162}";
type = Stem;
}
);
layerId = "324B6D7A-1AE4-424F-A6A7-4FAAB53DF00B";
paths = (
{
closed = 1;
nodes = (
"541 -134 LINE",
"520 -141 OFFCURVE",
"504 -145 OFFCURVE",
"480 -145 CURVE SMOOTH",
"460 -145 OFFCURVE",
"430 -139 OFFCURVE",
"430 -103 CURVE SMOOTH",
"430 -60 OFFCURVE",
"463 -36 OFFCURVE",
"520 0 CURVE",
"546 0 LINE",
"546 60 LINE",
"167 60 LINE",
"167 343 LINE",
"517 343 LINE",
"517 403 LINE",
"167 403 LINE",
"167 662 LINE",
"531 662 LINE",
"531 722 LINE",
"102 722 LINE",
"102 0 LINE",
"480 0 LINE",
"437 -19 OFFCURVE",
"384 -51 OFFCURVE",
"384 -108 CURVE SMOOTH",
"384 -168 OFFCURVE",
"436 -182 OFFCURVE",
"472 -182 CURVE SMOOTH",
"499 -182 OFFCURVE",
"522 -175 OFFCURVE",
"541 -168 CURVE"
);
}
);
width = 611;
}
);
note = Eogonek;
rightKerningGroup = E;
unicode = 0118;
},
{
glyphname = Gcircumflex;
lastChange = "2020-10-05 17:32:20 +0000";
layers = (
{
hints = (
{
horizontal = 1;
place = "{-15, 60}";
type = Stem;
},
{
horizontal = 1;
place = "{308, 60}";
type = Stem;
},
{
horizontal = 1;
place = "{544, 193}";
type = Stem;
},
{
place = "{64, 70}";
type = Stem;
},
{
place = "{385, 246}";
type = Stem;
},
{
horizontal = 1;
place = "{677, 60}";
type = Stem;
},
{
place = "{566, 65}";
type = Stem;
},
{
horizontal = 1;
place = "{782, 21}";
target = up;
type = BottomGhost;
},
{
horizontal = 1;
place = "{927, -20}";
target = down;
type = TopGhost;
}
);
layerId = "324B6D7A-1AE4-424F-A6A7-4FAAB53DF00B";
paths = (
{
closed = 1;
nodes = (
"385 368 LINE",
"385 308 LINE",
"566 308 LINE",
"566 75 LINE",
"515 60 OFFCURVE",
"460 45 OFFCURVE",
"406 45 CURVE SMOOTH",
"211 45 OFFCURVE",
"134 177 OFFCURVE",
"134 361 CURVE SMOOTH",
"134 511 OFFCURVE",
"199 677 OFFCURVE",
"372 677 CURVE SMOOTH",
"458 677 OFFCURVE",
"539 636 OFFCURVE",
"552 544 CURVE",
"626 544 LINE",
"615 672 OFFCURVE",
"492 737 OFFCURVE",
"372 737 CURVE SMOOTH",
"163 737 OFFCURVE",
"64 547 OFFCURVE",
"64 361 CURVE SMOOTH",
"64 139 OFFCURVE",
"175 -15 OFFCURVE",
"372 -15 CURVE SMOOTH",
"465 -15 OFFCURVE",
"544 -4 OFFCURVE",
"631 30 CURVE",
"631 368 LINE"
);
},
{
closed = 1;
nodes = (
"237 782 LINE",
"283 782 LINE",
"373 888 LINE",
"462 782 LINE",
"509 782 LINE",
"410 927 LINE",
"337 927 LINE"
);
}
);
width = 722;
}
);
leftKerningGroup = G;
note = Gcircumflex;
unicode = 011C;
},
{
glyphname = Gbreve;
lastChange = "2020-10-05 17:32:20 +0000";
layers = (
{
hints = (
{
horizontal = 1;
place = "{-15, 60}";
type = Stem;
},
{
horizontal = 1;
place = "{308, 60}";
type = Stem;
},
{
horizontal = 1;
place = "{544, 193}";
type = Stem;
},
{
place = "{64, 70}";
type = Stem;
},
{
place = "{385, 246}";
type = Stem;
},
{
horizontal = 1;
place = "{677, 60}";
type = Stem;
},
{
place = "{566, 65}";
type = Stem;
},
{
horizontal = 1;
place = "{829, 46}";
type = Stem;
},
{
horizontal = 1;
place = "{937, -20}";
target = down;
type = TopGhost;
},
{
place = "{249, 244}";
type = Stem;
}
);
layerId = "324B6D7A-1AE4-424F-A6A7-4FAAB53DF00B";
paths = (
{
closed = 1;
nodes = (
"385 368 LINE",
"385 308 LINE",
"566 308 LINE",
"566 75 LINE",
"515 60 OFFCURVE",
"460 45 OFFCURVE",
"406 45 CURVE SMOOTH",
"211 45 OFFCURVE",
"134 177 OFFCURVE",
"134 361 CURVE SMOOTH",
"134 511 OFFCURVE",
"199 677 OFFCURVE",
"372 677 CURVE SMOOTH",
"458 677 OFFCURVE",
"539 636 OFFCURVE",
"552 544 CURVE",
"626 544 LINE",
"615 672 OFFCURVE",
"492 737 OFFCURVE",
"372 737 CURVE SMOOTH",
"163 737 OFFCURVE",
"64 547 OFFCURVE",
"64 361 CURVE SMOOTH",
"64 139 OFFCURVE",
"175 -15 OFFCURVE",
"372 -15 CURVE SMOOTH",
"465 -15 OFFCURVE",
"544 -4 OFFCURVE",
"631 30 CURVE",
"631 368 LINE"
);
},
{
closed = 1;
nodes = (
"472 937 LINE",
"459 889 OFFCURVE",
"407 875 OFFCURVE",
"368 875 CURVE SMOOTH",
"330 875 OFFCURVE",
"283 889 OFFCURVE",
"272 937 CURVE",
"249 937 LINE",
"250 864 OFFCURVE",
"303 829 OFFCURVE",
"368 829 CURVE SMOOTH",
"440 829 OFFCURVE",
"488 857 OFFCURVE",
"493 937 CURVE"
);
}
);
width = 722;
}
);
leftKerningGroup = G;
note = Gbreve;
unicode = 011E;
},
{
glyphname = Gdotaccent;
lastChange = "2020-10-05 17:32:20 +0000";
layers = (
{
hints = (
{
horizontal = 1;
place = "{-15, 60}";
type = Stem;
},
{
horizontal = 1;
place = "{308, 60}";
type = Stem;
},
{
horizontal = 1;
place = "{544, 193}";
type = Stem;
},
{
place = "{64, 70}";
type = Stem;
},
{
place = "{385, 246}";
type = Stem;
},
{
horizontal = 1;
place = "{677, 60}";
type = Stem;
},
{
place = "{566, 65}";
type = Stem;
},
{
horizontal = 1;
place = "{839, 88}";
type = Stem;
},
{
place = "{340, 74}";
type = Stem;
}
);
layerId = "324B6D7A-1AE4-424F-A6A7-4FAAB53DF00B";
paths = (
{
closed = 1;
nodes = (
"385 368 LINE",
"385 308 LINE",
"566 308 LINE",
"566 75 LINE",
"515 60 OFFCURVE",
"460 45 OFFCURVE",
"406 45 CURVE SMOOTH",
"211 45 OFFCURVE",
"134 177 OFFCURVE",
"134 361 CURVE SMOOTH",
"134 511 OFFCURVE",
"199 677 OFFCURVE",
"372 677 CURVE SMOOTH",
"458 677 OFFCURVE",
"539 636 OFFCURVE",
"552 544 CURVE",
"626 544 LINE",
"615 672 OFFCURVE",
"492 737 OFFCURVE",
"372 737 CURVE SMOOTH",
"163 737 OFFCURVE",
"64 547 OFFCURVE",
"64 361 CURVE SMOOTH",
"64 139 OFFCURVE",
"175 -15 OFFCURVE",
"372 -15 CURVE SMOOTH",
"465 -15 OFFCURVE",
"544 -4 OFFCURVE",
"631 30 CURVE",
"631 368 LINE"
);
},
{
closed = 1;
nodes = (
"414 839 LINE",
"414 927 LINE",
"340 927 LINE",
"340 839 LINE"
);
}
);
width = 722;
}
);
leftKerningGroup = G;
note = Gdotaccent;
unicode = 0120;
},
{
glyphname = Gcommaaccent;
lastChange = "2020-10-05 17:32:20 +0000";
layers = (
{
hints = (
{
horizontal = 1;
place = "{-15, 60}";
type = Stem;
},
{
horizontal = 1;
place = "{308, 60}";
type = Stem;
},
{
horizontal = 1;
place = "{544, 193}";
type = Stem;
},
{
place = "{64, 70}";
type = Stem;
},
{
place = "{385, 246}";
type = Stem;
},
{
horizontal = 1;
place = "{677, 60}";
type = Stem;
},
{
place = "{566, 65}";
type = Stem;
},
{
horizontal = 1;
place = "{-219, 21}";
target = up;
type = BottomGhost;
},
{
horizontal = 1;
place = "{-74, -20}";
target = down;
type = TopGhost;
}
);
layerId = "324B6D7A-1AE4-424F-A6A7-4FAAB53DF00B";
paths = (
{
closed = 1;
nodes = (
"385 368 LINE",
"385 308 LINE",
"566 308 LINE",
"566 75 LINE",
"515 60 OFFCURVE",
"460 45 OFFCURVE",
"406 45 CURVE SMOOTH",
"211 45 OFFCURVE",
"134 177 OFFCURVE",
"134 361 CURVE SMOOTH",
"134 511 OFFCURVE",
"199 677 OFFCURVE",
"372 677 CURVE SMOOTH",
"458 677 OFFCURVE",
"539 636 OFFCURVE",
"552 544 CURVE",
"626 544 LINE",
"615 672 OFFCURVE",
"492 737 OFFCURVE",
"372 737 CURVE SMOOTH",
"163 737 OFFCURVE",
"64 547 OFFCURVE",
"64 361 CURVE SMOOTH",
"64 139 OFFCURVE",
"175 -15 OFFCURVE",
"372 -15 CURVE SMOOTH",
"465 -15 OFFCURVE",
"544 -4 OFFCURVE",
"631 30 CURVE",
"631 368 LINE"
);
},
{
closed = 1;
nodes = (
"353 -74 LINE",
"318 -219 LINE",
"361 -219 LINE",
"420 -74 LINE"
);
}
);
width = 722;
}
);
leftKerningGroup = G;
note = Gcommaaccent;
unicode = 0122;
},
{
glyphname = Hcircumflex;
lastChange = "2020-10-05 17:32:20 +0000";
layers = (
{
hints = (
{
horizontal = 1;
place = "{0, 21}";
target = up;
type = BottomGhost;
},
{
horizontal = 1;
place = "{345, 60}";
type = Stem;
},
{
horizontal = 1;
place = "{722, -20}";
target = down;
type = TopGhost;
},
{
place = "{99, 65}";
type = Stem;
},
{
place = "{558, 65}";
type = Stem;
},
{
horizontal = 1;
place = "{782, 21}";
target = up;
type = BottomGhost;
},
{
horizontal = 1;
place = "{927, -20}";
target = down;
type = TopGhost;
}
);
layerId = "324B6D7A-1AE4-424F-A6A7-4FAAB53DF00B";
paths = (
{
closed = 1;
nodes = (
"164 0 LINE",
"164 345 LINE",
"558 345 LINE",
"558 0 LINE",
"623 0 LINE",
"623 722 LINE",
"558 722 LINE",
"558 405 LINE",
"164 405 LINE",
"164 722 LINE",
"99 722 LINE",
"99 0 LINE"
);
},
{
closed = 1;
nodes = (
"228 782 LINE",
"274 782 LINE",
"364 888 LINE",
"453 782 LINE",
"500 782 LINE",
"401 927 LINE",
"328 927 LINE"
);
}
);
width = 722;
}
);
note = Hcircumflex;
rightKerningGroup = H;
unicode = 0124;
},
{
glyphname = Hbar;
lastChange = "2020-10-05 17:32:20 +0000";
layers = (
{
hints = (
{
horizontal = 1;
place = "{0, 21}";
target = up;
type = BottomGhost;
},
{
horizontal = 1;
place = "{345, 60}";
type = Stem;
},
{
horizontal = 1;
place = "{495, 42}";
type = Stem;
},
{
horizontal = 1;
place = "{722, -20}";
target = down;
type = TopGhost;
},
{
place = "{99, 65}";
type = Stem;
},
{
place = "{558, 65}";
type = Stem;
}
);
layerId = "324B6D7A-1AE4-424F-A6A7-4FAAB53DF00B";
paths = (
{
closed = 1;
nodes = (
"164 0 LINE",
"164 345 LINE",
"558 345 LINE",
"558 0 LINE",
"623 0 LINE",
"623 722 LINE",
"558 722 LINE",
"558 537 LINE",
"164 537 LINE",
"164 722 LINE",
"99 722 LINE",
"99 0 LINE"
);
},
{
closed = 1;
nodes = (
"164 405 LINE",
"164 495 LINE",
"558 495 LINE",
"558 405 LINE"
);
}
);
width = 722;
}
);
note = Hbar;
rightKerningGroup = H;
unicode = 0126;
},
{
glyphname = Igrave;
lastChange = "2020-10-05 17:32:20 +0000";
layers = (
{
hints = (
{
horizontal = 1;
place = "{0, 21}";
target = up;
type = BottomGhost;
},
{
horizontal = 1;
place = "{927, -20}";
target = down;
type = TopGhost;
},
{
place = "{107, 65}";
type = Stem;
}
);
layerId = "324B6D7A-1AE4-424F-A6A7-4FAAB53DF00B";
paths = (
{
closed = 1;
nodes = (
"172 0 LINE",
"172 722 LINE",
"107 722 LINE",
"107 0 LINE"
);
},
{
closed = 1;
nodes = (
"20 927 LINE",
"147 784 LINE",
"191 784 LINE",
"100 927 LINE"
);
}
);
width = 278;
}
);
note = Igrave;
unicode = 00CC;
},
{
glyphname = Iacute;
lastChange = "2020-10-05 17:32:20 +0000";
layers = (
{
hints = (
{
horizontal = 1;
place = "{0, 21}";
target = up;
type = BottomGhost;
},
{
horizontal = 1;
place = "{927, -20}";
target = down;
type = TopGhost;
},
{
place = "{107, 65}";
type = Stem;
}
);
layerId = "324B6D7A-1AE4-424F-A6A7-4FAAB53DF00B";
paths = (
{
closed = 1;
nodes = (
"172 0 LINE",
"172 722 LINE",
"107 722 LINE",
"107 0 LINE"
);
},
{
closed = 1;
nodes = (
"178 927 LINE",
"87 784 LINE",
"131 784 LINE",
"258 927 LINE"
);
}
);
width = 278;
}
);
note = Iacute;
unicode = 00CD;
},
{
glyphname = Ibreve;
lastChange = "2020-10-05 17:32:20 +0000";
layers = (
{
hints = (
{
horizontal = 1;
place = "{0, 21}";
target = up;
type = BottomGhost;
},
{
horizontal = 1;
place = "{725, -20}";
target = down;
type = TopGhost;
},
{
place = "{107, 65}";
type = Stem;
},
{
horizontal = 1;
place = "{829, 46}";
type = Stem;
},
{
horizontal = 1;
place = "{937, -20}";
target = down;
type = TopGhost;
},
{
place = "{17, 244}";
type = Stem;
}
);
layerId = "324B6D7A-1AE4-424F-A6A7-4FAAB53DF00B";
paths = (
{
closed = 1;
nodes = (
"172 0 LINE",
"172 725 LINE",
"107 725 LINE",
"107 0 LINE"
);
},
{
closed = 1;
nodes = (
"240 937 LINE",
"227 889 OFFCURVE",
"175 875 OFFCURVE",
"136 875 CURVE SMOOTH",
"98 875 OFFCURVE",
"51 889 OFFCURVE",
"40 937 CURVE",
"17 937 LINE",
"18 864 OFFCURVE",
"71 829 OFFCURVE",
"136 829 CURVE SMOOTH",
"208 829 OFFCURVE",
"256 857 OFFCURVE",
"261 937 CURVE"
);
}
);
width = 278;
}
);
note = Ibreve;
unicode = 012C;
},
{
glyphname = Icircumflex;
lastChange = "2020-10-05 17:32:20 +0000";
layers = (
{
hints = (
{
horizontal = 1;
place = "{0, 21}";
target = up;
type = BottomGhost;
},
{
horizontal = 1;
place = "{927, -20}";
target = down;
type = TopGhost;
},
{
place = "{107, 65}";
type = Stem;
}
);
layerId = "324B6D7A-1AE4-424F-A6A7-4FAAB53DF00B";
paths = (
{
closed = 1;
nodes = (
"172 0 LINE",
"172 722 LINE",
"107 722 LINE",
"107 0 LINE"
);
},
{
closed = 1;
nodes = (
"3 782 LINE",
"49 782 LINE",
"139 888 LINE",
"228 782 LINE",
"275 782 LINE",
"176 927 LINE",
"103 927 LINE"
);
}
);
width = 278;
}
);
note = Icircumflex;
unicode = 00CE;
},
{
glyphname = Itilde;
lastChange = "2020-10-05 17:32:20 +0000";
layers = (
{
hints = (
{
horizontal = 1;
place = "{0, 21}";
target = up;
type = BottomGhost;
},
{
horizontal = 1;
place = "{725, -20}";
target = down;
type = TopGhost;
},
{
place = "{107, 65}";
type = Stem;
},
{
horizontal = 1;
place = "{830, 52}";
type = Stem;
},
{
horizontal = 1;
place = "{915, -20}";
target = down;
type = TopGhost;
},
{
horizontal = 1;
place = "{822, 21}";
target = up;
type = BottomGhost;
}
);
layerId = "324B6D7A-1AE4-424F-A6A7-4FAAB53DF00B";
paths = (
{
closed = 1;
nodes = (
"172 0 LINE",
"172 725 LINE",
"107 725 LINE",
"107 0 LINE"
);
},
{
closed = 1;
nodes = (
"239 915 LINE",
"231 894 OFFCURVE",
"212 882 OFFCURVE",
"189 882 CURVE SMOOTH",
"181 882 OFFCURVE",
"165 887 OFFCURVE",
"150 891 CURVE",
"135 896 OFFCURVE",
"119 901 OFFCURVE",
"110 902 CURVE",
"51 911 OFFCURVE",
"14 877 OFFCURVE",
"2 822 CURVE",
"40 822 LINE",
"45 842 OFFCURVE",
"67 851 OFFCURVE",
"87 851 CURVE SMOOTH",
"108 851 OFFCURVE",
"126 846 OFFCURVE",
"141 841 CURVE",
"157 834 OFFCURVE",
"171 830 OFFCURVE",
"186 830 CURVE SMOOTH",
"237 830 OFFCURVE",
"266 870 OFFCURVE",
"277 915 CURVE"
);
}
);
width = 278;
}
);
note = Itilde;
unicode = 0128;
},
{
glyphname = Idieresis;
lastChange = "2020-10-05 17:32:20 +0000";
layers = (
{
hints = (
{
horizontal = 1;
place = "{0, 21}";
target = up;
type = BottomGhost;
},
{
horizontal = 1;
place = "{824, 88}";
type = Stem;
},
{
place = "{15, 74}";
type = Stem;
},
{
place = "{107, 65}";
type = Stem;
},
{
place = "{189, 74}";
type = Stem;
}
);
layerId = "324B6D7A-1AE4-424F-A6A7-4FAAB53DF00B";
paths = (
{
closed = 1;
nodes = (
"172 0 LINE",
"172 722 LINE",
"107 722 LINE",
"107 0 LINE"
);
},
{
closed = 1;
nodes = (
"263 824 LINE",
"263 912 LINE",
"189 912 LINE",
"189 824 LINE"
);
},
{
closed = 1;
nodes = (
"89 824 LINE",
"89 912 LINE",
"15 912 LINE",
"15 824 LINE"
);
}
);
width = 278;
}
);
note = Idieresis;
unicode = 00CF;
},
{
glyphname = Imacron;
lastChange = "2020-10-05 17:32:20 +0000";
layers = (
{
hints = (
{
horizontal = 1;
place = "{0, 21}";
target = up;
type = BottomGhost;
},
{
horizontal = 1;
place = "{725, -20}";
target = down;
type = TopGhost;
},
{
place = "{107, 65}";
type = Stem;
},
{
horizontal = 1;
place = "{843, 50}";
type = Stem;
}
);
layerId = "324B6D7A-1AE4-424F-A6A7-4FAAB53DF00B";
paths = (
{
closed = 1;
nodes = (
"172 0 LINE",
"172 725 LINE",
"107 725 LINE",
"107 0 LINE"
);
},
{
closed = 1;
nodes = (
"262 843 LINE",
"262 893 LINE",
"17 893 LINE",
"17 843 LINE"
);
}
);
width = 278;
}
);
note = Imacron;
unicode = 012A;
},
{
glyphname = Idotaccent;
lastChange = "2020-10-05 17:32:20 +0000";
layers = (
{
hints = (
{
horizontal = 1;
place = "{0, 21}";
target = up;
type = BottomGhost;
},
{
horizontal = 1;
place = "{725, -20}";
target = down;
type = TopGhost;
},
{
place = "{107, 65}";
type = Stem;
},
{
horizontal = 1;
place = "{839, 88}";
type = Stem;
},
{
place = "{102, 74}";
type = Stem;
}
);
layerId = "324B6D7A-1AE4-424F-A6A7-4FAAB53DF00B";
paths = (
{
closed = 1;
nodes = (
"172 0 LINE",
"172 725 LINE",
"107 725 LINE",
"107 0 LINE"
);
},
{
closed = 1;
nodes = (
"176 839 LINE",
"176 927 LINE",
"102 927 LINE",
"102 839 LINE"
);
}
);
width = 278;
}
);
note = Idotaccent;
unicode = 0130;
},
{
glyphname = Iogonek;
lastChange = "2020-10-05 17:32:20 +0000";
layers = (
{
hints = (
{
horizontal = 1;
place = "{-182, 37}";
type = Stem;
},
{
horizontal = 1;
place = "{0, 21}";
target = up;
type = BottomGhost;
},
{
horizontal = 1;
place = "{722, -20}";
target = down;
type = TopGhost;
},
{
place = "{25, 46}";
type = Stem;
},
{
place = "{107, 65}";
type = Stem;
}
);
layerId = "324B6D7A-1AE4-424F-A6A7-4FAAB53DF00B";
paths = (
{
closed = 1;
nodes = (
"182 -134 LINE",
"161 -141 OFFCURVE",
"145 -145 OFFCURVE",
"121 -145 CURVE SMOOTH",
"101 -145 OFFCURVE",
"71 -139 OFFCURVE",
"71 -103 CURVE SMOOTH",
"71 -60 OFFCURVE",
"104 -36 OFFCURVE",
"161 0 CURVE",
"172 0 LINE",
"172 722 LINE",
"107 722 LINE",
"107 0 LINE",
"121 0 LINE",
"78 -19 OFFCURVE",
"25 -51 OFFCURVE",
"25 -108 CURVE SMOOTH",
"25 -168 OFFCURVE",
"77 -182 OFFCURVE",
"113 -182 CURVE SMOOTH",
"140 -182 OFFCURVE",
"163 -175 OFFCURVE",
"182 -168 CURVE"
);
}
);
width = 278;
}
);
note = Iogonek;
unicode = 012E;
},
{
glyphname = Jcircumflex;
lastChange = "2020-10-05 17:32:20 +0000";
layers = (
{
hints = (
{
horizontal = 1;
place = "{-15, 60}";
type = Stem;
},
{
horizontal = 1;
place = "{722, -20}";
target = down;
type = TopGhost;
},
{
place = "{347, 65}";
type = Stem;
},
{
horizontal = 1;
place = "{782, 21}";
target = up;
type = BottomGhost;
},
{
horizontal = 1;
place = "{927, -20}";
target = down;
type = TopGhost;
}
);
layerId = "324B6D7A-1AE4-424F-A6A7-4FAAB53DF00B";
paths = (
{
closed = 1;
nodes = (
"13 178 LINE",
"27 73 OFFCURVE",
"82 -15 OFFCURVE",
"199 -15 CURVE SMOOTH",
"261 -15 OFFCURVE",
"321 6 OFFCURVE",
"362 56 CURVE SMOOTH",
"409 113 OFFCURVE",
"412 182 OFFCURVE",
"412 235 CURVE SMOOTH",
"412 722 LINE",
"347 722 LINE",
"347 225 LINE SMOOTH",
"347 138 OFFCURVE",
"312 45 OFFCURVE",
"220 45 CURVE SMOOTH",
"142 45 OFFCURVE",
"90 100 OFFCURVE",
"83 178 CURVE"
);
},
{
closed = 1;
nodes = (
"237 782 LINE",
"283 782 LINE",
"373 888 LINE",
"462 782 LINE",
"509 782 LINE",
"410 927 LINE",
"337 927 LINE"
);
}
);
width = 500;
}
);
leftKerningGroup = J;
note = Jcircumflex;
rightKerningGroup = J;
unicode = 0134;
},
{
glyphname = Kcommaaccent;
lastChange = "2020-10-05 17:32:20 +0000";
layers = (
{
hints = (
{
horizontal = 1;
place = "{0, 21}";
target = up;
type = BottomGhost;
},
{
horizontal = 1;
place = "{722, -20}";
target = down;
type = TopGhost;
},
{
place = "{106, 64}";
type = Stem;
},
{
horizontal = 1;
place = "{-219, 21}";
target = up;
type = BottomGhost;
},
{
horizontal = 1;
place = "{-74, -20}";
target = down;
type = TopGhost;
}
);
layerId = "324B6D7A-1AE4-424F-A6A7-4FAAB53DF00B";
paths = (
{
closed = 1;
nodes = (
"170 0 LINE",
"171 377 LINE",
"517 0 LINE",
"606 0 LINE",
"243 396 LINE",
"576 722 LINE",
"494 722 LINE",
"171 404 LINE",
"170 722 LINE",
"106 722 LINE",
"106 0 LINE"
);
},
{
closed = 1;
nodes = (
"294 -74 LINE",
"259 -219 LINE",
"302 -219 LINE",
"361 -74 LINE"
);
}
);
width = 611;
}
);
note = Kcommaaccent;
rightKerningGroup = K;
unicode = 0136;
},
{
glyphname = Lacute;
lastChange = "2020-10-05 17:32:20 +0000";
layers = (
{
hints = (
{
horizontal = 1;
place = "{0, 60}";
type = Stem;
},
{
horizontal = 1;
place = "{722, -20}";
target = down;
type = TopGhost;
},
{
place = "{100, 65}";
type = Stem;
},
{
horizontal = 1;
place = "{784, 21}";
target = up;
type = BottomGhost;
},
{
horizontal = 1;
place = "{927, -20}";
target = down;
type = TopGhost;
}
);
layerId = "324B6D7A-1AE4-424F-A6A7-4FAAB53DF00B";
paths = (
{
closed = 1;
nodes = (
"528 0 LINE",
"528 60 LINE",
"165 60 LINE",
"165 722 LINE",
"100 722 LINE",
"100 0 LINE"
);
},
{
closed = 1;
nodes = (
"199 927 LINE",
"108 784 LINE",
"152 784 LINE",
"279 927 LINE"
);
}
);
width = 556;
}
);
note = Lacute;
rightKerningGroup = L;
unicode = 0139;
},
{
glyphname = Lcaron;
lastChange = "2020-10-05 17:32:20 +0000";
layers = (
{
hints = (
{
horizontal = 1;
place = "{0, 60}";
type = Stem;
},
{
horizontal = 1;
place = "{722, -20}";
target = down;
type = TopGhost;
},
{
place = "{100, 65}";
type = Stem;
},
{
horizontal = 1;
place = "{576, 21}";
target = up;
type = BottomGhost;
}
);
layerId = "324B6D7A-1AE4-424F-A6A7-4FAAB53DF00B";
paths = (
{
closed = 1;
nodes = (
"528 0 LINE",
"528 60 LINE",
"165 60 LINE",
"165 722 LINE",
"100 722 LINE",
"100 0 LINE"
);
},
{
closed = 1;
nodes = (
"350 722 LINE",
"312 576 LINE",
"352 576 LINE",
"416 722 LINE"
);
}
);
width = 556;
}
);
note = Lcaron;
unicode = 013D;
},
{
glyphname = Lcommaaccent;
lastChange = "2020-10-05 17:32:20 +0000";
layers = (
{
hints = (
{
horizontal = 1;
place = "{0, 60}";
type = Stem;
},
{
horizontal = 1;
place = "{722, -20}";
target = down;
type = TopGhost;
},
{
place = "{100, 65}";
type = Stem;
},
{
horizontal = 1;
place = "{-219, 21}";
target = up;
type = BottomGhost;
},
{
horizontal = 1;
place = "{-74, -20}";
target = down;
type = TopGhost;
}
);
layerId = "324B6D7A-1AE4-424F-A6A7-4FAAB53DF00B";
paths = (
{
closed = 1;
nodes = (
"528 0 LINE",
"528 60 LINE",
"165 60 LINE",
"165 722 LINE",
"100 722 LINE",
"100 0 LINE"
);
},
{
closed = 1;
nodes = (
"271 -74 LINE",
"236 -219 LINE",
"279 -219 LINE",
"338 -74 LINE"
);
}
);
width = 556;
}
);
note = Lcommaaccent;
rightKerningGroup = L;
unicode = 013B;
},
{
glyphname = Lslash;
lastChange = "2020-10-05 17:32:20 +0000";
layers = (
{
hints = (
{
horizontal = 1;
place = "{0, 60}";
type = Stem;
},
{
horizontal = 1;
place = "{722, -20}";
target = down;
type = TopGhost;
},
{
place = "{100, 65}";
type = Stem;
}
);
layerId = "324B6D7A-1AE4-424F-A6A7-4FAAB53DF00B";
paths = (
{
closed = 1;
nodes = (
"528 0 LINE",
"528 60 LINE",
"165 60 LINE",
"165 425 LINE",
"259 462 LINE",
"259 502 LINE",
"165 465 LINE",
"165 722 LINE",
"100 722 LINE",
"100 439 LINE",
"6 402 LINE",
"6 362 LINE",
"100 399 LINE",
"100 0 LINE"
);
}
);
width = 556;
}
);
note = Lslash;
unicode = 0141;
},
{
glyphname = Ldot;
lastChange = "2020-10-05 17:32:20 +0000";
layers = (
{
hints = (
{
horizontal = 1;
place = "{0, 60}";
type = Stem;
},
{
horizontal = 1;
place = "{722, -20}";
target = down;
type = TopGhost;
},
{
place = "{100, 65}";
type = Stem;
},
{
horizontal = 1;
place = "{362, 88}";
type = Stem;
},
{
place = "{383, 74}";
type = Stem;
}
);
layerId = "324B6D7A-1AE4-424F-A6A7-4FAAB53DF00B";
paths = (
{
closed = 1;
nodes = (
"528 0 LINE",
"528 60 LINE",
"165 60 LINE",
"165 722 LINE",
"100 722 LINE",
"100 0 LINE"
);
},
{
closed = 1;
nodes = (
"457 362 LINE",
"457 450 LINE",
"383 450 LINE",
"383 362 LINE"
);
}
);
width = 556;
}
);
note = Ldot;
unicode = 013F;
},
{
glyphname = Nacute;
lastChange = "2020-10-05 17:32:20 +0000";
layers = (
{
hints = (
{
horizontal = 1;
place = "{0, 21}";
target = up;
type = BottomGhost;
},
{
horizontal = 1;
place = "{722, -20}";
target = down;
type = TopGhost;
},
{
place = "{92, 65}";
type = Stem;
},
{
place = "{566, 65}";
type = Stem;
},
{
horizontal = 1;
place = "{784, 21}";
target = up;
type = BottomGhost;
},
{
horizontal = 1;
place = "{927, -20}";
target = down;
type = TopGhost;
}
);
layerId = "324B6D7A-1AE4-424F-A6A7-4FAAB53DF00B";
paths = (
{
closed = 1;
nodes = (
"92 0 LINE",
"157 0 LINE",
"157 624 LINE",
"159 624 LINE",
"549 0 LINE",
"631 0 LINE",
"631 722 LINE",
"566 722 LINE",
"566 87 LINE",
"564 87 LINE",
"166 722 LINE",
"92 722 LINE"
);
},
{
closed = 1;
nodes = (
"413 927 LINE",
"322 784 LINE",
"366 784 LINE",
"493 927 LINE"
);
}
);
width = 722;
}
);
note = Nacute;
unicode = 0143;
},
{
glyphname = Ncaron;
lastChange = "2020-10-05 17:32:20 +0000";
layers = (
{
hints = (
{
horizontal = 1;
place = "{0, 21}";
target = up;
type = BottomGhost;
},
{
horizontal = 1;
place = "{722, -20}";
target = down;
type = TopGhost;
},
{
place = "{92, 65}";
type = Stem;
},
{
place = "{566, 65}";
type = Stem;
},
{
horizontal = 1;
place = "{782, 21}";
target = up;
type = BottomGhost;
},
{
horizontal = 1;
place = "{927, -20}";
target = down;
type = TopGhost;
}
);
layerId = "324B6D7A-1AE4-424F-A6A7-4FAAB53DF00B";
paths = (
{
closed = 1;
nodes = (
"92 0 LINE",
"157 0 LINE",
"157 624 LINE",
"159 624 LINE",
"549 0 LINE",
"631 0 LINE",
"631 722 LINE",
"566 722 LINE",
"566 87 LINE",
"564 87 LINE",
"166 722 LINE",
"92 722 LINE"
);
},
{
closed = 1;
nodes = (
"499 927 LINE",
"453 927 LINE",
"363 821 LINE",
"274 927 LINE",
"227 927 LINE",
"326 782 LINE",
"399 782 LINE"
);
}
);
width = 722;
}
);
note = Ncaron;
unicode = 0147;
},
{
glyphname = Ntilde;
lastChange = "2020-10-05 17:32:20 +0000";
layers = (
{
hints = (
{
horizontal = 1;
place = "{0, 21}";
target = up;
type = BottomGhost;
},
{
horizontal = 1;
place = "{830, 52}";
type = Stem;
},
{
horizontal = 1;
place = "{915, -20}";
target = down;
type = TopGhost;
},
{
place = "{92, 65}";
type = Stem;
},
{
place = "{566, 65}";
type = Stem;
}
);
layerId = "324B6D7A-1AE4-424F-A6A7-4FAAB53DF00B";
paths = (
{
closed = 1;
nodes = (
"92 0 LINE",
"157 0 LINE",
"157 624 LINE",
"159 624 LINE",
"549 0 LINE",
"631 0 LINE",
"631 722 LINE",
"566 722 LINE",
"566 87 LINE",
"564 87 LINE",
"166 722 LINE",
"92 722 LINE"
);
},
{
closed = 1;
nodes = (
"461 915 LINE",
"453 894 OFFCURVE",
"434 882 OFFCURVE",
"411 882 CURVE SMOOTH",
"403 882 OFFCURVE",
"387 887 OFFCURVE",
"372 891 CURVE",
"357 896 OFFCURVE",
"341 901 OFFCURVE",
"332 902 CURVE",
"273 911 OFFCURVE",
"236 877 OFFCURVE",
"224 822 CURVE",
"262 822 LINE",
"267 842 OFFCURVE",
"289 851 OFFCURVE",
"309 851 CURVE SMOOTH",
"330 851 OFFCURVE",
"348 846 OFFCURVE",
"363 841 CURVE",
"379 834 OFFCURVE",
"393 830 OFFCURVE",
"408 830 CURVE SMOOTH",
"459 830 OFFCURVE",
"488 870 OFFCURVE",
"499 915 CURVE"
);
}
);
width = 722;
}
);
note = Ntilde;
unicode = 00D1;
},
{
glyphname = Ncommaaccent;
lastChange = "2020-10-05 17:32:20 +0000";
layers = (
{
hints = (
{
horizontal = 1;
place = "{0, 21}";
target = up;
type = BottomGhost;
},
{
horizontal = 1;
place = "{722, -20}";
target = down;
type = TopGhost;
},
{
place = "{92, 65}";
type = Stem;
},
{
place = "{566, 65}";
type = Stem;
},
{
horizontal = 1;
place = "{-219, 21}";
target = up;
type = BottomGhost;
},
{
horizontal = 1;
place = "{-74, -20}";
target = down;
type = TopGhost;
}
);
layerId = "324B6D7A-1AE4-424F-A6A7-4FAAB53DF00B";
paths = (
{
closed = 1;
nodes = (
"92 0 LINE",
"157 0 LINE",
"157 624 LINE",
"159 624 LINE",
"549 0 LINE",
"631 0 LINE",
"631 722 LINE",
"566 722 LINE",
"566 87 LINE",
"564 87 LINE",
"166 722 LINE",
"92 722 LINE"
);
},
{
closed = 1;
nodes = (
"329 -74 LINE",
"294 -219 LINE",
"337 -219 LINE",
"396 -74 LINE"
);
}
);
width = 722;
}
);
note = Ncommaaccent;
unicode = 0145;
},
{
glyphname = Ograve;
lastChange = "2020-10-05 17:32:20 +0000";
layers = (
{
hints = (
{
horizontal = 1;
place = "{-15, 60}";
type = Stem;
},
{
horizontal = 1;
place = "{677, 60}";
type = Stem;
},
{
place = "{67, 70}";
type = Stem;
},
{
place = "{641, 70}";
type = Stem;
},
{
horizontal = 1;
place = "{677, 250}";
type = Stem;
}
);
layerId = "324B6D7A-1AE4-424F-A6A7-4FAAB53DF00B";
paths = (
{
closed = 1;
nodes = (
"137 519 OFFCURVE",
"209 677 OFFCURVE",
"389 677 CURVE SMOOTH",
"569 677 OFFCURVE",
"641 519 OFFCURVE",
"641 361 CURVE SMOOTH",
"641 203 OFFCURVE",
"569 45 OFFCURVE",
"389 45 CURVE SMOOTH",
"209 45 OFFCURVE",
"137 203 OFFCURVE",
"137 361 CURVE SMOOTH"
);
},
{
closed = 1;
nodes = (
"711 586 OFFCURVE",
"597 737 OFFCURVE",
"389 737 CURVE SMOOTH",
"181 737 OFFCURVE",
"67 586 OFFCURVE",
"67 361 CURVE SMOOTH",
"67 136 OFFCURVE",
"181 -15 OFFCURVE",
"389 -15 CURVE SMOOTH",
"597 -15 OFFCURVE",
"711 136 OFFCURVE",
"711 361 CURVE SMOOTH"
);
},
{
closed = 1;
nodes = (
"270 927 LINE",
"397 784 LINE",
"441 784 LINE",
"350 927 LINE"
);
}
);
width = 778;
}
);
leftKerningGroup = O;
note = Ograve;
rightKerningGroup = O;
unicode = 00D2;
},
{
glyphname = Oacute;
lastChange = "2020-10-05 17:32:20 +0000";
layers = (
{
hints = (
{
horizontal = 1;
place = "{-15, 60}";
type = Stem;
},
{
horizontal = 1;
place = "{677, 60}";
type = Stem;
},
{
place = "{67, 70}";
type = Stem;
},
{
place = "{641, 70}";
type = Stem;
},
{
horizontal = 1;
place = "{677, 250}";
type = Stem;
}
);
layerId = "324B6D7A-1AE4-424F-A6A7-4FAAB53DF00B";
paths = (
{
closed = 1;
nodes = (
"137 519 OFFCURVE",
"209 677 OFFCURVE",
"389 677 CURVE SMOOTH",
"569 677 OFFCURVE",
"641 519 OFFCURVE",
"641 361 CURVE SMOOTH",
"641 203 OFFCURVE",
"569 45 OFFCURVE",
"389 45 CURVE SMOOTH",
"209 45 OFFCURVE",
"137 203 OFFCURVE",
"137 361 CURVE SMOOTH"
);
},
{
closed = 1;
nodes = (
"711 586 OFFCURVE",
"597 737 OFFCURVE",
"389 737 CURVE SMOOTH",
"181 737 OFFCURVE",
"67 586 OFFCURVE",
"67 361 CURVE SMOOTH",
"67 136 OFFCURVE",
"181 -15 OFFCURVE",
"389 -15 CURVE SMOOTH",
"597 -15 OFFCURVE",
"711 136 OFFCURVE",
"711 361 CURVE SMOOTH"
);
},
{
closed = 1;
nodes = (
"428 927 LINE",
"337 784 LINE",
"381 784 LINE",
"508 927 LINE"
);
}
);
width = 778;
}
);
leftKerningGroup = O;
note = Oacute;
rightKerningGroup = O;
unicode = 00D3;
},
{
glyphname = Ocircumflex;
lastChange = "2020-10-05 17:32:20 +0000";
layers = (
{
hints = (
{
horizontal = 1;
place = "{-15, 60}";
type = Stem;
},
{
horizontal = 1;
place = "{677, 60}";
type = Stem;
},
{
place = "{67, 70}";
type = Stem;
},
{
place = "{641, 70}";
type = Stem;
},
{
horizontal = 1;
place = "{677, 250}";
type = Stem;
}
);
layerId = "324B6D7A-1AE4-424F-A6A7-4FAAB53DF00B";
paths = (
{
closed = 1;
nodes = (
"137 519 OFFCURVE",
"209 677 OFFCURVE",
"389 677 CURVE SMOOTH",
"569 677 OFFCURVE",
"641 519 OFFCURVE",
"641 361 CURVE SMOOTH",
"641 203 OFFCURVE",
"569 45 OFFCURVE",
"389 45 CURVE SMOOTH",
"209 45 OFFCURVE",
"137 203 OFFCURVE",
"137 361 CURVE SMOOTH"
);
},
{
closed = 1;
nodes = (
"711 586 OFFCURVE",
"597 737 OFFCURVE",
"389 737 CURVE SMOOTH",
"181 737 OFFCURVE",
"67 586 OFFCURVE",
"67 361 CURVE SMOOTH",
"67 136 OFFCURVE",
"181 -15 OFFCURVE",
"389 -15 CURVE SMOOTH",
"597 -15 OFFCURVE",
"711 136 OFFCURVE",
"711 361 CURVE SMOOTH"
);
},
{
closed = 1;
nodes = (
"253 782 LINE",
"299 782 LINE",
"389 888 LINE",
"478 782 LINE",
"525 782 LINE",
"426 927 LINE",
"353 927 LINE"
);
}
);
width = 778;
}
);
leftKerningGroup = O;
note = Ocircumflex;
rightKerningGroup = O;
unicode = 00D4;
},
{
glyphname = Otilde;
lastChange = "2020-10-05 17:32:20 +0000";
layers = (
{
hints = (
{
horizontal = 1;
place = "{-15, 60}";
type = Stem;
},
{
horizontal = 1;
place = "{677, 60}";
type = Stem;
},
{
horizontal = 1;
place = "{830, 52}";
type = Stem;
},
{
horizontal = 1;
place = "{915, -20}";
target = down;
type = TopGhost;
},
{
place = "{67, 70}";
type = Stem;
},
{
place = "{641, 70}";
type = Stem;
}
);
layerId = "324B6D7A-1AE4-424F-A6A7-4FAAB53DF00B";
paths = (
{
closed = 1;
nodes = (
"137 519 OFFCURVE",
"209 677 OFFCURVE",
"389 677 CURVE SMOOTH",
"569 677 OFFCURVE",
"641 519 OFFCURVE",
"641 361 CURVE SMOOTH",
"641 203 OFFCURVE",
"569 45 OFFCURVE",
"389 45 CURVE SMOOTH",
"209 45 OFFCURVE",
"137 203 OFFCURVE",
"137 361 CURVE SMOOTH"
);
},
{
closed = 1;
nodes = (
"711 586 OFFCURVE",
"597 737 OFFCURVE",
"389 737 CURVE SMOOTH",
"181 737 OFFCURVE",
"67 586 OFFCURVE",
"67 361 CURVE SMOOTH",
"67 136 OFFCURVE",
"181 -15 OFFCURVE",
"389 -15 CURVE SMOOTH",
"597 -15 OFFCURVE",
"711 136 OFFCURVE",
"711 361 CURVE SMOOTH"
);
},
{
closed = 1;
nodes = (
"489 915 LINE",
"481 894 OFFCURVE",
"462 882 OFFCURVE",
"439 882 CURVE SMOOTH",
"431 882 OFFCURVE",
"415 887 OFFCURVE",
"400 891 CURVE",
"385 896 OFFCURVE",
"369 901 OFFCURVE",
"360 902 CURVE",
"301 911 OFFCURVE",
"264 877 OFFCURVE",
"252 822 CURVE",
"290 822 LINE",
"295 842 OFFCURVE",
"317 851 OFFCURVE",
"337 851 CURVE SMOOTH",
"358 851 OFFCURVE",
"376 846 OFFCURVE",
"391 841 CURVE",
"407 834 OFFCURVE",
"421 830 OFFCURVE",
"436 830 CURVE SMOOTH",
"487 830 OFFCURVE",
"516 870 OFFCURVE",
"527 915 CURVE"
);
}
);
width = 778;
}
);
leftKerningGroup = O;
note = Otilde;
rightKerningGroup = O;
unicode = 00D5;
},
{
glyphname = Odieresis;
lastChange = "2020-10-05 17:32:20 +0000";
layers = (
{
hints = (
{
horizontal = 1;
place = "{-15, 60}";
type = Stem;
},
{
horizontal = 1;
place = "{677, 60}";
type = Stem;
},
{
horizontal = 1;
place = "{824, 88}";
type = Stem;
},
{
place = "{67, 70}";
type = Stem;
},
{
place = "{265, 74}";
type = Stem;
},
{
place = "{439, 74}";
type = Stem;
},
{
place = "{641, 70}";
type = Stem;
}
);
layerId = "324B6D7A-1AE4-424F-A6A7-4FAAB53DF00B";
paths = (
{
closed = 1;
nodes = (
"137 519 OFFCURVE",
"209 677 OFFCURVE",
"389 677 CURVE SMOOTH",
"569 677 OFFCURVE",
"641 519 OFFCURVE",
"641 361 CURVE SMOOTH",
"641 203 OFFCURVE",
"569 45 OFFCURVE",
"389 45 CURVE SMOOTH",
"209 45 OFFCURVE",
"137 203 OFFCURVE",
"137 361 CURVE SMOOTH"
);
},
{
closed = 1;
nodes = (
"711 586 OFFCURVE",
"597 737 OFFCURVE",
"389 737 CURVE SMOOTH",
"181 737 OFFCURVE",
"67 586 OFFCURVE",
"67 361 CURVE SMOOTH",
"67 136 OFFCURVE",
"181 -15 OFFCURVE",
"389 -15 CURVE SMOOTH",
"597 -15 OFFCURVE",
"711 136 OFFCURVE",
"711 361 CURVE SMOOTH"
);
},
{
closed = 1;
nodes = (
"513 824 LINE",
"513 912 LINE",
"439 912 LINE",
"439 824 LINE"
);
},
{
closed = 1;
nodes = (
"339 824 LINE",
"339 912 LINE",
"265 912 LINE",
"265 824 LINE"
);
}
);
width = 778;
}
);
leftKerningGroup = O;
note = Odieresis;
rightKerningGroup = O;
unicode = 00D6;
},
{
glyphname = Omacron;
lastChange = "2020-10-05 17:32:20 +0000";
layers = (
{
hints = (
{
horizontal = 1;
place = "{-15, 60}";
type = Stem;
},
{
horizontal = 1;
place = "{677, 60}";
type = Stem;
},
{
place = "{67, 70}";
type = Stem;
},
{
place = "{641, 70}";
type = Stem;
},
{
horizontal = 1;
place = "{843, 50}";
type = Stem;
}
);
layerId = "324B6D7A-1AE4-424F-A6A7-4FAAB53DF00B";
paths = (
{
closed = 1;
nodes = (
"137 519 OFFCURVE",
"209 677 OFFCURVE",
"389 677 CURVE SMOOTH",
"569 677 OFFCURVE",
"641 519 OFFCURVE",
"641 361 CURVE SMOOTH",
"641 203 OFFCURVE",
"569 45 OFFCURVE",
"389 45 CURVE SMOOTH",
"209 45 OFFCURVE",
"137 203 OFFCURVE",
"137 361 CURVE SMOOTH"
);
},
{
closed = 1;
nodes = (
"711 586 OFFCURVE",
"596 737 OFFCURVE",
"389 737 CURVE SMOOTH",
"182 737 OFFCURVE",
"67 586 OFFCURVE",
"67 361 CURVE SMOOTH",
"67 136 OFFCURVE",
"182 -15 OFFCURVE",
"389 -15 CURVE SMOOTH",
"596 -15 OFFCURVE",
"711 136 OFFCURVE",
"711 361 CURVE SMOOTH"
);
},
{
closed = 1;
nodes = (
"512 843 LINE",
"512 893 LINE",
"267 893 LINE",
"267 843 LINE"
);
}
);
width = 778;
}
);
leftKerningGroup = O;
note = Omacron;
rightKerningGroup = O;
unicode = 014C;
},
{
glyphname = Obreve;
lastChange = "2020-10-05 17:32:20 +0000";
layers = (
{
hints = (
{
horizontal = 1;
place = "{-15, 60}";
type = Stem;
},
{
horizontal = 1;
place = "{677, 60}";
type = Stem;
},
{
place = "{67, 70}";
type = Stem;
},
{
place = "{641, 70}";
type = Stem;
},
{
horizontal = 1;
place = "{829, 46}";
type = Stem;
},
{
horizontal = 1;
place = "{937, -20}";
target = down;
type = TopGhost;
},
{
place = "{267, 244}";
type = Stem;
}
);
layerId = "324B6D7A-1AE4-424F-A6A7-4FAAB53DF00B";
paths = (
{
closed = 1;
nodes = (
"137 519 OFFCURVE",
"209 677 OFFCURVE",
"389 677 CURVE SMOOTH",
"569 677 OFFCURVE",
"641 519 OFFCURVE",
"641 361 CURVE SMOOTH",
"641 203 OFFCURVE",
"569 45 OFFCURVE",
"389 45 CURVE SMOOTH",
"209 45 OFFCURVE",
"137 203 OFFCURVE",
"137 361 CURVE SMOOTH"
);
},
{
closed = 1;
nodes = (
"711 586 OFFCURVE",
"596 737 OFFCURVE",
"389 737 CURVE SMOOTH",
"182 737 OFFCURVE",
"67 586 OFFCURVE",
"67 361 CURVE SMOOTH",
"67 136 OFFCURVE",
"182 -15 OFFCURVE",
"389 -15 CURVE SMOOTH",
"596 -15 OFFCURVE",
"711 136 OFFCURVE",
"711 361 CURVE SMOOTH"
);
},
{
closed = 1;
nodes = (
"490 937 LINE",
"477 889 OFFCURVE",
"425 875 OFFCURVE",
"386 875 CURVE SMOOTH",
"348 875 OFFCURVE",
"301 889 OFFCURVE",
"290 937 CURVE",
"267 937 LINE",
"268 864 OFFCURVE",
"321 829 OFFCURVE",
"386 829 CURVE SMOOTH",
"458 829 OFFCURVE",
"506 857 OFFCURVE",
"511 937 CURVE"
);
}
);
width = 778;
}
);
leftKerningGroup = O;
note = Obreve;
rightKerningGroup = O;
unicode = 014E;
},
{
glyphname = Ohungarumlaut;
lastChange = "2020-10-05 17:32:20 +0000";
layers = (
{
hints = (
{
horizontal = 1;
place = "{-15, 60}";
type = Stem;
},
{
horizontal = 1;
place = "{677, 60}";
type = Stem;
},
{
place = "{67, 70}";
type = Stem;
},
{
place = "{641, 70}";
type = Stem;
},
{
horizontal = 1;
place = "{786, 141}";
type = Stem;
}
);
layerId = "324B6D7A-1AE4-424F-A6A7-4FAAB53DF00B";
paths = (
{
closed = 1;
nodes = (
"137 519 OFFCURVE",
"209 677 OFFCURVE",
"389 677 CURVE SMOOTH",
"569 677 OFFCURVE",
"641 519 OFFCURVE",
"641 361 CURVE SMOOTH",
"641 203 OFFCURVE",
"569 45 OFFCURVE",
"389 45 CURVE SMOOTH",
"209 45 OFFCURVE",
"137 203 OFFCURVE",
"137 361 CURVE SMOOTH"
);
},
{
closed = 1;
nodes = (
"711 586 OFFCURVE",
"596 737 OFFCURVE",
"389 737 CURVE SMOOTH",
"182 737 OFFCURVE",
"67 586 OFFCURVE",
"67 361 CURVE SMOOTH",
"67 136 OFFCURVE",
"182 -15 OFFCURVE",
"389 -15 CURVE SMOOTH",
"596 -15 OFFCURVE",
"711 136 OFFCURVE",
"711 361 CURVE SMOOTH"
);
},
{
closed = 1;
nodes = (
"297 786 LINE",
"344 786 LINE",
"473 927 LINE",
"392 927 LINE"
);
},
{
closed = 1;
nodes = (
"428 786 LINE",
"475 786 LINE",
"604 927 LINE",
"523 927 LINE"
);
}
);
width = 778;
}
);
leftKerningGroup = O;
note = Ohungarumlaut;
rightKerningGroup = O;
unicode = 0150;
},
{
glyphname = Oslash;
lastChange = "2020-10-05 17:32:20 +0000";
layers = (
{
hints = (
{
horizontal = 1;
place = "{-15, 60}";
type = Stem;
},
{
horizontal = 1;
place = "{677, 60}";
type = Stem;
},
{
place = "{67, 70}";
type = Stem;
},
{
place = "{641, 70}";
type = Stem;
}
);
layerId = "324B6D7A-1AE4-424F-A6A7-4FAAB53DF00B";
paths = (
{
closed = 1;
nodes = (
"186 160 LINE",
"152 215 OFFCURVE",
"137 288 OFFCURVE",
"137 361 CURVE SMOOTH",
"137 519 OFFCURVE",
"209 677 OFFCURVE",
"389 677 CURVE SMOOTH",
"470 677 OFFCURVE",
"530 645 OFFCURVE",
"571 593 CURVE"
);
},
{
closed = 1;
nodes = (
"163 76 LINE",
"218 17 OFFCURVE",
"294 -15 OFFCURVE",
"389 -15 CURVE SMOOTH",
"596 -15 OFFCURVE",
"711 136 OFFCURVE",
"711 361 CURVE SMOOTH",
"711 464 OFFCURVE",
"687 551 OFFCURVE",
"641 615 CURVE",
"726 712 LINE",
"699 737 LINE",
"617 645 LINE",
"563 703 OFFCURVE",
"486 737 OFFCURVE",
"389 737 CURVE SMOOTH",
"182 737 OFFCURVE",
"67 586 OFFCURVE",
"67 361 CURVE SMOOTH",
"67 257 OFFCURVE",
"91 169 OFFCURVE",
"138 106 CURVE",
"54 12 LINE",
"83 -15 LINE"
);
},
{
closed = 1;
nodes = (
"593 561 LINE",
"626 504 OFFCURVE",
"641 433 OFFCURVE",
"641 361 CURVE SMOOTH",
"641 203 OFFCURVE",
"569 45 OFFCURVE",
"389 45 CURVE SMOOTH",
"308 45 OFFCURVE",
"249 77 OFFCURVE",
"209 127 CURVE"
);
}
);
width = 778;
}
);
leftKerningGroup = O;
note = Oslash;
rightKerningGroup = O;
unicode = 00D8;
},
{
glyphname = Oslashacute;
lastChange = "2020-10-05 17:32:20 +0000";
layers = (
{
hints = (
{
horizontal = 1;
place = "{-15, 60}";
type = Stem;
},
{
horizontal = 1;
place = "{677, 60}";
type = Stem;
},
{
place = "{67, 70}";
type = Stem;
},
{
place = "{641, 70}";
type = Stem;
},
{
horizontal = 1;
place = "{784, 21}";
target = up;
type = BottomGhost;
},
{
horizontal = 1;
place = "{927, -20}";
target = down;
type = TopGhost;
}
);
layerId = "324B6D7A-1AE4-424F-A6A7-4FAAB53DF00B";
paths = (
{
closed = 1;
nodes = (
"186 160 LINE",
"152 215 OFFCURVE",
"137 288 OFFCURVE",
"137 361 CURVE SMOOTH",
"137 519 OFFCURVE",
"209 677 OFFCURVE",
"389 677 CURVE SMOOTH",
"470 677 OFFCURVE",
"530 645 OFFCURVE",
"571 593 CURVE"
);
},
{
closed = 1;
nodes = (
"163 76 LINE",
"218 17 OFFCURVE",
"294 -15 OFFCURVE",
"389 -15 CURVE SMOOTH",
"596 -15 OFFCURVE",
"711 136 OFFCURVE",
"711 361 CURVE SMOOTH",
"711 464 OFFCURVE",
"687 551 OFFCURVE",
"641 615 CURVE",
"726 712 LINE",
"699 737 LINE",
"617 645 LINE",
"563 703 OFFCURVE",
"486 737 OFFCURVE",
"389 737 CURVE SMOOTH",
"182 737 OFFCURVE",
"67 586 OFFCURVE",
"67 361 CURVE SMOOTH",
"67 257 OFFCURVE",
"91 169 OFFCURVE",
"138 106 CURVE",
"54 12 LINE",
"83 -15 LINE"
);
},
{
closed = 1;
nodes = (
"593 561 LINE",
"626 504 OFFCURVE",
"641 433 OFFCURVE",
"641 361 CURVE SMOOTH",
"641 203 OFFCURVE",
"569 45 OFFCURVE",
"389 45 CURVE SMOOTH",
"308 45 OFFCURVE",
"249 77 OFFCURVE",
"209 127 CURVE"
);
},
{
closed = 1;
nodes = (
"426 927 LINE",
"335 784 LINE",
"379 784 LINE",
"506 927 LINE"
);
}
);
width = 778;
}
);
leftKerningGroup = O;
note = Oslashacute;
rightKerningGroup = O;
unicode = 01FE;
},
{
glyphname = OE;
lastChange = "2020-10-05 17:32:20 +0000";
layers = (
{
hints = (
{
horizontal = 1;
place = "{-15, 60}";
type = Stem;
},
{
horizontal = 1;
place = "{343, 60}";
type = Stem;
},
{
horizontal = 1;
place = "{677, 45}";
type = Stem;
},
{
place = "{61, 70}";
type = Stem;
},
{
place = "{553, 67}";
type = Stem;
},
{
horizontal = 1;
place = "{0, 60}";
type = Stem;
},
{
horizontal = 1;
place = "{662, 60}";
type = Stem;
},
{
horizontal = 1;
place = "{677, 60}";
type = Stem;
}
);
layerId = "324B6D7A-1AE4-424F-A6A7-4FAAB53DF00B";
paths = (
{
closed = 1;
nodes = (
"131 519 OFFCURVE",
"203 677 OFFCURVE",
"363 677 CURVE SMOOTH",
"486 677 OFFCURVE",
"554 620 OFFCURVE",
"553 474 CURVE SMOOTH",
"553 221 LINE SMOOTH",
"553 110 OFFCURVE",
"480 49 OFFCURVE",
"363 45 CURVE SMOOTH",
"203 45 OFFCURVE",
"131 203 OFFCURVE",
"131 361 CURVE SMOOTH"
);
},
{
closed = 1;
nodes = (
"555 0 LINE",
"946 0 LINE",
"946 60 LINE",
"620 60 LINE",
"620 343 LINE",
"917 343 LINE",
"917 403 LINE",
"620 403 LINE",
"620 662 LINE",
"931 662 LINE",
"931 722 LINE",
"555 722 LINE",
"555 659 LINE",
"495 720 OFFCURVE",
"432 737 OFFCURVE",
"363 737 CURVE SMOOTH",
"176 737 OFFCURVE",
"61 586 OFFCURVE",
"61 361 CURVE SMOOTH",
"61 136 OFFCURVE",
"176 -15 OFFCURVE",
"363 -15 CURVE SMOOTH",
"430 -15 OFFCURVE",
"508 11 OFFCURVE",
"551 69 CURVE",
"555 69 LINE"
);
}
);
width = 1000;
}
);
leftKerningGroup = O;
note = OE;
rightKerningGroup = E;
unicode = 0152;
},
{
glyphname = Racute;
lastChange = "2020-10-05 17:32:20 +0000";
layers = (
{
hints = (
{
horizontal = 1;
place = "{0, 21}";
target = up;
type = BottomGhost;
},
{
horizontal = 1;
place = "{344, 60}";
type = Stem;
},
{
horizontal = 1;
place = "{662, 60}";
type = Stem;
},
{
place = "{103, 65}";
type = Stem;
},
{
place = "{513, 70}";
type = Stem;
},
{
horizontal = 1;
place = "{784, 21}";
target = up;
type = BottomGhost;
},
{
horizontal = 1;
place = "{927, -20}";
target = down;
type = TopGhost;
}
);
layerId = "324B6D7A-1AE4-424F-A6A7-4FAAB53DF00B";
paths = (
{
closed = 1;
nodes = (
"168 404 LINE",
"168 662 LINE",
"314 662 LINE SMOOTH",
"383 662 OFFCURVE",
"513 672 OFFCURVE",
"513 533 CURVE SMOOTH",
"513 410 OFFCURVE",
"399 404 OFFCURVE",
"307 404 CURVE SMOOTH"
);
},
{
closed = 1;
nodes = (
"168 344 LINE",
"347 344 LINE SMOOTH",
"478 344 OFFCURVE",
"488 315 OFFCURVE",
"503 150 CURVE SMOOTH",
"507 99 OFFCURVE",
"511 48 OFFCURVE",
"528 0 CURVE",
"603 0 LINE",
"574 44 OFFCURVE",
"578 98 OFFCURVE",
"565 215 CURVE SMOOTH",
"556 299 OFFCURVE",
"536 361 OFFCURVE",
"444 376 CURVE",
"444 378 LINE",
"528 399 OFFCURVE",
"583 455 OFFCURVE",
"583 533 CURVE SMOOTH",
"583 602 OFFCURVE",
"559 654 OFFCURVE",
"509 684 CURVE SMOOTH",
"454 718 OFFCURVE",
"402 722 OFFCURVE",
"339 722 CURVE SMOOTH",
"103 722 LINE",
"103 0 LINE",
"168 0 LINE"
);
},
{
closed = 1;
nodes = (
"366 927 LINE",
"275 784 LINE",
"319 784 LINE",
"446 927 LINE"
);
}
);
width = 667;
}
);
note = Racute;
rightKerningGroup = R;
unicode = 0154;
},
{
glyphname = Rcaron;
lastChange = "2020-10-05 17:32:20 +0000";
layers = (
{
hints = (
{
horizontal = 1;
place = "{0, 21}";
target = up;
type = BottomGhost;
},
{
horizontal = 1;
place = "{344, 60}";
type = Stem;
},
{
horizontal = 1;
place = "{662, 60}";
type = Stem;
},
{
place = "{103, 65}";
type = Stem;
},
{
place = "{513, 70}";
type = Stem;
},
{
horizontal = 1;
place = "{782, 21}";
target = up;
type = BottomGhost;
},
{
horizontal = 1;
place = "{927, -20}";
target = down;
type = TopGhost;
}
);
layerId = "324B6D7A-1AE4-424F-A6A7-4FAAB53DF00B";
paths = (
{
closed = 1;
nodes = (
"168 404 LINE",
"168 662 LINE",
"314 662 LINE SMOOTH",
"383 662 OFFCURVE",
"513 672 OFFCURVE",
"513 533 CURVE SMOOTH",
"513 410 OFFCURVE",
"399 404 OFFCURVE",
"307 404 CURVE SMOOTH"
);
},
{
closed = 1;
nodes = (
"168 344 LINE",
"347 344 LINE SMOOTH",
"478 344 OFFCURVE",
"488 315 OFFCURVE",
"503 150 CURVE SMOOTH",
"507 99 OFFCURVE",
"511 48 OFFCURVE",
"528 0 CURVE",
"603 0 LINE",
"574 44 OFFCURVE",
"578 98 OFFCURVE",
"565 215 CURVE SMOOTH",
"556 299 OFFCURVE",
"536 361 OFFCURVE",
"444 376 CURVE",
"444 378 LINE",
"528 399 OFFCURVE",
"583 455 OFFCURVE",
"583 533 CURVE SMOOTH",
"583 602 OFFCURVE",
"559 654 OFFCURVE",
"509 684 CURVE SMOOTH",
"454 718 OFFCURVE",
"402 722 OFFCURVE",
"339 722 CURVE SMOOTH",
"103 722 LINE",
"103 0 LINE",
"168 0 LINE"
);
},
{
closed = 1;
nodes = (
"465 927 LINE",
"419 927 LINE",
"329 821 LINE",
"240 927 LINE",
"193 927 LINE",
"292 782 LINE",
"365 782 LINE"
);
}
);
width = 667;
}
);
note = Rcaron;
rightKerningGroup = R;
unicode = 0158;
},
{
glyphname = Rcommaaccent;
lastChange = "2020-10-05 17:32:20 +0000";
layers = (
{
hints = (
{
horizontal = 1;
place = "{0, 21}";
target = up;
type = BottomGhost;
},
{
horizontal = 1;
place = "{344, 60}";
type = Stem;
},
{
horizontal = 1;
place = "{662, 60}";
type = Stem;
},
{
place = "{103, 65}";
type = Stem;
},
{
place = "{513, 70}";
type = Stem;
},
{
horizontal = 1;
place = "{-219, 21}";
target = up;
type = BottomGhost;
},
{
horizontal = 1;
place = "{-74, -20}";
target = down;
type = TopGhost;
}
);
layerId = "324B6D7A-1AE4-424F-A6A7-4FAAB53DF00B";
paths = (
{
closed = 1;
nodes = (
"168 404 LINE",
"168 662 LINE",
"314 662 LINE SMOOTH",
"383 662 OFFCURVE",
"513 672 OFFCURVE",
"513 533 CURVE SMOOTH",
"513 410 OFFCURVE",
"399 404 OFFCURVE",
"307 404 CURVE SMOOTH"
);
},
{
closed = 1;
nodes = (
"168 344 LINE",
"347 344 LINE SMOOTH",
"478 344 OFFCURVE",
"488 315 OFFCURVE",
"503 150 CURVE SMOOTH",
"507 99 OFFCURVE",
"511 48 OFFCURVE",
"528 0 CURVE",
"603 0 LINE",
"574 44 OFFCURVE",
"578 98 OFFCURVE",
"565 215 CURVE SMOOTH",
"556 299 OFFCURVE",
"536 361 OFFCURVE",
"444 376 CURVE",
"444 378 LINE",
"528 399 OFFCURVE",
"583 455 OFFCURVE",
"583 533 CURVE SMOOTH",
"583 602 OFFCURVE",
"559 654 OFFCURVE",
"509 684 CURVE SMOOTH",
"454 718 OFFCURVE",
"402 722 OFFCURVE",
"339 722 CURVE SMOOTH",
"103 722 LINE",
"103 0 LINE",
"168 0 LINE"
);
},
{
closed = 1;
nodes = (
"301 -74 LINE",
"266 -219 LINE",
"309 -219 LINE",
"368 -74 LINE"
);
}
);
width = 667;
}
);
note = Rcommaaccent;
rightKerningGroup = R;
unicode = 0156;
},
{
glyphname = Sacute;
lastChange = "2020-10-05 17:32:20 +0000";
layers = (
{
hints = (
{
horizontal = 1;
place = "{-15, 60}";
type = Stem;
},
{
horizontal = 1;
place = "{677, 60}";
type = Stem;
},
{
place = "{75, 70}";
type = Stem;
},
{
place = "{483, 70}";
type = Stem;
},
{
horizontal = 1;
place = "{565, 172}";
type = Stem;
},
{
place = "{75, 53}";
type = Stem;
},
{
horizontal = 1;
place = "{-15, 203}";
type = Stem;
},
{
place = "{58, 70}";
type = Stem;
},
{
horizontal = 1;
place = "{784, 21}";
target = up;
type = BottomGhost;
},
{
horizontal = 1;
place = "{927, -20}";
target = down;
type = TopGhost;
}
);
layerId = "324B6D7A-1AE4-424F-A6A7-4FAAB53DF00B";
paths = (
{
closed = 1;
nodes = (
"553 439 OFFCURVE",
"145 346 OFFCURVE",
"145 551 CURVE SMOOTH",
"145 639 OFFCURVE",
"238 677 OFFCURVE",
"313 677 CURVE SMOOTH",
"387 677 OFFCURVE",
"468 654 OFFCURVE",
"470 565 CURVE",
"540 565 LINE",
"524 704 OFFCURVE",
"400 737 OFFCURVE",
"305 737 CURVE SMOOTH",
"191 737 OFFCURVE",
"75 668 OFFCURVE",
"75 542 CURVE SMOOTH",
"75 386 OFFCURVE",
"253 349 OFFCURVE",
"370 310 CURVE SMOOTH",
"431 290 OFFCURVE",
"483 256 OFFCURVE",
"483 184 CURVE SMOOTH",
"483 92 OFFCURVE",
"390 45 OFFCURVE",
"309 45 CURVE SMOOTH",
"212 45 OFFCURVE",
"130 77 OFFCURVE",
"128 188 CURVE",
"58 188 LINE",
"61 69 OFFCURVE",
"158 -15 OFFCURVE",
"273 -15 CURVE SMOOTH",
"418 -15 OFFCURVE",
"553 33 OFFCURVE",
"553 190 CURVE SMOOTH"
);
},
{
closed = 1;
nodes = (
"367 927 LINE",
"276 784 LINE",
"320 784 LINE",
"447 927 LINE"
);
}
);
width = 611;
}
);
leftKerningGroup = S;
note = Sacute;
rightKerningGroup = S;
unicode = 015A;
},
{
glyphname = Scircumflex;
lastChange = "2020-10-05 17:32:20 +0000";
layers = (
{
hints = (
{
horizontal = 1;
place = "{-15, 60}";
type = Stem;
},
{
horizontal = 1;
place = "{677, 60}";
type = Stem;
},
{
place = "{75, 70}";
type = Stem;
},
{
place = "{483, 70}";
type = Stem;
},
{
horizontal = 1;
place = "{565, 172}";
type = Stem;
},
{
place = "{75, 53}";
type = Stem;
},
{
horizontal = 1;
place = "{-15, 203}";
type = Stem;
},
{
place = "{58, 70}";
type = Stem;
},
{
horizontal = 1;
place = "{782, 21}";
target = up;
type = BottomGhost;
},
{
horizontal = 1;
place = "{927, -20}";
target = down;
type = TopGhost;
}
);
layerId = "324B6D7A-1AE4-424F-A6A7-4FAAB53DF00B";
paths = (
{
closed = 1;
nodes = (
"553 439 OFFCURVE",
"145 346 OFFCURVE",
"145 551 CURVE SMOOTH",
"145 639 OFFCURVE",
"238 677 OFFCURVE",
"313 677 CURVE SMOOTH",
"387 677 OFFCURVE",
"468 654 OFFCURVE",
"470 565 CURVE",
"540 565 LINE",
"524 704 OFFCURVE",
"400 737 OFFCURVE",
"305 737 CURVE SMOOTH",
"191 737 OFFCURVE",
"75 668 OFFCURVE",
"75 542 CURVE SMOOTH",
"75 386 OFFCURVE",
"253 349 OFFCURVE",
"370 310 CURVE SMOOTH",
"431 290 OFFCURVE",
"483 256 OFFCURVE",
"483 184 CURVE SMOOTH",
"483 92 OFFCURVE",
"390 45 OFFCURVE",
"309 45 CURVE SMOOTH",
"212 45 OFFCURVE",
"130 77 OFFCURVE",
"128 188 CURVE",
"58 188 LINE",
"61 69 OFFCURVE",
"158 -15 OFFCURVE",
"273 -15 CURVE SMOOTH",
"418 -15 OFFCURVE",
"553 33 OFFCURVE",
"553 190 CURVE SMOOTH"
);
},
{
closed = 1;
nodes = (
"175 782 LINE",
"221 782 LINE",
"311 888 LINE",
"400 782 LINE",
"447 782 LINE",
"348 927 LINE",
"275 927 LINE"
);
}
);
width = 611;
}
);
leftKerningGroup = S;
note = Scircumflex;
rightKerningGroup = S;
unicode = 015C;
},
{
glyphname = Scaron;
lastChange = "2020-10-05 17:32:20 +0000";
layers = (
{
hints = (
{
horizontal = 1;
place = "{-15, 60}";
type = Stem;
},
{
horizontal = 1;
place = "{677, 60}";
type = Stem;
},
{
place = "{75, 70}";
type = Stem;
},
{
place = "{483, 70}";
type = Stem;
},
{
horizontal = 1;
place = "{565, 172}";
type = Stem;
},
{
horizontal = 1;
place = "{-15, 203}";
type = Stem;
},
{
horizontal = 1;
place = "{677, 250}";
type = Stem;
},
{
place = "{58, 70}";
type = Stem;
}
);
layerId = "324B6D7A-1AE4-424F-A6A7-4FAAB53DF00B";
paths = (
{
closed = 1;
nodes = (
"553 439 OFFCURVE",
"145 346 OFFCURVE",
"145 551 CURVE SMOOTH",
"145 639 OFFCURVE",
"238 677 OFFCURVE",
"313 677 CURVE SMOOTH",
"387 677 OFFCURVE",
"468 654 OFFCURVE",
"470 565 CURVE",
"540 565 LINE",
"524 704 OFFCURVE",
"400 737 OFFCURVE",
"305 737 CURVE SMOOTH",
"191 737 OFFCURVE",
"75 668 OFFCURVE",
"75 542 CURVE SMOOTH",
"75 386 OFFCURVE",
"253 349 OFFCURVE",
"370 310 CURVE SMOOTH",
"431 290 OFFCURVE",
"483 256 OFFCURVE",
"483 184 CURVE SMOOTH",
"483 92 OFFCURVE",
"390 45 OFFCURVE",
"309 45 CURVE SMOOTH",
"212 45 OFFCURVE",
"130 77 OFFCURVE",
"128 188 CURVE",
"58 188 LINE",
"61 69 OFFCURVE",
"158 -15 OFFCURVE",
"273 -15 CURVE SMOOTH",
"418 -15 OFFCURVE",
"553 33 OFFCURVE",
"553 190 CURVE SMOOTH"
);
},
{
closed = 1;
nodes = (
"442 927 LINE",
"396 927 LINE",
"306 821 LINE",
"217 927 LINE",
"170 927 LINE",
"269 782 LINE",
"342 782 LINE"
);
}
);
width = 611;
}
);
leftKerningGroup = S;
note = Scaron;
rightKerningGroup = S;
unicode = 0160;
},
{
glyphname = Scedilla;
lastChange = "2020-10-05 17:32:20 +0000";
layers = (
{
hints = (
{
horizontal = 1;
place = "{-183, 27}";
type = Stem;
},
{
horizontal = 1;
place = "{-14, 59}";
type = Stem;
},
{
horizontal = 1;
place = "{677, 60}";
type = Stem;
},
{
place = "{75, 70}";
type = Stem;
},
{
place = "{350, 56}";
type = Stem;
},
{
place = "{483, 70}";
type = Stem;
},
{
horizontal = 1;
place = "{565, 172}";
type = Stem;
},
{
place = "{470, 70}";
type = Stem;
},
{
place = "{58, 70}";
type = Stem;
}
);
layerId = "324B6D7A-1AE4-424F-A6A7-4FAAB53DF00B";
paths = (
{
closed = 1;
nodes = (
"208 -172 LINE",
"234 -179 OFFCURVE",
"262 -183 OFFCURVE",
"293 -183 CURVE SMOOTH",
"333 -183 OFFCURVE",
"406 -169 OFFCURVE",
"406 -112 CURVE SMOOTH",
"406 -61 OFFCURVE",
"355 -50 OFFCURVE",
"305 -50 CURVE",
"315 -14 LINE",
"445 -6 OFFCURVE",
"553 55 OFFCURVE",
"553 193 CURVE SMOOTH",
"553 329 OFFCURVE",
"432 361 OFFCURVE",
"323 398 CURVE SMOOTH",
"230 427 OFFCURVE",
"145 453 OFFCURVE",
"145 551 CURVE SMOOTH",
"145 639 OFFCURVE",
"237 677 OFFCURVE",
"313 677 CURVE SMOOTH",
"388 677 OFFCURVE",
"467 654 OFFCURVE",
"470 565 CURVE",
"540 565 LINE",
"532 704 OFFCURVE",
"416 737 OFFCURVE",
"305 737 CURVE SMOOTH",
"191 737 OFFCURVE",
"75 667 OFFCURVE",
"75 542 CURVE SMOOTH",
"75 422 OFFCURVE",
"163 378 OFFCURVE",
"302 335 CURVE SMOOTH",
"414 300 OFFCURVE",
"483 274 OFFCURVE",
"483 187 CURVE SMOOTH",
"483 86 OFFCURVE",
"389 45 OFFCURVE",
"309 45 CURVE SMOOTH",
"212 45 OFFCURVE",
"131 76 OFFCURVE",
"128 188 CURVE",
"58 188 LINE",
"61 47 OFFCURVE",
"166 -12 OFFCURVE",
"290 -15 CURVE",
"269 -81 LINE",
"280 -78 OFFCURVE",
"287 -79 OFFCURVE",
"298 -79 CURVE SMOOTH",
"321 -79 OFFCURVE",
"350 -84 OFFCURVE",
"350 -115 CURVE SMOOTH",
"350 -150 OFFCURVE",
"319 -156 OFFCURVE",
"290 -156 CURVE SMOOTH",
"267 -156 OFFCURVE",
"242 -152 OFFCURVE",
"215 -144 CURVE"
);
}
);
width = 611;
}
);
leftKerningGroup = S;
note = Scedilla;
rightKerningGroup = S;
unicode = 015E;
},
{
glyphname = Scommaaccent;
lastChange = "2020-10-05 17:32:20 +0000";
layers = (
{
hints = (
{
horizontal = 1;
place = "{-15, 60}";
type = Stem;
},
{
horizontal = 1;
place = "{677, 60}";
type = Stem;
},
{
place = "{75, 70}";
type = Stem;
},
{
place = "{483, 70}";
type = Stem;
},
{
horizontal = 1;
place = "{565, 172}";
type = Stem;
},
{
place = "{75, 53}";
type = Stem;
},
{
horizontal = 1;
place = "{-15, 203}";
type = Stem;
},
{
place = "{58, 70}";
type = Stem;
},
{
horizontal = 1;
place = "{-219, 21}";
target = up;
type = BottomGhost;
},
{
horizontal = 1;
place = "{-74, -20}";
target = down;
type = TopGhost;
}
);
layerId = "324B6D7A-1AE4-424F-A6A7-4FAAB53DF00B";
paths = (
{
closed = 1;
nodes = (
"553 439 OFFCURVE",
"145 346 OFFCURVE",
"145 551 CURVE SMOOTH",
"145 639 OFFCURVE",
"238 677 OFFCURVE",
"313 677 CURVE SMOOTH",
"387 677 OFFCURVE",
"468 654 OFFCURVE",
"470 565 CURVE",
"540 565 LINE",
"524 704 OFFCURVE",
"400 737 OFFCURVE",
"305 737 CURVE SMOOTH",
"191 737 OFFCURVE",
"75 668 OFFCURVE",
"75 542 CURVE SMOOTH",
"75 386 OFFCURVE",
"253 349 OFFCURVE",
"370 310 CURVE SMOOTH",
"431 290 OFFCURVE",
"483 256 OFFCURVE",
"483 184 CURVE SMOOTH",
"483 92 OFFCURVE",
"390 45 OFFCURVE",
"309 45 CURVE SMOOTH",
"212 45 OFFCURVE",
"130 77 OFFCURVE",
"128 188 CURVE",
"58 188 LINE",
"61 69 OFFCURVE",
"158 -15 OFFCURVE",
"273 -15 CURVE SMOOTH",
"418 -15 OFFCURVE",
"553 33 OFFCURVE",
"553 190 CURVE SMOOTH"
);
},
{
closed = 1;
nodes = (
"278 -74 LINE",
"243 -219 LINE",
"286 -219 LINE",
"345 -74 LINE"
);
}
);
width = 611;
}
);
leftKerningGroup = S;
note = Scommaaccent;
rightKerningGroup = S;
unicode = 0218;
},
{
glyphname = Tcaron;
lastChange = "2020-10-05 17:32:20 +0000";
layers = (
{
hints = (
{
horizontal = 1;
place = "{0, 21}";
target = up;
type = BottomGhost;
},
{
horizontal = 1;
place = "{662, 60}";
type = Stem;
},
{
place = "{247, 65}";
type = Stem;
},
{
horizontal = 1;
place = "{782, 21}";
target = up;
type = BottomGhost;
},
{
horizontal = 1;
place = "{927, -20}";
target = down;
type = TopGhost;
}
);
layerId = "324B6D7A-1AE4-424F-A6A7-4FAAB53DF00B";
paths = (
{
closed = 1;
nodes = (
"248 0 LINE",
"312 0 LINE",
"313 662 LINE",
"542 662 LINE",
"542 722 LINE",
"14 722 LINE",
"14 662 LINE",
"247 662 LINE"
);
},
{
closed = 1;
nodes = (
"414 927 LINE",
"368 927 LINE",
"278 821 LINE",
"189 927 LINE",
"142 927 LINE",
"241 782 LINE",
"314 782 LINE"
);
}
);
width = 556;
}
);
leftKerningGroup = T;
note = Tcaron;
rightKerningGroup = T;
unicode = 0164;
},
{
glyphname = Tcommaaccent;
lastChange = "2020-10-05 17:32:20 +0000";
layers = (
{
hints = (
{
horizontal = 1;
place = "{0, 21}";
target = up;
type = BottomGhost;
},
{
horizontal = 1;
place = "{662, 60}";
type = Stem;
},
{
place = "{247, 65}";
type = Stem;
},
{
horizontal = 1;
place = "{-219, 21}";
target = up;
type = BottomGhost;
},
{
horizontal = 1;
place = "{-74, -20}";
target = down;
type = TopGhost;
}
);
layerId = "324B6D7A-1AE4-424F-A6A7-4FAAB53DF00B";
paths = (
{
closed = 1;
nodes = (
"248 0 LINE",
"312 0 LINE",
"313 662 LINE",
"542 662 LINE",
"542 722 LINE",
"14 722 LINE",
"14 662 LINE",
"247 662 LINE"
);
},
{
closed = 1;
nodes = (
"249 -74 LINE",
"214 -219 LINE",
"257 -219 LINE",
"316 -74 LINE"
);
}
);
width = 556;
}
);
leftKerningGroup = T;
note = Tcommaaccent;
rightKerningGroup = T;
unicode = 0162;
},
{
glyphname = uni021A;
lastChange = "2020-10-05 17:32:20 +0000";
layers = (
{
hints = (
{
horizontal = 1;
place = "{0, 21}";
target = up;
type = BottomGhost;
},
{
horizontal = 1;
place = "{662, 60}";
type = Stem;
},
{
place = "{247, 65}";
type = Stem;
},
{
horizontal = 1;
place = "{-219, 21}";
target = up;
type = BottomGhost;
},
{
horizontal = 1;
place = "{-74, -20}";
target = down;
type = TopGhost;
}
);
layerId = "324B6D7A-1AE4-424F-A6A7-4FAAB53DF00B";
paths = (
{
closed = 1;
nodes = (
"248 0 LINE",
"312 0 LINE",
"313 662 LINE",
"542 662 LINE",
"542 722 LINE",
"14 722 LINE",
"14 662 LINE",
"247 662 LINE"
);
},
{
closed = 1;
nodes = (
"249 -74 LINE",
"214 -219 LINE",
"257 -219 LINE",
"316 -74 LINE"
);
}
);
width = 556;
}
);
leftKerningGroup = T;
note = uni021A;
rightKerningGroup = T;
unicode = 021A;
},
{
glyphname = Tbar;
lastChange = "2020-10-05 17:32:20 +0000";
layers = (
{
hints = (
{
horizontal = 1;
place = "{0, 21}";
target = up;
type = BottomGhost;
},
{
horizontal = 1;
place = "{430, 40}";
type = Stem;
},
{
horizontal = 1;
place = "{662, 60}";
type = Stem;
},
{
place = "{247, 65}";
type = Stem;
}
);
layerId = "324B6D7A-1AE4-424F-A6A7-4FAAB53DF00B";
paths = (
{
closed = 1;
nodes = (
"438 430 LINE",
"438 470 LINE",
"312 470 LINE",
"313 662 LINE",
"542 662 LINE",
"542 722 LINE",
"14 722 LINE",
"14 662 LINE",
"247 662 LINE",
"247 470 LINE",
"122 470 LINE",
"122 430 LINE",
"247 430 LINE",
"248 0 LINE",
"312 0 LINE",
"312 430 LINE"
);
}
);
width = 556;
}
);
note = Tbar;
unicode = 0166;
},
{
glyphname = Thorn;
lastChange = "2020-10-05 17:32:20 +0000";
layers = (
{
hints = (
{
horizontal = 1;
place = "{0, 21}";
target = up;
type = BottomGhost;
},
{
horizontal = 1;
place = "{159, 60}";
type = Stem;
},
{
horizontal = 1;
place = "{507, 60}";
type = Stem;
},
{
horizontal = 1;
place = "{722, -20}";
target = down;
type = TopGhost;
},
{
place = "{100, 65}";
type = Stem;
},
{
place = "{506, 70}";
type = Stem;
}
);
layerId = "324B6D7A-1AE4-424F-A6A7-4FAAB53DF00B";
paths = (
{
closed = 1;
nodes = (
"165 507 LINE",
"323 507 LINE SMOOTH",
"420 507 OFFCURVE",
"506 476 OFFCURVE",
"506 363 CURVE SMOOTH",
"506 250 OFFCURVE",
"420 219 OFFCURVE",
"323 219 CURVE SMOOTH",
"165 219 LINE"
);
},
{
closed = 1;
nodes = (
"100 0 LINE",
"165 0 LINE",
"165 159 LINE",
"308 159 LINE SMOOTH",
"442 159 OFFCURVE",
"576 191 OFFCURVE",
"576 363 CURVE SMOOTH",
"576 535 OFFCURVE",
"442 567 OFFCURVE",
"308 567 CURVE SMOOTH",
"165 567 LINE",
"165 722 LINE",
"100 722 LINE"
);
}
);
width = 611;
}
);
note = Thorn;
unicode = 00DE;
},
{
glyphname = Ugrave;
lastChange = "2020-10-05 17:32:20 +0000";
layers = (
{
hints = (
{
horizontal = 1;
place = "{-15, 60}";
type = Stem;
},
{
horizontal = 1;
place = "{927, -20}";
target = down;
type = TopGhost;
},
{
place = "{97, 65}";
type = Stem;
},
{
place = "{560, 65}";
type = Stem;
}
);
layerId = "324B6D7A-1AE4-424F-A6A7-4FAAB53DF00B";
paths = (
{
closed = 1;
nodes = (
"97 722 LINE",
"97 254 LINE SMOOTH",
"100 98 OFFCURVE",
"185 -15 OFFCURVE",
"361 -15 CURVE SMOOTH",
"537 -15 OFFCURVE",
"622 98 OFFCURVE",
"625 254 CURVE SMOOTH",
"625 722 LINE",
"560 722 LINE",
"560 255 LINE",
"555 123 OFFCURVE",
"481 45 OFFCURVE",
"361 45 CURVE SMOOTH",
"241 45 OFFCURVE",
"167 123 OFFCURVE",
"162 255 CURVE",
"162 722 LINE"
);
},
{
closed = 1;
nodes = (
"242 927 LINE",
"369 784 LINE",
"413 784 LINE",
"322 927 LINE"
);
}
);
width = 722;
}
);
leftKerningGroup = U;
note = Ugrave;
rightKerningGroup = U;
unicode = 00D9;
},
{
glyphname = Uacute;
lastChange = "2020-10-05 17:32:20 +0000";
layers = (
{
hints = (
{
horizontal = 1;
place = "{-15, 60}";
type = Stem;
},
{
horizontal = 1;
place = "{927, -20}";
target = down;
type = TopGhost;
},
{
place = "{97, 65}";
type = Stem;
},
{
place = "{560, 65}";
type = Stem;
}
);
layerId = "324B6D7A-1AE4-424F-A6A7-4FAAB53DF00B";
paths = (
{
closed = 1;
nodes = (
"97 722 LINE",
"97 254 LINE SMOOTH",
"100 98 OFFCURVE",
"185 -15 OFFCURVE",
"361 -15 CURVE SMOOTH",
"537 -15 OFFCURVE",
"622 98 OFFCURVE",
"625 254 CURVE SMOOTH",
"625 722 LINE",
"560 722 LINE",
"560 255 LINE",
"555 123 OFFCURVE",
"481 45 OFFCURVE",
"361 45 CURVE SMOOTH",
"241 45 OFFCURVE",
"167 123 OFFCURVE",
"162 255 CURVE",
"162 722 LINE"
);
},
{
closed = 1;
nodes = (
"400 927 LINE",
"309 784 LINE",
"353 784 LINE",
"480 927 LINE"
);
}
);
width = 722;
}
);
leftKerningGroup = U;
note = Uacute;
rightKerningGroup = U;
unicode = 00DA;
},
{
glyphname = Ucircumflex;
lastChange = "2020-10-05 17:32:20 +0000";
layers = (
{
hints = (
{
horizontal = 1;
place = "{-15, 60}";
type = Stem;
},
{
horizontal = 1;
place = "{927, -20}";
target = down;
type = TopGhost;
},
{
place = "{97, 65}";
type = Stem;
},
{
place = "{560, 65}";
type = Stem;
}
);
layerId = "324B6D7A-1AE4-424F-A6A7-4FAAB53DF00B";
paths = (
{
closed = 1;
nodes = (
"97 722 LINE",
"97 254 LINE SMOOTH",
"100 98 OFFCURVE",
"185 -15 OFFCURVE",
"361 -15 CURVE SMOOTH",
"537 -15 OFFCURVE",
"622 98 OFFCURVE",
"625 254 CURVE SMOOTH",
"625 722 LINE",
"560 722 LINE",
"560 255 LINE",
"555 123 OFFCURVE",
"481 45 OFFCURVE",
"361 45 CURVE SMOOTH",
"241 45 OFFCURVE",
"167 123 OFFCURVE",
"162 255 CURVE",
"162 722 LINE"
);
},
{
closed = 1;
nodes = (
"225 782 LINE",
"271 782 LINE",
"361 888 LINE",
"450 782 LINE",
"497 782 LINE",
"398 927 LINE",
"325 927 LINE"
);
}
);
width = 722;
}
);
leftKerningGroup = U;
note = Ucircumflex;
rightKerningGroup = U;
unicode = 00DB;
},
{
glyphname = Utilde;
lastChange = "2020-10-05 17:32:20 +0000";
layers = (
{
hints = (
{
horizontal = 1;
place = "{-15, 60}";
type = Stem;
},
{
horizontal = 1;
place = "{722, -20}";
target = down;
type = TopGhost;
},
{
place = "{97, 65}";
type = Stem;
},
{
place = "{560, 65}";
type = Stem;
},
{
horizontal = 1;
place = "{830, 52}";
type = Stem;
},
{
horizontal = 1;
place = "{915, -20}";
target = down;
type = TopGhost;
},
{
horizontal = 1;
place = "{822, 21}";
target = up;
type = BottomGhost;
}
);
layerId = "324B6D7A-1AE4-424F-A6A7-4FAAB53DF00B";
paths = (
{
closed = 1;
nodes = (
"97 722 LINE",
"97 254 LINE SMOOTH",
"99 99 OFFCURVE",
"186 -15 OFFCURVE",
"361 -15 CURVE SMOOTH",
"536 -15 OFFCURVE",
"623 99 OFFCURVE",
"625 254 CURVE SMOOTH",
"625 722 LINE",
"560 722 LINE",
"560 255 LINE",
"555 124 OFFCURVE",
"480 45 OFFCURVE",
"361 45 CURVE SMOOTH",
"242 45 OFFCURVE",
"167 124 OFFCURVE",
"162 255 CURVE",
"162 722 LINE"
);
},
{
closed = 1;
nodes = (
"479 915 LINE",
"471 894 OFFCURVE",
"452 882 OFFCURVE",
"429 882 CURVE SMOOTH",
"421 882 OFFCURVE",
"405 887 OFFCURVE",
"390 891 CURVE",
"375 896 OFFCURVE",
"359 901 OFFCURVE",
"350 902 CURVE",
"291 911 OFFCURVE",
"254 877 OFFCURVE",
"242 822 CURVE",
"280 822 LINE",
"285 842 OFFCURVE",
"307 851 OFFCURVE",
"327 851 CURVE SMOOTH",
"348 851 OFFCURVE",
"366 846 OFFCURVE",
"381 841 CURVE",
"397 834 OFFCURVE",
"411 830 OFFCURVE",
"426 830 CURVE SMOOTH",
"477 830 OFFCURVE",
"506 870 OFFCURVE",
"517 915 CURVE"
);
}
);
width = 722;
}
);
leftKerningGroup = U;
note = Utilde;
rightKerningGroup = U;
unicode = 0168;
},
{
glyphname = Udieresis;
lastChange = "2020-10-05 17:32:20 +0000";
layers = (
{
hints = (
{
horizontal = 1;
place = "{-15, 60}";
type = Stem;
},
{
horizontal = 1;
place = "{824, 88}";
type = Stem;
},
{
place = "{97, 65}";
type = Stem;
},
{
place = "{237, 74}";
type = Stem;
},
{
place = "{411, 74}";
type = Stem;
},
{
place = "{560, 65}";
type = Stem;
}
);
layerId = "324B6D7A-1AE4-424F-A6A7-4FAAB53DF00B";
paths = (
{
closed = 1;
nodes = (
"97 722 LINE",
"97 254 LINE SMOOTH",
"100 98 OFFCURVE",
"185 -15 OFFCURVE",
"361 -15 CURVE SMOOTH",
"537 -15 OFFCURVE",
"622 98 OFFCURVE",
"625 254 CURVE SMOOTH",
"625 722 LINE",
"560 722 LINE",
"560 255 LINE",
"555 123 OFFCURVE",
"481 45 OFFCURVE",
"361 45 CURVE SMOOTH",
"241 45 OFFCURVE",
"167 123 OFFCURVE",
"162 255 CURVE",
"162 722 LINE"
);
},
{
closed = 1;
nodes = (
"485 824 LINE",
"485 912 LINE",
"411 912 LINE",
"411 824 LINE"
);
},
{
closed = 1;
nodes = (
"311 824 LINE",
"311 912 LINE",
"237 912 LINE",
"237 824 LINE"
);
}
);
width = 722;
}
);
leftKerningGroup = U;
note = Udieresis;
rightKerningGroup = U;
unicode = 00DC;
},
{
glyphname = Umacron;
lastChange = "2020-10-05 17:32:20 +0000";
layers = (
{
hints = (
{
horizontal = 1;
place = "{-15, 60}";
type = Stem;
},
{
horizontal = 1;
place = "{722, -20}";
target = down;
type = TopGhost;
},
{
place = "{97, 65}";
type = Stem;
},
{
place = "{560, 65}";
type = Stem;
},
{
horizontal = 1;
place = "{843, 50}";
type = Stem;
}
);
layerId = "324B6D7A-1AE4-424F-A6A7-4FAAB53DF00B";
paths = (
{
closed = 1;
nodes = (
"97 722 LINE",
"97 254 LINE SMOOTH",
"99 99 OFFCURVE",
"186 -15 OFFCURVE",
"361 -15 CURVE SMOOTH",
"536 -15 OFFCURVE",
"623 99 OFFCURVE",
"625 254 CURVE SMOOTH",
"625 722 LINE",
"560 722 LINE",
"560 255 LINE",
"555 124 OFFCURVE",
"480 45 OFFCURVE",
"361 45 CURVE SMOOTH",
"242 45 OFFCURVE",
"167 124 OFFCURVE",
"162 255 CURVE",
"162 722 LINE"
);
},
{
closed = 1;
nodes = (
"486 843 LINE",
"486 893 LINE",
"241 893 LINE",
"241 843 LINE"
);
}
);
width = 722;
}
);
leftKerningGroup = U;
note = Umacron;
rightKerningGroup = U;
unicode = 016A;
},
{
glyphname = Ubreve;
lastChange = "2020-10-05 17:32:20 +0000";
layers = (
{
hints = (
{
horizontal = 1;
place = "{-15, 60}";
type = Stem;
},
{
horizontal = 1;
place = "{722, -20}";
target = down;
type = TopGhost;
},
{
place = "{97, 65}";
type = Stem;
},
{
place = "{560, 65}";
type = Stem;
},
{
horizontal = 1;
place = "{829, 46}";
type = Stem;
},
{
horizontal = 1;
place = "{937, -20}";
target = down;
type = TopGhost;
},
{
place = "{242, 244}";
type = Stem;
}
);
layerId = "324B6D7A-1AE4-424F-A6A7-4FAAB53DF00B";
paths = (
{
closed = 1;
nodes = (
"97 722 LINE",
"97 254 LINE SMOOTH",
"99 99 OFFCURVE",
"186 -15 OFFCURVE",
"361 -15 CURVE SMOOTH",
"536 -15 OFFCURVE",
"623 99 OFFCURVE",
"625 254 CURVE SMOOTH",
"625 722 LINE",
"560 722 LINE",
"560 255 LINE",
"555 124 OFFCURVE",
"480 45 OFFCURVE",
"361 45 CURVE SMOOTH",
"242 45 OFFCURVE",
"167 124 OFFCURVE",
"162 255 CURVE",
"162 722 LINE"
);
},
{
closed = 1;
nodes = (
"465 937 LINE",
"452 889 OFFCURVE",
"400 875 OFFCURVE",
"361 875 CURVE SMOOTH",
"323 875 OFFCURVE",
"276 889 OFFCURVE",
"265 937 CURVE",
"242 937 LINE",
"243 864 OFFCURVE",
"296 829 OFFCURVE",
"361 829 CURVE SMOOTH",
"433 829 OFFCURVE",
"481 857 OFFCURVE",
"486 937 CURVE"
);
}
);
width = 722;
}
);
leftKerningGroup = U;
note = Ubreve;
rightKerningGroup = U;
unicode = 016C;
},
{
glyphname = Uring;
lastChange = "2020-10-05 17:32:20 +0000";
layers = (
{
hints = (
{
horizontal = 1;
place = "{-15, 60}";
type = Stem;
},
{
horizontal = 1;
place = "{722, -20}";
target = down;
type = TopGhost;
},
{
place = "{97, 65}";
type = Stem;
},
{
place = "{560, 65}";
type = Stem;
},
{
horizontal = 1;
place = "{777, 36}";
type = Stem;
},
{
horizontal = 1;
place = "{925, 37}";
type = Stem;
},
{
place = "{274, 36}";
type = Stem;
},
{
place = "{422, 37}";
type = Stem;
}
);
layerId = "324B6D7A-1AE4-424F-A6A7-4FAAB53DF00B";
paths = (
{
closed = 1;
nodes = (
"97 722 LINE",
"97 254 LINE SMOOTH",
"99 99 OFFCURVE",
"186 -15 OFFCURVE",
"361 -15 CURVE SMOOTH",
"536 -15 OFFCURVE",
"623 99 OFFCURVE",
"625 254 CURVE SMOOTH",
"625 722 LINE",
"560 722 LINE",
"560 255 LINE",
"555 124 OFFCURVE",
"480 45 OFFCURVE",
"361 45 CURVE SMOOTH",
"242 45 OFFCURVE",
"167 124 OFFCURVE",
"162 255 CURVE",
"162 722 LINE"
);
},
{
closed = 1;
nodes = (
"274 818 OFFCURVE",
"315 777 OFFCURVE",
"366 777 CURVE SMOOTH",
"417 777 OFFCURVE",
"459 819 OFFCURVE",
"459 869 CURVE SMOOTH",
"459 920 OFFCURVE",
"417 962 OFFCURVE",
"366 962 CURVE SMOOTH",
"316 962 OFFCURVE",
"274 920 OFFCURVE",
"274 869 CURVE SMOOTH"
);
},
{
closed = 1;
nodes = (
"422 838 OFFCURVE",
"397 813 OFFCURVE",
"366 813 CURVE SMOOTH",
"335 813 OFFCURVE",
"310 838 OFFCURVE",
"310 869 CURVE SMOOTH",
"310 900 OFFCURVE",
"335 925 OFFCURVE",
"366 925 CURVE SMOOTH",
"397 925 OFFCURVE",
"422 900 OFFCURVE",
"422 869 CURVE SMOOTH"
);
}
);
width = 722;
}
);
leftKerningGroup = U;
note = Uring;
rightKerningGroup = U;
unicode = 016E;
},
{
glyphname = Uhungarumlaut;
lastChange = "2020-10-05 17:32:20 +0000";
layers = (
{
hints = (
{
horizontal = 1;
place = "{-15, 60}";
type = Stem;
},
{
horizontal = 1;
place = "{722, -20}";
target = down;
type = TopGhost;
},
{
place = "{97, 65}";
type = Stem;
},
{
place = "{560, 65}";
type = Stem;
},
{
horizontal = 1;
place = "{786, 141}";
type = Stem;
}
);
layerId = "324B6D7A-1AE4-424F-A6A7-4FAAB53DF00B";
paths = (
{
closed = 1;
nodes = (
"97 722 LINE",
"97 254 LINE SMOOTH",
"99 99 OFFCURVE",
"186 -15 OFFCURVE",
"361 -15 CURVE SMOOTH",
"536 -15 OFFCURVE",
"623 99 OFFCURVE",
"625 254 CURVE SMOOTH",
"625 722 LINE",
"560 722 LINE",
"560 255 LINE",
"555 124 OFFCURVE",
"480 45 OFFCURVE",
"361 45 CURVE SMOOTH",
"242 45 OFFCURVE",
"167 124 OFFCURVE",
"162 255 CURVE",
"162 722 LINE"
);
},
{
closed = 1;
nodes = (
"259 786 LINE",
"306 786 LINE",
"435 927 LINE",
"354 927 LINE"
);
},
{
closed = 1;
nodes = (
"390 786 LINE",
"437 786 LINE",
"566 927 LINE",
"485 927 LINE"
);
}
);
width = 722;
}
);
leftKerningGroup = U;
note = Uhungarumlaut;
rightKerningGroup = U;
unicode = 0170;
},
{
glyphname = Uogonek;
lastChange = "2020-10-05 17:32:20 +0000";
layers = (
{
hints = (
{
horizontal = 1;
place = "{-182, 37}";
type = Stem;
},
{
horizontal = 1;
place = "{-14, 59}";
type = Stem;
},
{
horizontal = 1;
place = "{722, -20}";
target = down;
type = TopGhost;
},
{
place = "{97, 65}";
type = Stem;
},
{
place = "{278, 46}";
type = Stem;
},
{
place = "{560, 65}";
type = Stem;
}
);
layerId = "324B6D7A-1AE4-424F-A6A7-4FAAB53DF00B";
paths = (
{
closed = 1;
nodes = (
"435 -134 LINE",
"414 -141 OFFCURVE",
"398 -145 OFFCURVE",
"374 -145 CURVE SMOOTH",
"354 -145 OFFCURVE",
"324 -139 OFFCURVE",
"324 -103 CURVE SMOOTH",
"324 -64 OFFCURVE",
"349 -42 OFFCURVE",
"393 -13 CURVE",
"547 1 OFFCURVE",
"622 109 OFFCURVE",
"625 254 CURVE SMOOTH",
"625 722 LINE",
"560 722 LINE",
"560 255 LINE",
"555 123 OFFCURVE",
"481 45 OFFCURVE",
"361 45 CURVE SMOOTH",
"241 45 OFFCURVE",
"167 123 OFFCURVE",
"162 255 CURVE",
"162 722 LINE",
"97 722 LINE",
"97 254 LINE SMOOTH",
"100 104 OFFCURVE",
"179 -6 OFFCURVE",
"344 -14 CURVE",
"309 -34 OFFCURVE",
"278 -65 OFFCURVE",
"278 -108 CURVE SMOOTH",
"278 -168 OFFCURVE",
"330 -182 OFFCURVE",
"366 -182 CURVE SMOOTH",
"393 -182 OFFCURVE",
"416 -175 OFFCURVE",
"435 -168 CURVE"
);
}
);
width = 722;
}
);
leftKerningGroup = U;
note = Uogonek;
rightKerningGroup = U;
unicode = 0172;
},
{
glyphname = Wacute;
lastChange = "2020-10-05 17:32:20 +0000";
layers = (
{
hints = (
{
horizontal = 1;
place = "{0, 21}";
target = up;
type = BottomGhost;
},
{
horizontal = 1;
place = "{722, -20}";
target = down;
type = TopGhost;
},
{
horizontal = 1;
place = "{784, 21}";
target = up;
type = BottomGhost;
},
{
horizontal = 1;
place = "{927, -20}";
target = down;
type = TopGhost;
}
);
layerId = "324B6D7A-1AE4-424F-A6A7-4FAAB53DF00B";
paths = (
{
closed = 1;
nodes = (
"497 655 LINE",
"499 655 LINE",
"712 0 LINE",
"801 0 LINE",
"991 722 LINE",
"928 722 LINE",
"761 65 LINE",
"759 65 LINE",
"539 722 LINE",
"460 722 LINE",
"249 65 LINE",
"247 65 LINE",
"79 722 LINE",
"10 722 LINE",
"198 0 LINE",
"290 0 LINE"
);
},
{
closed = 1;
nodes = (
"574 927 LINE",
"483 784 LINE",
"527 784 LINE",
"654 927 LINE"
);
}
);
width = 1000;
}
);
leftKerningGroup = W;
note = Wacute;
rightKerningGroup = W;
unicode = 1E82;
},
{
glyphname = Wcircumflex;
lastChange = "2020-10-05 17:32:20 +0000";
layers = (
{
hints = (
{
horizontal = 1;
place = "{0, 21}";
target = up;
type = BottomGhost;
},
{
horizontal = 1;
place = "{722, -20}";
target = down;
type = TopGhost;
},
{
horizontal = 1;
place = "{782, 21}";
target = up;
type = BottomGhost;
},
{
horizontal = 1;
place = "{927, -20}";
target = down;
type = TopGhost;
}
);
layerId = "324B6D7A-1AE4-424F-A6A7-4FAAB53DF00B";
paths = (
{
closed = 1;
nodes = (
"497 655 LINE",
"499 655 LINE",
"712 0 LINE",
"801 0 LINE",
"991 722 LINE",
"928 722 LINE",
"761 65 LINE",
"759 65 LINE",
"539 722 LINE",
"460 722 LINE",
"249 65 LINE",
"247 65 LINE",
"79 722 LINE",
"10 722 LINE",
"198 0 LINE",
"290 0 LINE"
);
},
{
closed = 1;
nodes = (
"364 782 LINE",
"410 782 LINE",
"500 888 LINE",
"589 782 LINE",
"636 782 LINE",
"537 927 LINE",
"464 927 LINE"
);
}
);
width = 1000;
}
);
leftKerningGroup = W;
note = Wcircumflex;
rightKerningGroup = W;
unicode = 0174;
},
{
glyphname = Wdieresis;
lastChange = "2020-10-05 17:32:20 +0000";
layers = (
{
hints = (
{
horizontal = 1;
place = "{0, 21}";
target = up;
type = BottomGhost;
},
{
horizontal = 1;
place = "{722, -20}";
target = down;
type = TopGhost;
},
{
horizontal = 1;
place = "{824, 88}";
type = Stem;
},
{
place = "{376, 74}";
type = Stem;
},
{
place = "{550, 74}";
type = Stem;
}
);
layerId = "324B6D7A-1AE4-424F-A6A7-4FAAB53DF00B";
paths = (
{
closed = 1;
nodes = (
"497 655 LINE",
"499 655 LINE",
"712 0 LINE",
"801 0 LINE",
"991 722 LINE",
"928 722 LINE",
"761 65 LINE",
"759 65 LINE",
"539 722 LINE",
"460 722 LINE",
"249 65 LINE",
"247 65 LINE",
"79 722 LINE",
"10 722 LINE",
"198 0 LINE",
"290 0 LINE"
);
},
{
closed = 1;
nodes = (
"624 824 LINE",
"624 912 LINE",
"550 912 LINE",
"550 824 LINE"
);
},
{
closed = 1;
nodes = (
"450 824 LINE",
"450 912 LINE",
"376 912 LINE",
"376 824 LINE"
);
}
);
width = 1000;
}
);
leftKerningGroup = W;
note = Wdieresis;
rightKerningGroup = W;
unicode = 1E84;
},
{
glyphname = Wgrave;
lastChange = "2020-10-05 17:32:20 +0000";
layers = (
{
hints = (
{
horizontal = 1;
place = "{0, 21}";
target = up;
type = BottomGhost;
},
{
horizontal = 1;
place = "{722, -20}";
target = down;
type = TopGhost;
},
{
horizontal = 1;
place = "{784, 21}";
target = up;
type = BottomGhost;
},
{
horizontal = 1;
place = "{927, -20}";
target = down;
type = TopGhost;
}
);
layerId = "324B6D7A-1AE4-424F-A6A7-4FAAB53DF00B";
paths = (
{
closed = 1;
nodes = (
"497 655 LINE",
"499 655 LINE",
"712 0 LINE",
"801 0 LINE",
"991 722 LINE",
"928 722 LINE",
"761 65 LINE",
"759 65 LINE",
"539 722 LINE",
"460 722 LINE",
"249 65 LINE",
"247 65 LINE",
"79 722 LINE",
"10 722 LINE",
"198 0 LINE",
"290 0 LINE"
);
},
{
closed = 1;
nodes = (
"349 927 LINE",
"476 784 LINE",
"520 784 LINE",
"429 927 LINE"
);
}
);
width = 1000;
}
);
leftKerningGroup = W;
note = Wgrave;
rightKerningGroup = W;
unicode = 1E80;
},
{
glyphname = Yacute;
lastChange = "2020-10-05 17:32:20 +0000";
layers = (
{
hints = (
{
horizontal = 1;
place = "{0, 21}";
target = up;
type = BottomGhost;
},
{
horizontal = 1;
place = "{927, -20}";
target = down;
type = TopGhost;
},
{
place = "{274, 65}";
type = Stem;
}
);
layerId = "324B6D7A-1AE4-424F-A6A7-4FAAB53DF00B";
paths = (
{
closed = 1;
nodes = (
"274 0 LINE",
"339 0 LINE",
"339 314 LINE",
"603 722 LINE",
"533 722 LINE",
"312 373 LINE",
"91 722 LINE",
"8 722 LINE",
"274 312 LINE"
);
},
{
closed = 1;
nodes = (
"371 927 LINE",
"280 784 LINE",
"324 784 LINE",
"451 927 LINE"
);
}
);
width = 611;
}
);
leftKerningGroup = Y;
note = Yacute;
rightKerningGroup = Y;
unicode = 00DD;
},
{
glyphname = Ycircumflex;
lastChange = "2020-10-05 17:32:20 +0000";
layers = (
{
hints = (
{
horizontal = 1;
place = "{0, 21}";
target = up;
type = BottomGhost;
},
{
horizontal = 1;
place = "{722, -20}";
target = down;
type = TopGhost;
},
{
place = "{274, 65}";
type = Stem;
},
{
horizontal = 1;
place = "{782, 21}";
target = up;
type = BottomGhost;
},
{
horizontal = 1;
place = "{927, -20}";
target = down;
type = TopGhost;
}
);
layerId = "324B6D7A-1AE4-424F-A6A7-4FAAB53DF00B";
paths = (
{
closed = 1;
nodes = (
"274 0 LINE",
"339 0 LINE",
"339 314 LINE",
"603 722 LINE",
"533 722 LINE",
"312 373 LINE",
"91 722 LINE",
"8 722 LINE",
"274 312 LINE"
);
},
{
closed = 1;
nodes = (
"174 782 LINE",
"220 782 LINE",
"310 888 LINE",
"399 782 LINE",
"446 782 LINE",
"347 927 LINE",
"274 927 LINE"
);
}
);
width = 611;
}
);
leftKerningGroup = Y;
note = Ycircumflex;
rightKerningGroup = Y;
unicode = 0176;
},
{
glyphname = Ydieresis;
lastChange = "2020-10-05 17:32:20 +0000";
layers = (
{
hints = (
{
horizontal = 1;
place = "{0, 21}";
target = up;
type = BottomGhost;
},
{
horizontal = 1;
place = "{824, 88}";
type = Stem;
},
{
place = "{182, 74}";
type = Stem;
},
{
place = "{274, 65}";
type = Stem;
},
{
place = "{356, 74}";
type = Stem;
}
);
layerId = "324B6D7A-1AE4-424F-A6A7-4FAAB53DF00B";
paths = (
{
closed = 1;
nodes = (
"274 0 LINE",
"339 0 LINE",
"339 314 LINE",
"603 722 LINE",
"533 722 LINE",
"312 373 LINE",
"91 722 LINE",
"8 722 LINE",
"274 312 LINE"
);
},
{
closed = 1;
nodes = (
"430 824 LINE",
"430 912 LINE",
"356 912 LINE",
"356 824 LINE"
);
},
{
closed = 1;
nodes = (
"256 824 LINE",
"256 912 LINE",
"182 912 LINE",
"182 824 LINE"
);
}
);
width = 611;
}
);
leftKerningGroup = Y;
note = Ydieresis;
rightKerningGroup = Y;
unicode = 0178;
},
{
glyphname = Ygrave;
lastChange = "2020-10-05 17:32:20 +0000";
layers = (
{
hints = (
{
horizontal = 1;
place = "{0, 21}";
target = up;
type = BottomGhost;
},
{
horizontal = 1;
place = "{722, -20}";
target = down;
type = TopGhost;
},
{
place = "{274, 65}";
type = Stem;
},
{
horizontal = 1;
place = "{784, 21}";
target = up;
type = BottomGhost;
},
{
horizontal = 1;
place = "{927, -20}";
target = down;
type = TopGhost;
}
);
layerId = "324B6D7A-1AE4-424F-A6A7-4FAAB53DF00B";
paths = (
{
closed = 1;
nodes = (
"274 0 LINE",
"339 0 LINE",
"339 314 LINE",
"603 722 LINE",
"533 722 LINE",
"312 373 LINE",
"91 722 LINE",
"8 722 LINE",
"274 312 LINE"
);
},
{
closed = 1;
nodes = (
"175 927 LINE",
"302 784 LINE",
"346 784 LINE",
"255 927 LINE"
);
}
);
width = 611;
}
);
leftKerningGroup = Y;
note = Ygrave;
rightKerningGroup = Y;
unicode = 1EF2;
},
{
glyphname = Zacute;
lastChange = "2020-10-05 17:32:20 +0000";
layers = (
{
hints = (
{
horizontal = 1;
place = "{0, 60}";
type = Stem;
},
{
horizontal = 1;
place = "{662, 60}";
type = Stem;
},
{
horizontal = 1;
place = "{784, 21}";
target = up;
type = BottomGhost;
},
{
horizontal = 1;
place = "{927, -20}";
target = down;
type = TopGhost;
}
);
layerId = "324B6D7A-1AE4-424F-A6A7-4FAAB53DF00B";
paths = (
{
closed = 1;
nodes = (
"517 0 LINE",
"517 60 LINE",
"115 60 LINE",
"517 662 LINE",
"517 722 LINE",
"39 722 LINE",
"39 662 LINE",
"440 662 LINE",
"39 60 LINE",
"39 0 LINE"
);
},
{
closed = 1;
nodes = (
"332 927 LINE",
"241 784 LINE",
"285 784 LINE",
"412 927 LINE"
);
}
);
width = 556;
}
);
note = Zacute;
unicode = 0179;
},
{
glyphname = Zcaron;
lastChange = "2020-10-05 17:32:20 +0000";
layers = (
{
hints = (
{
horizontal = 1;
place = "{0, 60}";
type = Stem;
},
{
horizontal = 1;
place = "{662, 60}";
type = Stem;
},
{
horizontal = 1;
place = "{927, -20}";
target = down;
type = TopGhost;
}
);
layerId = "324B6D7A-1AE4-424F-A6A7-4FAAB53DF00B";
paths = (
{
closed = 1;
nodes = (
"517 0 LINE",
"517 60 LINE",
"115 60 LINE",
"517 662 LINE",
"517 722 LINE",
"39 722 LINE",
"39 662 LINE",
"440 662 LINE",
"39 60 LINE",
"39 0 LINE"
);
},
{
closed = 1;
nodes = (
"414 927 LINE",
"368 927 LINE",
"278 821 LINE",
"189 927 LINE",
"142 927 LINE",
"241 782 LINE",
"314 782 LINE"
);
}
);
width = 556;
}
);
note = Zcaron;
unicode = 017D;
},
{
glyphname = Zdotaccent;
lastChange = "2020-10-05 17:32:20 +0000";
layers = (
{
hints = (
{
horizontal = 1;
place = "{0, 60}";
type = Stem;
},
{
horizontal = 1;
place = "{662, 60}";
type = Stem;
},
{
horizontal = 1;
place = "{839, 88}";
type = Stem;
},
{
place = "{241, 74}";
type = Stem;
}
);
layerId = "324B6D7A-1AE4-424F-A6A7-4FAAB53DF00B";
paths = (
{
closed = 1;
nodes = (
"517 0 LINE",
"517 60 LINE",
"115 60 LINE",
"517 662 LINE",
"517 722 LINE",
"39 722 LINE",
"39 662 LINE",
"440 662 LINE",
"39 60 LINE",
"39 0 LINE"
);
},
{
closed = 1;
nodes = (
"315 839 LINE",
"315 927 LINE",
"241 927 LINE",
"241 839 LINE"
);
}
);
width = 556;
}
);
note = Zdotaccent;
unicode = 017B;
},
{
glyphname = agrave;
lastChange = "2020-10-05 17:32:20 +0000";
layers = (
{
hints = (
{
horizontal = 1;
place = "{-15, 55}";
type = Stem;
},
{
horizontal = 1;
place = "{257, 51}";
type = Stem;
},
{
horizontal = 1;
place = "{462, 245}";
type = Stem;
},
{
place = "{36, 65}";
type = Stem;
},
{
place = "{365, 59}";
type = Stem;
},
{
horizontal = 1;
place = "{0, 40}";
type = Stem;
},
{
horizontal = 1;
place = "{375, 142}";
type = Stem;
},
{
horizontal = 1;
place = "{462, 55}";
type = Stem;
}
);
layerId = "324B6D7A-1AE4-424F-A6A7-4FAAB53DF00B";
paths = (
{
closed = 1;
nodes = (
"131 707 LINE",
"258 564 LINE",
"302 564 LINE",
"211 707 LINE"
);
},
{
closed = 1;
nodes = (
"101 236 OFFCURVE",
"206 257 OFFCURVE",
"294 257 CURVE SMOOTH",
"321 257 OFFCURVE",
"344 258 OFFCURVE",
"364 255 CURVE",
"365 244 OFFCURVE",
"365 232 OFFCURVE",
"365 221 CURVE SMOOTH",
"365 127 OFFCURVE",
"331 40 OFFCURVE",
"214 40 CURVE SMOOTH",
"153 40 OFFCURVE",
"101 72 OFFCURVE",
"101 140 CURVE SMOOTH"
);
},
{
closed = 1;
nodes = (
"364 308 LINE",
"292 308 OFFCURVE",
"204 309 OFFCURVE",
"137 282 CURVE SMOOTH",
"77 258 OFFCURVE",
"36 208 OFFCURVE",
"36 140 CURVE SMOOTH",
"36 42 OFFCURVE",
"110 -15 OFFCURVE",
"203 -15 CURVE SMOOTH",
"287 -15 OFFCURVE",
"337 24 OFFCURVE",
"360 67 CURVE",
"363 74 LINE",
"365 74 LINE",
"367 0 LINE",
"429 0 LINE",
"426 35 OFFCURVE",
"423 74 OFFCURVE",
"424 113 CURVE SMOOTH",
"424 356 LINE SMOOTH",
"424 471 OFFCURVE",
"357 517 OFFCURVE",
"246 517 CURVE SMOOTH",
"149 517 OFFCURVE",
"74 479 OFFCURVE",
"58 375 CURVE",
"122 375 LINE",
"130 443 OFFCURVE",
"181 462 OFFCURVE",
"245 462 CURVE SMOOTH",
"316 462 OFFCURVE",
"364 436 OFFCURVE",
"364 354 CURVE SMOOTH"
);
}
);
width = 500;
}
);
leftKerningGroup = a;
note = agrave;
rightKerningGroup = a;
unicode = 00E0;
},
{
glyphname = aacute;
lastChange = "2020-10-05 17:32:20 +0000";
layers = (
{
hints = (
{
horizontal = 1;
place = "{-15, 55}";
type = Stem;
},
{
horizontal = 1;
place = "{257, 51}";
type = Stem;
},
{
horizontal = 1;
place = "{462, 245}";
type = Stem;
},
{
place = "{36, 65}";
type = Stem;
},
{
place = "{365, 59}";
type = Stem;
},
{
horizontal = 1;
place = "{0, 40}";
type = Stem;
},
{
horizontal = 1;
place = "{375, 142}";
type = Stem;
},
{
horizontal = 1;
place = "{462, 55}";
type = Stem;
}
);
layerId = "324B6D7A-1AE4-424F-A6A7-4FAAB53DF00B";
paths = (
{
closed = 1;
nodes = (
"289 707 LINE",
"198 564 LINE",
"242 564 LINE",
"369 707 LINE"
);
},
{
closed = 1;
nodes = (
"101 236 OFFCURVE",
"206 257 OFFCURVE",
"294 257 CURVE SMOOTH",
"321 257 OFFCURVE",
"344 258 OFFCURVE",
"364 255 CURVE",
"365 244 OFFCURVE",
"365 232 OFFCURVE",
"365 221 CURVE SMOOTH",
"365 127 OFFCURVE",
"331 40 OFFCURVE",
"214 40 CURVE SMOOTH",
"153 40 OFFCURVE",
"101 72 OFFCURVE",
"101 140 CURVE SMOOTH"
);
},
{
closed = 1;
nodes = (
"364 308 LINE",
"292 308 OFFCURVE",
"204 309 OFFCURVE",
"137 282 CURVE SMOOTH",
"77 258 OFFCURVE",
"36 208 OFFCURVE",
"36 140 CURVE SMOOTH",
"36 42 OFFCURVE",
"110 -15 OFFCURVE",
"203 -15 CURVE SMOOTH",
"287 -15 OFFCURVE",
"337 24 OFFCURVE",
"360 67 CURVE",
"363 74 LINE",
"365 74 LINE",
"367 0 LINE",
"429 0 LINE",
"426 35 OFFCURVE",
"423 74 OFFCURVE",
"424 113 CURVE SMOOTH",
"424 356 LINE SMOOTH",
"424 471 OFFCURVE",
"357 517 OFFCURVE",
"246 517 CURVE SMOOTH",
"149 517 OFFCURVE",
"74 479 OFFCURVE",
"58 375 CURVE",
"122 375 LINE",
"130 443 OFFCURVE",
"181 462 OFFCURVE",
"245 462 CURVE SMOOTH",
"316 462 OFFCURVE",
"364 436 OFFCURVE",
"364 354 CURVE SMOOTH"
);
}
);
width = 500;
}
);
leftKerningGroup = a;
note = aacute;
rightKerningGroup = a;
unicode = 00E1;
},
{
glyphname = acircumflex;
lastChange = "2020-10-05 17:32:20 +0000";
layers = (
{
hints = (
{
horizontal = 1;
place = "{-15, 55}";
type = Stem;
},
{
horizontal = 1;
place = "{257, 51}";
type = Stem;
},
{
horizontal = 1;
place = "{462, 245}";
type = Stem;
},
{
place = "{36, 65}";
type = Stem;
},
{
place = "{365, 59}";
type = Stem;
},
{
horizontal = 1;
place = "{0, 40}";
type = Stem;
},
{
horizontal = 1;
place = "{375, 142}";
type = Stem;
},
{
horizontal = 1;
place = "{462, 55}";
type = Stem;
}
);
layerId = "324B6D7A-1AE4-424F-A6A7-4FAAB53DF00B";
paths = (
{
closed = 1;
nodes = (
"114 562 LINE",
"160 562 LINE",
"250 668 LINE",
"339 562 LINE",
"386 562 LINE",
"287 707 LINE",
"214 707 LINE"
);
},
{
closed = 1;
nodes = (
"101 236 OFFCURVE",
"206 257 OFFCURVE",
"294 257 CURVE SMOOTH",
"321 257 OFFCURVE",
"344 258 OFFCURVE",
"364 255 CURVE",
"365 244 OFFCURVE",
"365 232 OFFCURVE",
"365 221 CURVE SMOOTH",
"365 127 OFFCURVE",
"331 40 OFFCURVE",
"214 40 CURVE SMOOTH",
"153 40 OFFCURVE",
"101 72 OFFCURVE",
"101 140 CURVE SMOOTH"
);
},
{
closed = 1;
nodes = (
"364 308 LINE",
"292 308 OFFCURVE",
"204 309 OFFCURVE",
"137 282 CURVE SMOOTH",
"77 258 OFFCURVE",
"36 208 OFFCURVE",
"36 140 CURVE SMOOTH",
"36 42 OFFCURVE",
"110 -15 OFFCURVE",
"203 -15 CURVE SMOOTH",
"287 -15 OFFCURVE",
"337 24 OFFCURVE",
"360 67 CURVE",
"363 74 LINE",
"365 74 LINE",
"367 0 LINE",
"429 0 LINE",
"426 35 OFFCURVE",
"423 74 OFFCURVE",
"424 113 CURVE SMOOTH",
"424 356 LINE SMOOTH",
"424 471 OFFCURVE",
"357 517 OFFCURVE",
"246 517 CURVE SMOOTH",
"149 517 OFFCURVE",
"74 479 OFFCURVE",
"58 375 CURVE",
"122 375 LINE",
"130 443 OFFCURVE",
"181 462 OFFCURVE",
"245 462 CURVE SMOOTH",
"316 462 OFFCURVE",
"364 436 OFFCURVE",
"364 354 CURVE SMOOTH"
);
}
);
width = 500;
}
);
leftKerningGroup = a;
note = acircumflex;
rightKerningGroup = a;
unicode = 00E2;
},
{
glyphname = atilde;
lastChange = "2020-10-05 17:32:20 +0000";
layers = (
{
hints = (
{
horizontal = 1;
place = "{-15, 55}";
type = Stem;
},
{
horizontal = 1;
place = "{257, 51}";
type = Stem;
},
{
horizontal = 1;
place = "{375, 142}";
type = Stem;
},
{
horizontal = 1;
place = "{610, 52}";
type = Stem;
},
{
horizontal = 1;
place = "{695, -20}";
target = down;
type = TopGhost;
},
{
place = "{36, 65}";
type = Stem;
},
{
place = "{365, 59}";
type = Stem;
},
{
horizontal = 1;
place = "{0, 40}";
type = Stem;
},
{
horizontal = 1;
place = "{462, 55}";
type = Stem;
}
);
layerId = "324B6D7A-1AE4-424F-A6A7-4FAAB53DF00B";
paths = (
{
closed = 1;
nodes = (
"350 695 LINE",
"342 674 OFFCURVE",
"323 662 OFFCURVE",
"300 662 CURVE SMOOTH",
"292 662 OFFCURVE",
"276 667 OFFCURVE",
"261 671 CURVE",
"246 676 OFFCURVE",
"230 681 OFFCURVE",
"221 682 CURVE",
"162 691 OFFCURVE",
"125 657 OFFCURVE",
"113 602 CURVE",
"151 602 LINE",
"156 622 OFFCURVE",
"178 631 OFFCURVE",
"198 631 CURVE SMOOTH",
"219 631 OFFCURVE",
"237 626 OFFCURVE",
"252 621 CURVE",
"268 614 OFFCURVE",
"282 610 OFFCURVE",
"297 610 CURVE SMOOTH",
"348 610 OFFCURVE",
"377 650 OFFCURVE",
"388 695 CURVE"
);
},
{
closed = 1;
nodes = (
"101 236 OFFCURVE",
"206 257 OFFCURVE",
"294 257 CURVE SMOOTH",
"321 257 OFFCURVE",
"344 258 OFFCURVE",
"364 255 CURVE",
"365 244 OFFCURVE",
"365 232 OFFCURVE",
"365 221 CURVE SMOOTH",
"365 127 OFFCURVE",
"331 40 OFFCURVE",
"214 40 CURVE SMOOTH",
"153 40 OFFCURVE",
"101 72 OFFCURVE",
"101 140 CURVE SMOOTH"
);
},
{
closed = 1;
nodes = (
"364 308 LINE",
"292 308 OFFCURVE",
"204 309 OFFCURVE",
"137 282 CURVE SMOOTH",
"77 258 OFFCURVE",
"36 208 OFFCURVE",
"36 140 CURVE SMOOTH",
"36 42 OFFCURVE",
"110 -15 OFFCURVE",
"203 -15 CURVE SMOOTH",
"287 -15 OFFCURVE",
"337 24 OFFCURVE",
"360 67 CURVE",
"363 74 LINE",
"365 74 LINE",
"367 0 LINE",
"429 0 LINE",
"426 35 OFFCURVE",
"423 74 OFFCURVE",
"424 113 CURVE SMOOTH",
"424 356 LINE SMOOTH",
"424 471 OFFCURVE",
"357 517 OFFCURVE",
"246 517 CURVE SMOOTH",
"149 517 OFFCURVE",
"74 479 OFFCURVE",
"58 375 CURVE",
"122 375 LINE",
"130 443 OFFCURVE",
"181 462 OFFCURVE",
"245 462 CURVE SMOOTH",
"316 462 OFFCURVE",
"364 436 OFFCURVE",
"364 354 CURVE SMOOTH"
);
}
);
width = 500;
}
);
leftKerningGroup = a;
note = atilde;
rightKerningGroup = a;
unicode = 00E3;
},
